<?xml version="1.0" encoding="utf-8"?>
<!-- Generator: Adobe Illustrator 18.1.1, SVG Export Plug-In . SVG Version: 6.00 Build 0)  -->
<!DOCTYPE svg PUBLIC "-//W3C//DTD SVG 1.1//EN" "http://www.w3.org/Graphics/SVG/1.1/DTD/svg11.dtd">
<svg version="1.1" id="Layer_1" xmlns="http://www.w3.org/2000/svg" xmlns:xlink="http://www.w3.org/1999/xlink" x="0px" y="0px"
	 viewBox="0 0 2000 556" enable-background="new 0 0 2000 556" xml:space="preserve">
<path fill="#FFFFFF" d="M1,387c4.5,0.1,9,0.4,13.5,0.4c657.4,0,1314.9,0,1972.3,0c4.3,0,8.5,0,13.5,0c-0.9,1.4-1.2,2.2-1.7,2.6
	c-6.9,6.2-7.2,14.1-7.2,22.7c0.3,41.5,0.1,83,0.1,124.5c0,2.3,0,4.6,0,7.8c-3.6,0-6.9,0-10.1,0c-179.3,0-358.6-0.1-537.9,0
	c-188.5,0-377,0.2-565.4,0.2c-233,0-466-0.2-698.9-0.2c-53.5,0-107,0.1-160.5-0.1c-5.9,0-10.2,1.2-13.3,6.4c-1,1.8-2.9,3.1-4.3,4.7
	C1,499.7,1,443.3,1,387z M230.1,470.2c0.3,0.1,0.7,0.1,1,0.2c0.2,0.8,0.4,1.6,0.5,2.4c2.1,16.2,4.1,32.4,6.2,48.6
	c0.2,1.4,1.6,3.8,2.5,3.8c8.1,0.3,16.2,0.2,24.7,0.2c-1.1-7.5-2.2-14.2-3.2-21c-3.7-24.7-7.5-49.4-11-74.1c-0.7-5-2.6-6.8-7.6-6.4
	c-5.1,0.4-10.3,0.3-15.5,0c-3.3-0.2-5.1,0.8-6.3,4.1c-4,10.6-8.4,21-12.7,31.5c-2.3,5.5-4.6,11.1-7.2,17.4
	c-6.5-17-12.6-32.8-18.5-48.7c-1.2-3.1-2.7-4.5-6.2-4.3c-5.3,0.3-10.7,0.5-16,0c-4.7-0.4-6.3,1.4-7,5.9
	c-3.4,21.2-7.1,42.4-10.7,63.5c-1.8,10.4-3.5,20.9-5.4,32.2c8.6,0,16.5,0.1,24.5-0.1c1,0,2.5-2,2.7-3.2c1.5-9,2.7-18.1,4.1-27.2
	c1.2-8.3,2.5-16.5,3.7-24.8c7.5,16.3,14.3,32.6,20.5,49c1.8,4.8,3.9,6.8,9.3,6.4c3.6-0.3,5.4-1.5,6.4-4.7c0.8-2.5,1.9-5,2.9-7.4
	C218,498.9,224.1,484.5,230.1,470.2z M1568.4,525.3c0-34.2,0-67.4,0-101.4c-7.2,0-14.2,0.3-21.1-0.1c-4.6-0.3-5.6,1.5-5.5,5.7
	c0.2,15.5,0,31,0,46.5c0,2.4,0,4.8,0,8.5c-1.7-1.9-2.5-2.7-3.2-3.5c-10.4-13.2-20.7-26.5-31.1-39.7c-4.4-5.6-7.8-13.4-13.6-16.2
	c-6-2.9-14.3-0.8-21.6-1.2c-3.6-0.2-5,0.8-5,4.7c0.1,30.8,0,61.7-0.1,92.5c0,3.4,1.2,4.3,4.4,4.2c6-0.2,12-0.2,18,0.1
	c3.8,0.2,4.8-1.1,4.8-4.8c-0.2-14-0.1-28-0.1-42c0-4.3,0-8.5,0-14.2c2.5,3,4.1,4.8,5.6,6.7c13.1,17,26.2,34,39.4,50.9
	c1.1,1.4,3,3.2,4.5,3.3C1551.7,525.5,1559.9,525.3,1568.4,525.3z M1388.4,473.7c0.6-28.3-23.5-52.1-53.4-52.8
	c-32.2-0.7-57.7,21.3-58.3,50.3c-0.6,32.6,21.5,56.4,53.1,57.1C1364.4,529,1387.7,507.3,1388.4,473.7z M816.6,528.1
	c1.8,0,3.7,0.1,5.5,0c48.1-3.8,60.4-53.2,44.2-80.2c-21-35.2-76.1-36-97.6-1.2c-11.1,18-10.1,36.7-0.2,54.7
	C778.8,520.1,795.9,527.6,816.6,528.1z M1134,462.8c-0.1-2.1-0.2-3.9-0.2-5.6c0-9.5-0.1-19,0.1-28.5c0.1-3.4-0.7-4.8-4.5-4.6
	c-5.5,0.3-11,0.4-16.5,0c-4.4-0.3-5.7,1-5.7,5.5c0.2,29.8,0.1,59.7,0.1,89.5c0,1.9,0.2,3.8,0.3,5.7c9,0,17.4,0,26.4,0
	c0-13.8,0-27.2,0-40.5c12.7,0,24.8,0,37.5,0c0,13.8,0,27.2,0,40.5c9.1,0,17.5,0,25.7,0c0.3-0.7,0.5-1,0.5-1.3c0-32,0-64,0.1-96
	c0-2.7-1.2-3.5-3.6-3.4c-5,0.1-10,0-15,0.1c-8.1,0.1-7.9-2-7.9,8.1c0,10.1,0,20.2,0,30.6C1158.6,462.8,1146.5,462.8,1134,462.8z
	 M661.8,485c4.9-3.2,9.9-5.4,13.3-9c9.1-9.6,9.6-21.3,5.7-33.2c-3.7-11.1-12.7-16.9-23.8-17.8c-14.1-1.2-28.3-0.6-42.4-1.2
	c-5.2-0.2-6.4,1.4-6.4,6.4c0.3,29.6,0.2,59.3,0.2,89c0,1.8,0.2,3.6,0.3,5.5c8.8,0,17.2,0,26.2,0c0-12.3,0-24.4,0-36.4
	c2.1,1.5,3.4,3.2,4.5,5c5.9,9.3,11.7,18.6,17.7,27.8c0.9,1.5,2.4,3.7,3.6,3.7c10.2,0.3,20.4,0.2,31.7,0.2
	C681.6,510.9,671.6,497.7,661.8,485z M978.5,491.3c7.4,0,14,0.3,20.7-0.1c17.3-1,27.2-10.5,29.4-27.5c2.3-17.6-4.1-31-18.4-36.5
	c-5.3-2-11.3-2.8-17.1-3.1c-12.1-0.4-24.3,0-36.5-0.2c-3.8-0.1-4.8,1.3-4.7,4.9c0.2,18.8,0.1,37.6,0.1,56.5
	c0,11.8-0.1,23.7,0.1,35.5c0,1.4,1.4,3.9,2.2,3.9c7.9,0.3,15.8,0.2,24.2,0.2C978.5,513.7,978.5,503.1,978.5,491.3z M1798.9,495.6
	c-2.9,5.4-5.8,11.4-9.2,17c-1.9,3.2-1.1,5.1,1.9,6.2c8.5,3.1,17,7.5,25.8,8.7c21.6,2.8,47.7-5.9,45.6-39.1c-0.4-7-2.9-13.4-8.8-17.1
	c-6-3.7-12.7-6.2-19.2-9.1c-3.5-1.5-7.4-2.3-10.5-4.3c-2-1.3-4-4.5-3.8-6.7c0.2-2.2,2.8-5.5,4.9-5.9c4.2-0.9,8.8-0.7,13.1,0.1
	c3.4,0.7,6.5,2.9,10,4.6c3.1-6,6.1-11.7,9.2-17.4c1.3-2.3,0.8-3.8-1.7-4.6c-5.4-1.8-10.6-4-16.1-5.3c-12.2-2.8-24.2-2.6-34.9,5.3
	c-10.7,7.9-13.8,19-12.8,31.7c0.9,12.2,8.3,18.6,19.3,22.1c6.3,2,12.8,3.9,18.7,6.8c6.8,3.4,6.6,12-0.4,14.8
	c-4.1,1.6-9.6,1.8-13.9,0.6C1810.1,502.2,1804.9,498.6,1798.9,495.6z M1679.2,446.8c9.1,0,17.5-0.1,26,0.1c3.6,0.1,5.2-0.9,5-4.8
	c-0.3-4.6-0.2-9.3,0-14c0.1-3.2-0.9-4.5-4.3-4.4c-16.6,0.1-33.3,0.1-49.9,0c-2.6,0-4,0.7-4,3.6c0,31.5,0,62.9,0.2,94.4
	c0,1.2,2.2,3.3,3.4,3.4c17,0.2,34,0.1,50.9,0.2c2.8,0,3.8-1,3.8-3.8c-0.1-5-0.2-10,0-15c0.1-3.1-1-4-4-4c-7.7,0.2-15.3,0.1-23-0.1
	c-1.4,0-3.8-1.4-3.9-2.4c-0.4-4.5-0.2-9.1-0.2-14.2c8.7,0,16.7-0.2,24.7,0.1c3.6,0.1,5.2-0.7,4.9-4.7c-0.3-3.8,0-7.7,0-11.5
	c0-7,0-7-7-7c-7.4,0-14.8,0-22.4,0C1679.2,457.1,1679.2,452.4,1679.2,446.8z M525.5,457c0-9.7,0.1-19-0.1-28.3c0-1.2-1.5-3-2.7-3.4
	c-21.2-7.8-40.9-4.9-57.7,10.3c-19.2,17.4-22.7,46.8-9,68c13.6,21,43.5,30.1,66.8,20.3c1-0.4,2.4-1.6,2.4-2.5
	c0.2-9.5,0.1-19.1,0.1-29.2c-16.4,12.5-31.8,13-42.5,2c-9.3-9.6-9.7-27.4-0.7-38.1C492.1,444.1,506.1,444.3,525.5,457z M342.8,525.2
	c7.4,0,14.2-0.3,20.9,0.1c4.7,0.3,5.8-1.4,5.8-5.9c-0.1-26.7,0-53.3,0.1-80c0-4,0.1-8-0.1-12c-0.1-1.2-1.2-3.3-1.9-3.3
	c-8.2-0.2-16.5-0.2-24.8-0.2C342.8,457.9,342.8,491.1,342.8,525.2z"/>
<path fill="#FFFFFF" d="M939.7,332c-0.1-3-0.4-5.5-0.4-8c0-87,0-173.9-0.1-260.9c0-7,0-7,7-7c53,0,106-0.2,158.9,0.2
	c37.6,0.3,74.8,3.8,111,14.7c20.5,6.2,39.9,14.8,56.9,28.2c26,20.4,39.2,47.3,41,80c1.5,28-2.7,54.8-17.6,79.2
	c-13.6,22.4-33.4,37.6-56.8,48.6c-29.6,13.9-61.2,20.6-93.6,22.7c-28.7,1.8-57.6,2-86.4,2.3c-38.5,0.3-77,0.1-115.4,0
	C943.1,332,941.7,332,939.7,332z M988.8,301c1.9,0.1,3.5,0.3,5.1,0.3c36.3,0,72.6,0.1,109,0c29.9-0.1,59.5-3.2,88.2-12.4
	c20.9-6.7,40.3-16.3,54.9-33.1c25.1-28.8,27.6-62.3,17.5-97.2c-8.3-28.6-29.6-45.4-56.4-55.9c-29.3-11.5-60.1-14.9-91.1-15.4
	c-40.5-0.6-81-0.2-121.4-0.4c-4.7,0-6.1,1.1-6.1,6c0.2,67.8,0.1,135.6,0.1,203.4C988.5,297.7,988.7,299.2,988.8,301z"/>
<path fill="#FFFFFF" d="M1496.8,330.9c55-46.7,110-93.3,165.6-140.4c-52.6-44.7-104.8-89.1-158-134.3c3,0,4.7,0,6.4,0
	c21.7,0,43.3-0.1,65,0.1c2.8,0,6.3,1.3,8.3,3.2c33.4,29.9,66.6,59.9,99.9,89.9c5.4,4.9,10.9,9.7,16.6,14.8
	c12.4-10.7,24.5-21.1,36.6-31.5c28.5-24.6,56.9-49.2,85.5-73.7c1.9-1.6,4.9-2.7,7.4-2.8c20-0.2,40-0.1,60-0.1c1.6,0,3.2,0,6.4,0
	c-53.5,45.3-105.9,89.6-158.5,134.2c56,47.1,111.5,93.8,167,140.5c-0.1,0.4-0.1,0.7-0.2,1.1c-1.3,0-2.6,0-3.9,0
	c-21.8,0-43.7,0-65.5,0.2c-4.6,0.1-8.1-1.3-11.6-4.4c-39.8-35.4-79.8-70.6-119.5-106c-3.5-3.1-5.4-3.2-8.9-0.2
	c-36.5,31.6-73.2,62.9-109.8,94.3c-1.1,1-2.5,1.8-3.4,2.9c-9.3,11.4-21.2,14.6-35.7,13.5c-16.2-1.2-32.6-0.3-48.9-0.3
	C1497.2,331.6,1497,331.2,1496.8,330.9z"/>
<path fill="#FFFFFF" d="M515.5,332c-16.2,0-31.8-0.7-47.4,0.2c-10.1,0.6-16-2.4-21.2-11.5c-13.2-23.1-27.8-45.4-41.7-68.1
	c-1.6-2.6-3.3-3.7-6.3-3.7c-63.8,0.1-127.7,0-191.5,0.2c-1.9,0-4.4,1.4-5.4,3c-16.2,25.2-32.3,50.5-48.3,75.8
	c-1.9,3-3.9,4.3-7.5,4.2c-15.3-0.2-30.7-0.1-46-0.1c-1.6,0-3.2-0.1-5.7-0.3c6.6-10,12.7-19.4,18.9-28.8
	c37.9-57.4,75.7-114.8,113.6-172.1c15.8-23.9,31.5-47.8,47.5-71.6c1-1.6,3.6-3,5.4-3c16.5-0.2,33-0.1,49.5-0.2c3.4,0,5.4,1.1,7.2,4
	c31.2,47.5,62.5,94.8,93.7,142.3c28,42.4,55.9,84.8,83.9,127.2C514.6,330.1,514.9,330.8,515.5,332z M383.1,218
	c-26.5-43.4-52.5-86.1-79.1-129.8c-27.1,43.8-53.6,86.5-80.4,129.8C277.3,218,329.6,218,383.1,218z"/>
<path fill="#FFFFFF" d="M544.8,56.4c2.1-0.1,3.8-0.2,5.4-0.2c14,0,28,0.2,42-0.1c4.4-0.1,5.7,1.1,5.6,5.5
	c-0.2,26.8-0.1,53.7-0.1,80.5c0,29.3,0,58.7,0,88c0,33.1,14.8,55.1,45.7,67.3c25.8,10.2,52.8,11.7,80.1,10.1
	c18.1-1.1,35.7-4.5,52-12.8c23-11.8,36.1-30.7,36.4-56.5c0.7-56.1,0.3-112.3,0.3-168.5c0-4.3,0-8.6,0-13.2c17.8,0,35,0,52.9,0
	c0,2.1,0,4,0,6c0,55.8-0.5,111.6,0.1,167.5c0.5,45.3-22.4,76.1-62.9,93.1c-23.3,9.8-47.9,13.7-73,15.1c-35.3,1.9-70.3,0.2-104.6-9.2
	c-21.5-5.9-41.2-15.2-56.8-31.8c-14.4-15.3-21.7-33.9-22.8-54.6c-0.8-15-0.4-30-0.4-45c-0.1-45.2,0-90.3-0.1-135.5
	C544.8,60.3,544.8,58.5,544.8,56.4z"/>
<path fill="#FFFFFF" d="M1376.2,56.3c17.3,0,33.6,0,50.4,0c0,91.8,0,183.5,0,275.8c-6.9,0-13.6,0-20.4,0c-8.5,0-17-0.1-25.5,0.1
	c-3.5,0.1-4.9-1.2-4.5-4.6c0.1-0.8,0-1.7,0-2.5c0-87.3,0-174.6,0-261.9C1376.2,61,1376.2,58.8,1376.2,56.3z"/>
<path fill="#FFFFFF" d="M1332.8,446.6c15.4,0,28.2,12.4,28,27.2c-0.1,15.7-12.8,28.9-27.9,28.9c-16.1,0-28.9-13.1-28.8-29.5
	C1304.2,458.5,1317.1,446.5,1332.8,446.6z"/>
<path fill="#FFFFFF" d="M845.5,473.2c-0.5,17.4-12.9,30-29.1,29.6c-16-0.4-28.6-14.4-27.8-31c0.6-14.1,14.3-25.9,29.5-25.3
	C833.3,447,845.9,459.3,845.5,473.2z"/>
<path fill="#FFFFFF" d="M635.2,469.2c0-8.5,0-16.2,0-24.4c6.7-0.5,13-0.5,17.8,4.7c2.9,3.2,3.1,9.9,0.6,13.7
	C649.2,469.8,642.3,469.1,635.2,469.2z"/>
<path fill="#FFFFFF" d="M978.7,470.4c0-8.8,0-16.7,0-25.1c7.6,0.9,15.8-2.2,20.9,5.5c3,4.5,3,10.3-0.2,14.7
	C994.3,472.6,986.2,469.6,978.7,470.4z"/>
</svg>
