<?xml version="1.0" encoding="utf-8"?>
<!-- Generator: Adobe Illustrator 18.1.1, SVG Export Plug-In . SVG Version: 6.00 Build 0)  -->
<!DOCTYPE svg PUBLIC "-//W3C//DTD SVG 1.1//EN" "http://www.w3.org/Graphics/SVG/1.1/DTD/svg11.dtd">
<svg version="1.1" id="Layer_1" xmlns="http://www.w3.org/2000/svg" xmlns:xlink="http://www.w3.org/1999/xlink" x="0px" y="0px"
	 viewBox="0 0 280.6 165.3" enable-background="new 0 0 280.6 165.3" xml:space="preserve">
<path fill="#FFFFFF" d="M238.2,52.7c14.3,0,28,0,41.8,0c0.2,0.7,0.5,1.4,0.5,2c0,23,0.3,46-0.3,69c-0.7,26.7-19.9,39.5-41.1,41.1
	c-10.5,0.8-20.3-1.2-29-7.2c-4.8-3.3-8.3-3.1-13.1,0.3c-20.8,14.4-54,7.2-65.3-14.7c-3.5-6.7-4.4-14.9-6.2-22.4
	c-0.6-2.4-0.3-5-0.3-7.5c0-20,0-39.9,0-60.3c14.6,0,28.8,0,43.7,0c0,1.8,0,3.6,0,5.4c0,17.8,0,35.7,0,53.5c0,2-0.2,4.1,0.3,6
	c0.9,3.4,2.8,6.2,6.9,6c3.7-0.1,5.8-2.4,6.2-6c0.3-2.8,0.4-5.6,0.5-8.5c0.1-9.5,5.1-16.1,14.3-18.5c7.3-2,14.2-1,20.4,3.5
	c4.7,3.5,7.2,8.1,7.1,14.1c-0.1,3.3-0.3,6.9,0.7,9.8c0.8,2.2,3.4,4.8,5.6,5.2c1.7,0.3,4.6-2.2,5.7-4.2c1.3-2.1,1.5-5.1,1.5-7.7
	c0.1-17.7,0.1-35.3,0.1-53C238.2,56.8,238.2,55,238.2,52.7z"/>
<path fill="#FFFFFF" d="M74.2,10c14.8,0,29,0,43.5,0c0.1,1.9,0.2,3.5,0.2,5.1c0,29.5,0.3,59-0.1,88.5c-0.2,20.8-7.4,38.9-24.6,51.7
	c-24.8,18.4-61.7,12.6-80.9-12.1c-25-32-10.3-79.7,28.4-91.7c9.5-2.9,19.3-2.4,29.2-0.1c0,14.9,0,29.5,0,42.9
	c-5.2,0-10.4-0.9-15.2,0.2c-7.1,1.7-10.7,8.1-9.9,14.8c0.8,6.5,6.3,11.8,13,12.5c6.5,0.7,13.1-3.4,15.2-9.8c0.8-2.5,1.2-5.2,1.2-7.8
	c0.1-29.5,0-59,0-88.5C74.2,13.8,74.2,12.1,74.2,10z"/>
<path fill="#FFFFFF" d="M255.3,43.9c-4.3,0-8,0-12.9,0c0-6.6,0-13.2,0-19.8c-0.8,0-1.5,0-2.3-0.1c-2.5,6.3,0.1,13.2-1.6,20.4
	c-2.7,0-5.7-0.1-8.6,0c-2.7,0.1-3.5-1.1-3.4-3.6c0.1-4.2,0.1-8.3,0-12.5c0-1.5-0.6-3-1-4.4c-0.4,0-0.9-0.1-1.3-0.1
	c-0.5,1.1-1.2,2.1-1.3,3.3c-0.2,2.3-0.1,4.7-0.1,7c0,11.6,0,11.6-12.5,9.8c0-7.5-0.6-15.1,0.2-22.6c0.8-7.6,11.1-11.7,18.7-8
	c2.4,1.2,3.9,1.1,6.3,0c10.3-4.7,19.7,1.5,19.8,12.9C255.3,32,255.3,37.8,255.3,43.9z"/>
<path fill="#FFFFFF" d="M145.9,0c4.4,0,8,0,12.6,0c-0.5,10.9-0.3,21.8-1.7,32.3c-1,7.5-8.1,11.8-15.4,11.4
	c-7.6-0.4-14-5.9-15.3-13.3c-1.3-7.5,2.5-15.6,8.9-18.4c7.6-3.3,10.5-1.4,10.4,6.8c0,1.5-0.2,2.9-0.3,4.5c-1.5,0.1-3.1-0.2-4.1,0.4
	c-1.2,0.8-2.9,2.5-2.7,3.5c0.3,1.4,2,3.1,3.4,3.4c1,0.2,2.9-1.3,3.6-2.5c0.7-1.1,0.5-2.9,0.5-4.4C145.9,16.1,145.9,8.3,145.9,0z"/>
<path fill="#FFFFFF" d="M180.1,12c4.1,0,7.4,0,10.9,0c2.3,6.4-1,13.6,1.9,19.8c0.6,0,1.2,0,1.8,0c0-6.4,0-12.8,0-19.6
	c4.6,0,8.1,0,12.8,0c-0.4,7.5-0.2,15.2-1.4,22.5c-1.1,6.8-6.5,9.7-13.8,9.2c-6.9-0.5-11.3-4.4-12-11.1c-0.5-4.8-0.2-9.6-0.2-14.5
	C180.1,16.4,180.1,14.4,180.1,12z"/>
<path fill="#FFFFFF" d="M280.4,13.2c0,2.9,0,5.8,0,8.8c0,0.5,0.1,1.3-0.1,1.4c-5.5,2.9-3.8,9-6.1,13.3c-2.7,5.1-7.6,7.5-14.9,6.7
	c1.3-4.3-2.9-9.6,3.4-13.1c0.9-0.5,0.7-3.1,1-4.7C265.2,16.5,271.9,11.3,280.4,13.2z"/>
<path fill="#FFFFFF" d="M176.4,12.3c-1.5,4.4,2.7,9.5-2.9,13.4c-1,0.7-0.4,3.8-0.5,5.8c-0.1,3.8,0,7.6,0,11.8c-4.2,0-8.1,0-12.2,0
	c0-6.6-0.5-13.1,0.1-19.5C161.7,16.6,168.5,11.7,176.4,12.3z"/>
</svg>
