<?xml version="1.0" encoding="utf-8"?>
<!-- Generator: Adobe Illustrator 18.1.0, SVG Export Plug-In . SVG Version: 6.00 Build 0)  -->
<!DOCTYPE svg PUBLIC "-//W3C//DTD SVG 1.1//EN" "http://www.w3.org/Graphics/SVG/1.1/DTD/svg11.dtd">
<svg version="1.1" id="Layer_1" xmlns="http://www.w3.org/2000/svg" xmlns:xlink="http://www.w3.org/1999/xlink" x="0px" y="0px"
	 viewBox="0 0 744.5 490.1" enable-background="new 0 0 744.5 490.1" xml:space="preserve">
<path fill="#FFFFFF" d="M744.5,79.7c-0.7,1.9-2,3.4-3.5,4.7c-11.7,10.7-23.4,21.4-35.1,32c-10.5,9.6-21.1,19.1-31.8,28.6
	c-7.9,7-16.3,13.2-26.1,17.3c-4.2,1.7-8.5,2.9-13,2.9c-7.6,0-13.3-3.4-17.2-9.8c-2.7-4.4-3.8-9.3-4.4-14.3
	c-1.2-10.3,0.1-20.4,2.1-30.5c0.7-3.4,1.7-6.7,2.4-10c0.3-1.1,0.5-2.4,0.3-3.5c-0.4-2.4-2.5-3.1-4.3-1.4c-0.8,0.8-1.5,1.9-2,3
	c-7.7,17.6-16.2,34.8-25,51.8c-4.4,8.6-8.9,17.2-13.9,25.5c-5.5,9.4-12.4,17.7-21,24.4c-2.6,2-5.4,3.7-8.3,5.3
	c-4.2,2.3-8.7,2.4-13.3,1.2c-3.4-1-6.5-2.6-9.5-4.6c-1.2-0.8-2.6-1.6-4-2c-2.2-0.7-3.7,0-4.7,2.1c-0.3,0.5-0.4,1-0.7,1.5
	c-5.1,10.8-12.6,19.4-22.9,25.5c-2,1.2-4.2,2.1-6.4,2.6c-6,1.3-11.6-1.9-14.4-7.9c-0.3-0.7-0.6-1.5-1-2.2c-1.4-2.5-4.3-2.6-5.8-0.3
	c-0.5,0.7-0.7,1.6-1,2.4c-2.1,7-4.7,13.8-9,19.8c-2.6,3.5-5.6,6.6-9.4,8.8c-8.4,4.8-19.2,3.5-26.3-3.1c-1.7-1.6-3-3.3-3.7-5.5
	c-0.3-1.1-0.8-2-2-2.2c-1.3-0.2-2.3,0.5-3,1.6c-0.5,0.7-0.8,1.5-1.2,2.4c-1.5,3.5-2.8,7-4.4,10.4c-2.8,6-6.7,11.2-11.6,15.7
	c-1.4,1.2-2.8,2.4-4.4,3.3c-4.5,2.6-8.9,2.4-12.9-0.9c-4.6-3.8-7.9-8.6-9.4-14.4c-1.5-5.6-1.8-11.4-1.7-17.1c0-2.9,0.3-5.7,0.5-8.6
	c0-0.2,0-0.3,0-0.5c0-0.9,0-2-1-2.2c-0.7-0.1-1.7,0.2-2.4,0.7c-0.8,0.6-1.5,1.5-2,2.4c-1.3,2.2-2.6,4.4-3.7,6.7
	c-5.6,11.4-10,23.2-14.3,35.1c-1.7,4.6-3.2,9.2-4.9,13.8c-0.6,1.5-1.3,3.1-2.3,4.4c-2.3,2.8-5.7,3.2-8.8,1.2
	c-2.4-1.6-3.9-3.8-4.7-6.5c-1-3.5-2-7.1-2.7-10.7c-1-4.9-1.9-9.7-1.7-14.7c0-0.6-0.1-1.3-0.3-1.9c-0.8-1.8-2.4-2.2-3.8-0.9
	c-0.8,0.7-1.4,1.7-1.9,2.7c-5.7,9.9-11.2,19.9-17,29.8c-3.5,6-7.1,12-10.8,17.8c-5.3,8.4-12.5,14.5-21.8,18.1
	c-5.4,2.1-10.9,2.7-16.4,0.9c-8.8-2.8-15.2-11.6-15.7-21.3c-0.3-6.8,1.3-13.2,4.1-19.3c1.6-3.3,3.5-6.5,5.3-9.6
	c0.9-1.5,1.7-2.9,1.7-4.7c0.1-3.8-2.7-7.3-6.5-7.7c-3.1-0.3-5.9-0.8-8-3.2c-2.4-2.6-3.5-5.8-3.8-9.2c-0.6-7,0.9-13.5,5-19.3
	c6.2-8.9,13.2-17.1,21.6-24.1c6.9-5.7,14.6-10.1,23.5-11.8c5.7-1.1,11.4-1.9,17.1-0.7c2.3,0.4,4.5,1.2,6.4,2.6
	c2.8,2.1,3.3,4.2,1.8,7.3c-0.6,1.1-1.2,2.3-2,3.3c-2.7,3.4-5.5,6.9-8.3,10.2c-2,2.3-4.5,3.8-7.4,4.6c-2,0.6-4.1,0.7-6.1-0.2
	c-4.9-2.2-9.4-1.2-13.4,2.3c-4.4,3.8-8.3,8.2-11.8,12.9c-1.9,2.5-3.4,5.2-5,7.9c-0.6,0.9-0.9,2.1-1.1,3.2c-0.5,2.3,0.7,4,3.1,4.1
	c1.6,0,3.3-0.2,4.6-0.8c2.2-1,4.5-2.2,6.3-3.9c4.4-4.1,9.8-5.6,15.6-5.9c2-0.1,4.2,0.1,6.2,0.6c4.2,1.1,5.8,4.5,3.7,8.3
	c-1.2,2.2-2.9,4.3-4.6,6c-2.3,2.3-5,4.3-7.4,6.4c-1,0.9-2,1.8-2.8,2.9c-4.9,7.4-9.2,15.2-12,23.7c-0.8,2.3-1.2,4.8-1.3,7.3
	c-0.1,3.6,2.7,5.6,6.1,4.3c1.8-0.7,3.6-1.7,5.1-2.9c3.3-2.6,5.9-5.9,8.3-9.2c5.3-7.2,9.4-15.1,13.4-23c9.5-18.6,18.8-37.3,27-56.4
	c2.1-4.9,4.8-9.4,8.7-13.1c1.6-1.5,3.4-2.9,5.2-4.2c1.2-0.8,2.5-1.4,3.9-1.8c4.6-1.4,8.1,0.9,8.4,5.7c0.2,2.5-0.1,5.1-0.2,7.7
	c-0.1,1.7-0.3,3.4-0.2,5c0.2,3.2,2.4,4.1,5,2.2c2-1.5,2.9-3.5,3.6-5.8c0.7-2.4,1.2-4.8,2-7.1c5.4-15.4,14.8-27.5,28.8-35.9
	c1.8-1.1,3.8-2.1,5.8-2.7c1.5-0.5,3.2-0.5,4.7-0.3c2.6,0.4,4.6,2.6,4.7,5.6c0.1,2.6-0.1,5.3-0.5,7.9c-2.4,13.4-4.9,26.7-7.3,40.1
	c-1.3,7.5-2.2,15-1.7,22.7c0.1,1.5,0.4,3,0.9,4.4c0.8,2.3,2.4,3,4.5,1.8c1.3-0.8,2.7-1.9,3.5-3.2c1.7-2.9,3.5-6,4.6-9.2
	c3.2-9.2,6.2-18.5,9.1-27.8c4.1-12.9,8-25.8,12-38.7c2.3-7.5,5.7-14.4,10.9-20.4c7.9-9.2,17.7-14.2,30-14.1c0.5,0,0.9,0,1.5,0
	c0.1-0.5,0.3-0.8,0.3-1.2c0.2-8.9,1.6-17.7,3-26.4c2.5-15.1,5-30.3,7.6-45.4c2.2-12.9,5.6-25.4,11.8-37.1
	c2.9-5.5,6.4-10.5,10.8-14.9c3.6-3.6,7.7-6.5,12.4-8.3c1.1,0,2.2,0,3.4,0c3.3,1.7,5.3,4.5,6.7,7.8c1.7,4,2.1,8.2,1.3,12.5
	c-1.2,6.8-2.5,13.5-4,20.2c-5.3,23.7-10.6,47.4-16.1,71.1c-4.4,18.8-9.2,37.6-13.8,56.3c-0.2,0.9-0.3,1.9-0.3,2.8
	c0.5,8.2,0.1,16.5-0.5,24.7c-0.2,2.3-0.1,4.6,0.7,6.9c1.1,3,3.4,4.1,6.3,2.9c1.1-0.4,2.2-1.1,3-1.9c1.4-1.3,2.6-2.8,3.7-4.4
	c4-6.2,8-12.4,11.9-18.6c1.8-2.9,3.6-5.9,5.1-9c1.7-3.6,3.8-6.8,6.3-9.8c1.2-1.5,2.6-2.9,3.7-4.4c0.7-0.9,1.4-2,1.7-3.1
	c1.1-3.5-0.4-5.8-4.1-6.1c-0.4,0-0.8,0-1.2-0.1c-2.7-0.6-5.5-1.1-8.1-2c-3.2-1.2-5.3-3.6-6.3-6.8c-1.8-5.4-1.9-10.8,0.5-16.1
	c2.3-5.1,5.3-9.7,9.2-13.6c10.8-11,23.6-18.8,38.5-22.8c5.6-1.5,11.3-2.3,17.1-1.5c1.1,0.1,2.2,0.4,3.2,0.9c2.1,1,2.9,2.9,2.3,5.2
	c-0.3,1.1-0.7,2.2-1.3,3.1c-2.8,4.2-5.7,8.3-8.6,12.4c-1.8,2.4-4.3,3.5-7.3,3.5c-2.1,0-4.2-0.1-6.2-0.1c-3,0-5.7,0.7-8.2,2.3
	c-3.5,2.3-7.1,4.6-10.5,7.2c-1.9,1.4-3.6,3.2-5.1,5c-0.9,1.1-1.7,2.6-2,4c-0.8,3.3,2.2,5.9,5.4,4.8c1.5-0.5,2.8-1.4,4.2-2.2
	c3.8-2.1,7.6-4.4,11.5-6.4c3.9-2,8.1-2.4,12.4-1.7c3.8,0.7,5.5,2.7,5.7,6.5c0.1,2.4-0.6,4.4-2.3,6.1c-1.1,1.1-2.2,2.1-3.2,3.2
	c-6.5,6.7-12.5,13.8-17.2,21.8c-2.6,4.4-4.9,9-5.8,14.1c-0.3,1.5-0.3,3-0.1,4.5c0.3,2.1,1.9,3.2,4,2.9c1.4-0.2,2.9-0.6,4-1.5
	c2.4-1.8,4.8-3.8,6.8-6c4.9-5.3,8.8-11.4,12.2-17.7c10.8-19.6,20.3-39.9,30.1-60c0.4-0.8,0.7-1.8,0.9-2.7c0.5-2.7-0.7-4.7-3.2-5.7
	c-0.5-0.2-1.1-0.3-1.6-0.5c-3.8-1.1-6.4-3.6-7.7-7.3c-0.7-2.2-1.2-4.5-1.2-6.8c0-12.1,4.2-22.7,11.8-31.9c2.6-3.1,5.8-5.5,9.7-6.9
	c6.9-2.5,14-0.3,18.2,5.7c1.8,2.6,2.9,5.5,3.5,8.6c1,4.7,1,9.4,0.9,14.1c0,1-0.1,1.9,0,2.9c0.3,2.4,2.2,3.4,4.3,2.2
	c0.8-0.5,1.5-1.2,2-2c3.8-5.4,9.2-7.1,15.5-6.9c2.5,0.1,4.5,1.2,5.9,3.3c2.8,4.2,3.6,8.7,1.6,13.4c-4.5,11.2-9,22.4-13.6,33.5
	c-1.9,4.6-3.2,9.4-3.5,14.4c-0.2,2.8-0.1,5.6,0.4,8.3c0.9,4.9,4.9,7.4,9.8,6.3c1.8-0.4,3.6-1,5.2-1.8c2.2-1.1,4.4-2.4,6.4-3.8
	c5.6-4.1,11.2-8.2,16.6-12.7c16.8-14.1,33.5-28.3,50.2-42.5c3.1-2.6,6.3-5.2,9.5-7.7c3.6-2.8,8.3-2.4,10.1,2.9
	c0,0.1,0.1,0.1,0.2,0.2C744.5,75.5,744.5,77.6,744.5,79.7z M459.9,172.5c-0.1-0.9-0.2-2.6-0.5-4.2c-0.1-0.9-0.4-1.7-0.7-2.5
	c-1.4-3.4-3.2-4.2-6.6-2.9c-2.5,1-4.6,2.6-6.5,4.4c-12,11.9-17.9,26.4-18.2,43.2c0,2.5,0.5,5.1,1.3,7.5c1.8,5,6.1,6.1,10.3,2.9
	c2.6-2,4.6-4.5,6.4-7.1c4.3-6.5,7.8-13.4,10.5-20.6C458.2,186.8,459.7,180.1,459.9,172.5z"/>
<path fill="#FFFFFF" d="M124.3,490.1c-1.3-0.3-2.6-0.5-3.9-0.9c-1.7-0.5-3.4-1-4.9-1.8c-3.6-1.8-5.4-4.9-5.6-8.9
	c-0.2-3.3,0.6-6.4,1.3-9.5c5.2-22.2,10.5-44.5,15.7-66.7c7.1-30,14.2-60,20.2-90.3c2-10.1,3.5-20.3,5.2-30.5
	c0.3-1.5,0.4-3.2-1.1-4.1c-1.7-1-3.1,0.3-4.2,1.4c-5.7,5.8-12,10.8-19,15c-3.7,2.2-7.6,4.1-11.7,5.4c-6,2-12.1,2-18.2,0
	c-5.7-1.8-10.5-5-14.6-9.3c-0.5-0.6-1.1-1.2-1.5-1.9c-1.8-2.7-1.1-5.6,1.6-7.2c1.4-0.9,3-1.6,4.4-2.4c24.1-14.1,47.5-29.3,69.6-46.4
	c1.9-1.5,3.7-3,5.6-4.5c0.9-0.7,1.3-1.5,1.4-2.6c0.6-13.4,1.3-26.8,2-40.3c0.6-12.5,1.3-24.9,1.9-37.4c0.1-1.3,0.1-2.6-0.1-3.8
	c-0.4-2.4-2-3.5-4.3-2.7c-1.9,0.7-3.8,1.7-5.5,2.8c-2.9,2.1-5.7,4.4-8.5,6.7c-20.8,17.5-41.4,35.3-61,54.1
	c-5.1,4.9-10,10.1-14.9,15.3c-3.6,3.9-3.2,8,0.5,11.8c2.4,2.5,4.6,5.3,6.7,8.1c0.6,0.8,1.1,1.8,1.5,2.7c2.1,4.7,1.3,8.4-2.6,11.9
	c-4.5,4-9.5,7.3-14.6,10.4c-8.1,5-16.5,9.5-25.6,12.3c-2.4,0.7-4.8,1.3-7.2,1.7c-4.1,0.6-8.2-0.1-11.9-2
	c-10.6-5.5-17.6-13.9-20.1-25.7c-0.2-0.8-0.6-1.6-0.9-2.5c0-1.1,0-2.2,0-3.4c0.3-0.6,0.6-1.1,0.7-1.8c0.9-5.3,3.5-9.8,6.3-14.1
	c4.3-6.5,9.2-12.5,14.6-18c26.3-27.1,53.7-53.1,82.8-77.2c9.5-7.8,19.4-15.2,29.6-22.1c8.3-5.6,17.4-9.1,27.1-11.3
	c5.2-1.2,10.4-1.9,15.6-2.2c5.9-0.4,10.8,1.7,15,5.6c6.1,5.7,9.5,13,11.2,21c1,4.7,1.3,9.5,1.3,14.3c0,15.8,0,31.7,0,47.5
	c0,2.1,0.1,4.2,0.6,6.2c0.9,3.7,3.4,4.8,6.9,3.2c0.7-0.3,1.5-0.7,2.1-1.2c3.8-3.1,8.4-4.4,13.1-4.6c4.1-0.2,8.3,0.1,12.4,0.3
	c2.3,0.1,4.5,1.1,6.3,2.7c2.3,2.1,2.4,4.6,0.2,6.9c-0.6,0.6-1.2,1.1-1.8,1.5c-14.3,11-27.8,22.8-41.2,34.8c-1,0.9-1.3,1.8-1.3,3.1
	c0,13.4-0.9,26.7-2.5,40c-2,17.1-4,34.3-6.5,51.4c-2.7,18.6-5.7,37.1-8.9,55.6c-3.5,20.2-7.4,40.2-11.2,60.4
	c-0.7,3.8-1.6,7.7-2.5,11.5c-2.7,11.1-9.2,19.2-19.3,24.4c-6.5,3.3-13.3,5.4-20.5,6.3c-0.6,0.1-1.2,0.3-1.8,0.4
	C127.2,490.1,125.8,490.1,124.3,490.1z"/>
<path fill="#FFFFFF" d="M699.4,10.6c10.5,0,19,8.4,19.1,18.8c0,10.5-8.6,19-19.2,18.9c-10.7-0.1-19.1-8.5-19.1-19.1
	C680.3,18.9,688.8,10.6,699.4,10.6z M699.3,13.8c-8.7,0-15.3,6.8-15.3,15.7c0,8.9,6.6,15.7,15.3,15.7c8.7,0,15.3-6.8,15.3-15.7
	C714.7,20.6,708,13.8,699.3,13.8z"/>
<path fill="#FFFFFF" d="M708.5,40.2c-1.3,0-2.3,0-3.6,0c-1.4-2.2-2.8-4.6-4.2-7c-1.6-2.6-1.6-2.6-5.1-2.2c0,2.9,0,5.9,0,9.1
	c-1.2,0-2.1,0-3.2,0c0-7,0-14.1,0-21.3c0.5-0.1,1-0.2,1.5-0.2c2.8,0,5.6-0.1,8.4,0.1c4.2,0.3,6.2,2.8,5.8,6.9
	c-0.2,2.1-1.3,3.6-3.2,4.5c-0.6,0.3-1.3,0.5-2.3,0.8C704.5,34,706.4,37,708.5,40.2z M695.5,28.2c2.4-0.1,4.6-0.1,6.7-0.4
	c1.6-0.2,2.4-1.4,2.4-3.1c0-1.5-0.7-2.7-2.2-3c-2.3-0.5-4.5-0.4-6.9-0.2C695.5,23.8,695.5,25.8,695.5,28.2z"/>
</svg>
