<?xml version="1.0" encoding="utf-8"?>
<!-- Generator: Adobe Illustrator 18.1.0, SVG Export Plug-In . SVG Version: 6.00 Build 0)  -->
<!DOCTYPE svg PUBLIC "-//W3C//DTD SVG 1.1//EN" "http://www.w3.org/Graphics/SVG/1.1/DTD/svg11.dtd">
<svg version="1.1" id="Layer_1" xmlns="http://www.w3.org/2000/svg" xmlns:xlink="http://www.w3.org/1999/xlink" x="0px" y="0px"
	 viewBox="0 0 536.2 336.6" enable-background="new 0 0 536.2 336.6" xml:space="preserve">
<path fill="#FFFFFF" d="M0,88c0.2-1.1,0.4-2.2,0.6-3.3c2-10,7.9-17.1,16.4-22.5c4.2-2.7,8.9-4,13.6-5.5c14.5-4.5,29-8.9,43.5-13.4
	c4.5-1.4,8.7-0.3,12.4,2.3C93.3,50.4,97,56.9,97,65.3c0,11.8,0,23.6,0,35.4c0,0.8-0.2,1.3-1,1.5c-10.3,3.2-20.6,6.4-30.9,9.6
	c-0.2,0.1-0.4,0.1-0.7,0.2c0-0.5-0.1-1-0.1-1.4c0-10.1,0-20.2,0-30.4c0-2.6-0.4-5.2-2.1-7.4c-2.3-3.1-6.8-4.4-10.5-3.1
	c-3.6,1.3-7.3,2.7-11,3.9C35.3,75.4,31.6,79,29.3,84c-1.8,3.8-2.7,7.8-2.7,12.1c0,41.7,0,83.4,0,125c0,1.9,0.2,3.8,1.2,5.6
	c1.2,2.1,3.1,3.3,5.5,3.4c8.3,0.4,15-2.9,19.9-9.6c4.2-5.7,6.3-12.3,7.8-19.2c1.7-7.9,2.3-16,2.4-24.1c0.2-11.6,0.3-23.1,0.4-34.7
	c0-1.1,0.3-1.7,1.4-2.1c7.7-2.7,15.4-5.5,23.2-8.2c0.4-0.2,0.9-0.3,1.5-0.5c0,2.2,0,4.3,0,6.3c0,0.9,0,1.8,0,2.8
	c0,16.1-0.1,32.2-0.1,48.4c0,2.5,0.3,5,1.5,7.2c1.6,2.8,4.4,3.6,7.1,1.9c2.8-1.7,4.3-4.4,5.6-7.2c2.9-6.3,4.6-13.1,5.6-19.9
	c1.1-6.8,2-13.6,2.6-20.4c0.4-4.5,0.1-9,0.1-13.6c0-3.8,0-7.5,0-11.3c0-0.7,0.1-1,0.8-1.2c8.4-2.6,16.8-5.2,25.2-7.9
	c0.2-0.1,0.4-0.1,0.7-0.1c0,0.7,0,1.2,0,1.8c0,18.7,0,37.4,0,56.2c0,3.1,1.3,5.7,4.2,7.1c3.1,1.5,6.3,1.5,9-0.7
	c1.4-1.1,2.4-2.9,3.3-4.6c3.3-6.1,5-12.8,6.3-19.5c1.8-8.9,3.1-18,3.4-27.1c0.3-6.5,0.1-13.1,0.1-19.7c0-7.3,0-14.6,0-22
	c0-15-0.1-29.9-0.1-44.9c0-9-0.1-18.1-0.1-27.1c0-0.9,0.2-1.3,1.1-1.6c8.2-3.1,16.3-6.3,24.5-9.4c0.5-0.2,1-0.3,1.6-0.5
	c0,0.5,0.1,0.9,0.1,1.3c0,19.6-0.1,39.2-0.1,58.8c0,8.7,0,17.4-0.1,26c0,9.8-0.1,19.5-0.1,29.3c0,16.6-0.1,33.3-0.1,49.9
	c0,8.1,7,14.2,15,13.2c7.1-0.9,11.4-5.8,11.4-13c0-17.6,0-35.2,0-52.8c0-2.5-0.5-4.9-2.3-6.9c-1.6-1.7-3.6-2.2-6-2.2
	c0-0.4-0.1-0.8-0.1-1.2c0-4.2,0-8.5,0-12.7c0-0.9,0.3-1.3,1.1-1.7c3.9-1.5,8-2.6,12.2-2.9c5.2-0.3,9,2.1,11.8,6.3
	c2.5,3.8,3.8,7.9,3.7,12.6c-0.1,10.6,0,21.2,0,31.8c0,0.7,0,1.4,0.1,2.2c0.5,5.6,4.9,8.6,10.3,6.8c4.9-1.6,9.8-3.2,14.6-5.1
	c5.9-2.2,9.4,0.8,11.3,5.7c0.7,1.8,1.6,3.5,2.8,4.9c2.6,3,6.7,3.6,10.6,1.6c3.6-1.8,6-4.6,7.3-8.4c1.1-3.3-0.1-7-2.9-9.1
	c-10.2-7.7-20.5-15.5-30.8-23.1c-3.7-2.8-5.9-6.5-7.1-10.9c-2.2-7.9-1.6-15.3,3.5-22c3.7-4.9,8.8-8,14.6-9.9
	c13.2-4.3,26.5-8.7,39.7-13.1c1.1-0.3,2.1-0.7,3.4-1.1c0,0.9,0.1,1.7,0.1,2.5c0,1.8,0,3.5,0,5.3c0,3.4,1.8,5.7,5.1,6.6
	c3.4,0.9,6.2-0.2,8.8-2.3c0.3-0.2,0.5-0.5,0.7-0.8c6-10.5,14.9-17.8,25.5-23.2c4.3-2.2,8.8-4,13.5-5.2c0.2-0.1,0.4-0.1,0.5-0.1
	c0,4.3,0,8.5,0,12.8c-0.7,0.1-1.3,0.2-1.8,0.3c-4,0.9-6.6,4.3-6.6,8.7c0,11.9,0,23.8,0,35.8c0,4.7,0,9.4,0,14.2
	c0,8.3,5.7,13.6,14.1,13c8.2-0.6,13.1-6,13.1-14.5c0-20.2,0-40.4,0-60.6c0-5,0-10,0-15c0-0.2,0-0.5,0-0.9c2.6-0.5,5.1-1,7.7-1.5
	c2.3-0.5,4.5-1,6.9-0.5c3.6,0.7,6.2,2.7,8.1,5.7c2.4,3.6,3.6,7.6,3.6,12c0,11.4,0,22.8,0,34.2c0,2.6,0.4,5.1,2.4,7
	c3.2,3,9.6,2.8,12.4-0.5c2.5-2.9,3.9-6.4,5.1-10c2.9-8.4,4.5-17,5.7-25.7c1-7.1,0.5-14.2,0.6-21.3c0.1-5.1,0-10.2,0-15.2
	c0-0.6,0-1.1,0.8-1.4c8.4-2.7,16.7-5.4,25.1-8.1c0.2-0.1,0.4-0.1,0.7-0.2c0,0.3,0.1,0.6,0.1,0.9c0,2.3,0,4.6,0,6.8
	c0,4,2.2,6.2,6.2,6.6c4.5,0.5,7.9-1.2,10.1-5c2.2-3.7,4.1-7.6,6.2-11.3c1.4-2.4,3-4.7,5.3-6.2c1.5-1,3.3-1.6,4.9-2.4
	c1.2,0,2.4,0,3.6,0c1.4,0.8,2.9,1.4,4,2.4c1.6,1.5,2.2,3.6,2.2,5.9c0,52.5,0,105,0,157.6c0,3.8,1.4,6.1,4.5,7.3
	c3.5,1.5,7.6,0.8,9.9-1.6c1.4-1.5,1.9-3.3,1.9-5.3c0-3.3,0-6.6,0-9.8c0-0.7,0.2-1.1,0.9-1.4c2.6-0.8,5.2-1.8,7.9-2.7
	c0.1,0.3,0.2,0.6,0.2,0.8c0,4.2,0.1,8.5-0.1,12.7c-0.5,10.5-5.7,18.2-15,23c-6.3,3.3-13,4.8-20.1,5.1c-8.9,0.4-16.4-6.7-16.4-15.6
	c0-30.2,0-60.4,0-90.6c0-12.3,0-24.6,0-37c0-1.4-0.2-2.8-0.7-4.1c-1-2.5-3.3-3.6-5.8-3.8c-1.6-0.1-3.3,0-4.9,0.3
	c-3,0.7-4.8,3-4.9,6.2c-0.1,2.5,0,5,0,7.6c0,18.3,0,36.6,0,54.8c0,0.6,0,1-0.7,1.2c-8.2,2.7-16.3,5.4-24.5,8.1
	c-0.2,0.1-0.4,0.1-0.8,0.2c0-1.3,0.1-2.5,0-3.6c-0.2-1.6-0.5-3.4-1.1-4.9c-1.9-4.7-7.5-6.2-11.6-3.3c-2.1,1.5-3.7,3.4-4.8,5.6
	c-3,5.6-7.5,9.7-12.7,13.2c-7,4.7-14.6,7.8-22.6,10.2c-5.6,1.7-11.1,3.6-16.7,5.1c-3.7,1-7.6,1.8-11.5,1.5
	c-6.4-0.5-11.5-3.5-15.6-8.4c-2.9-3.5-5-7.5-5.9-12.1c-0.2-0.9-0.2-1.9-0.2-2.9c0-8.3,0-16.6,0-24.8c0-1.1-0.1-2.2-0.3-3.2
	c-0.9-4.6-4.5-7-9.2-6.2c-4.4,0.7-7.9,3.2-11.2,5.9c-0.8,0.6-1.6,1.4-2.4,2c-2.5,1.9-5,2-7.3-0.2c-2-1.9-3.8-4-5.7-6
	c-1.8-1.8-3.5-3.8-5.5-5.3c-2.9-2.3-5.6-2.3-8.7-0.2c-2.7,1.8-4.6,4.2-5.6,7.3c-1.3,3.7-0.2,6.9,2.9,9.2
	c9.6,7.1,19.2,14.1,28.7,21.2c5.2,3.9,8,9.2,8.9,15.5c0.7,4.6,0.5,9.3-1.3,13.7c-2.4,6-7,9.9-12.6,12.8c-5.3,2.8-11.1,4.3-16.8,6.1
	c-11.3,3.6-22.6,7-33.9,10.5c-0.3,0.1-0.6,0.2-1,0.3c0.1-1.4,0.3-2.7,0.4-4c0.2-5.4-3-9.1-8-9.5c-2.4-0.2-4.2,0.9-5.7,2.6
	c-1.4,1.6-2.6,3.4-4,5.1c-6.9,8.8-15.5,15.4-25.7,19.7c-6.6,2.8-13.6,4.9-20.5,7.1c-9.7,3.1-19.4,6-29.1,9c-0.2,0.1-0.4,0.1-0.7,0.2
	c0-0.6,0-1,0.1-1.5c0.1-2.9-0.1-5.7-1.7-8.3c-2.4-3.8-7.7-4.1-10.4-2.9c-0.9,0.4-1.7,1.2-2.2,2.1c-3.4,5.6-6.8,11.2-10.2,16.8
	c-1.4,2.3-3,4.4-5.5,5.8c-2.4,1.3-4.8,1.4-7.2,0.2c-3.9-1.9-6.7-5-9.4-8.2c-1.1-1.4-2.5-2.7-4.1-3.6c-3.3-1.7-6.4-0.9-9.1,1.5
	c-4.3,3.8-7.2,8.5-9.5,13.7c-3.5,8-5.7,16.5-6.4,25.2c0,0.4,0,0.9,0,1.3c0,24.5,0,49,0,73.4c0,1.2-0.4,1.5-1.4,1.9
	c-9,2.8-18,5.7-26.9,8.6c-0.4,0.1-0.7,0.3-1.1,0.5c-0.2,0-0.3,0-0.5,0c0-0.4-0.1-0.8-0.1-1.2c0-27.5,0-55,0-82.5
	c0-1.5-0.1-3-0.4-4.4c-1.4-7.4-7.2-8.1-11.4-6c-5.2,2.5-10.1,5.4-15.2,8.2c-4.2,2.3-8.4,4.7-13.1,5.7c-6.4,1.3-15.3-0.4-18.6-10.4
	c-1-3.1-0.9-6.2-0.9-9.4c-0.1-18.6,0-37.2-0.1-55.8c0-0.6-0.1-1.2-0.2-1.9C0,148.6,0,118.3,0,88z"/>
<path fill="#FFFFFF" d="M536.9,12.9c-0.4,0.9-0.7,1.9-1.1,2.8c-2.8,5.6-10.2,7.6-15.8,4.3c-5.4-3.2-6.9-10.3-3.2-15.4
	c2.8-3.9,6.7-5.1,11.3-4.3c4.5,0.7,7.7,4,8.6,8.3c0,0.2,0.2,0.4,0.2,0.5C536.9,10.3,536.9,11.6,536.9,12.9z M517.7,10.7
	c0,5,3.5,8.6,8.2,8.6c4.6,0,8.1-3.8,8.1-8.6c0-4.8-3.5-8.5-8.1-8.5C521.2,2.3,517.7,5.9,517.7,10.7z"/>
<path fill="#FFFFFF" d="M126.5,45.4c9.5,0.2,17.2,8.3,17,17.7c-0.2,9.8-8.4,17.6-18.5,17.2c-9.3-0.4-16.7-8.5-16.5-18.3
	C108.7,52.7,116.9,45.1,126.5,45.4z"/>
<path fill="#FFFFFF" d="M528,11.6c0.9,1.7,1.8,3.3,2.7,5c-2.2,0.5-2.4,0.4-3.3-1.4c-0.4-0.8-0.9-1.7-1.3-2.6c-0.4-0.9-1-1.3-2.1-0.9
	c0,1.6,0,3.2,0,4.9c-0.8,0-1.5,0-2.3,0c0-3.9,0-7.9,0-12.1c2.2,0.1,4.5,0.1,6.7,0.4c1.6,0.2,2.4,1.4,2.5,3.1
	c0.1,1.7-0.6,2.8-2.1,3.3C528.5,11.5,528.3,11.5,528,11.6z M524,6.6c0,1.2,0,2.2,0,3.2c1.1-0.1,2.2,0,3.2-0.2
	c0.8-0.1,1.1-0.8,1.1-1.6c0-0.8-0.5-1.2-1.2-1.3C526.1,6.6,525.1,6.6,524,6.6z"/>
</svg>
