<?xml version="1.0" encoding="utf-8"?>
<!-- Generator: Adobe Illustrator 18.1.1, SVG Export Plug-In . SVG Version: 6.00 Build 0)  -->
<!DOCTYPE svg PUBLIC "-//W3C//DTD SVG 1.1//EN" "http://www.w3.org/Graphics/SVG/1.1/DTD/svg11.dtd">
<svg version="1.1" id="Layer_1" xmlns="http://www.w3.org/2000/svg" xmlns:xlink="http://www.w3.org/1999/xlink" x="0px" y="0px"
	 viewBox="0 0 540.6 71.1" enable-background="new 0 0 540.6 71.1" xml:space="preserve">
<path fill="#FFFFFF" d="M257.6,22.1c0,15.6,0,31.2,0,46.9c-3.3,0-6.6,0-10,0c0-0.5,0-0.9,0-1.4c0-17.8,0-35.6,0-53.4
	c0-2.4-1.1-3.9-3-4.9c-2.8-1.4-5.7-1.4-8.5,0c-2,1-3,2.6-3,4.9c0,17.8,0,35.6,0,53.4c0,0.4,0,0.9,0,1.4c-4.8,0-9.5,0-14.3,0
	c0-15.3,0-30.7,0-46.4c-0.7,0.4-1.4,0.6-1.6,1c-0.6,0.8-1.1,1.8-1.5,2.7c-5.7,13.9-11.3,27.8-16.9,41.7c-0.4,1-0.9,1.3-1.9,1.3
	c-3.7-0.1-7.4,0-11.2,0c-0.8,0-1.1-0.2-1.4-1c-5.2-14.5-10.5-29-15.7-43.5c-0.2-0.7-0.5-1.4-0.9-1.9c-0.3-0.4-0.9-0.7-1.4-1
	c-0.1,0.1-0.2,0.2-0.3,0.3c0,15.6,0,31.2,0,46.9c-3.4,0-6.6,0-10,0c0-0.6,0-1.1,0-1.6c0-17.8,0-35.7,0-53.5c0-3.7-1.9-5.6-5.6-5.5
	c-1.8,0.1-3.1-0.7-3.7-2.1c-0.4-1-0.2-2.6,0.8-3.3c0.7-0.5,1.7-0.9,2.6-0.9c6.4-0.1,12.9,0,19.3,0c1.5,0,3,0,4.6-0.1
	c0.7,0,1,0.2,1.2,0.8c5.8,15.4,11.7,30.8,17.5,46.2c0.5,1.4,1.1,2.7,1.7,4.4c0.4-0.4,0.7-0.6,0.8-0.9c4.6-11.3,9.2-22.6,13.9-33.8
	c2-5,4.1-10,6.1-15c0.4-1.1,1-1.5,2.3-1.5c14.6,0.1,29.3,0,43.9,0c1.4,0,2.7,0,4.1-0.1c0.8-0.1,1.2,0.3,1.5,1
	c5.2,13.8,10.4,27.5,15.7,41.2c1,2.7,2.1,5.4,3.1,8.1c0.1,0.3,0.3,0.6,0.5,1c0.3-0.4,0.6-0.6,0.7-0.9c6.1-14.8,12.1-29.5,18.1-44.3
	c0.7-1.7,1.4-3.4,2-5.1c0.3-0.7,0.6-1,1.4-1c7.6,0,15.3,0,22.9,0c2,0,3.3,1.2,3.4,3c0.1,1.7-1.2,3.1-3.1,3.3c-0.8,0.1-1.6,0-2.4,0.1
	c-2.6,0.5-4,2.3-4.1,4.9c0,2.4,0,4.8,0,7.2c0,15.7,0,31.4,0,47c0,0.5,0,0.9,0,1.5c-5,0-9.8,0-14.7,0c0-0.5,0-1,0-1.4
	c0-14.4,0-28.9,0-43.3c0-0.5-0.2-0.9-0.4-1.4c-0.5,0.3-1.2,0.5-1.4,0.9c-1.4,3-2.8,6-4.1,9c-4.6,11.3-9.1,22.6-13.7,33.9
	c-1,2.5-1,2.5-3.7,2.5c-3.2,0-6.5,0-9.7,0c-0.8,0-1.2-0.2-1.5-1c-5.2-14.5-10.5-29-15.7-43.5c-0.2-0.7-0.5-1.4-0.9-1.9
	c-0.3-0.4-0.9-0.6-1.3-1C257.8,21.9,257.7,22,257.6,22.1z"/>
<path fill="#FFFFFF" d="M465.9,70c-5.2,0-10.3,0-15.4,0c-0.4,0-0.9-0.5-1.2-0.9c-4.4-7.2-8.8-14.4-13.1-21.6
	c-5.3-8.7-10.5-17.4-15.8-26.1c-1-1.6-1.9-3.2-2.9-4.7c-0.3-0.5-0.9-0.7-1.4-1.1c-0.1,0.1-0.2,0.2-0.3,0.3c0,17.8,0,35.6,0,53.4
	c-0.4,0-0.7,0.1-1,0.1c-2,0-3.9,0-5.9,0c-2.3,0-2.9-0.6-2.9-2.9c0-2.9,0-5.8,0-8.8c0-14.5,0-29,0-43.6c0-3.5-2.1-5.5-5.6-5.4
	c-1.3,0.1-2.5-0.2-3.4-1.4c-1.4-1.9-0.3-4.5,2-4.9c0.5-0.1,1-0.1,1.4-0.1c8.1,0,16.2,0,24.2,0c0.9,0,1.4,0.3,1.9,1.1
	c9.2,15.1,18.5,30.1,27.8,45.1c0.2,0.3,0.5,0.4,0.8,0.7c0.2-0.3,0.6-0.7,0.7-1c0.1-0.7,0-1.4,0-2.2c0-10.7,0-21.4,0-32
	c0-3.4-2.1-5.4-5.5-5.3c-1.3,0.1-2.5-0.2-3.3-1.3c-0.7-0.9-0.9-1.9-0.5-3c0.4-1.1,1.3-1.8,2.5-2c0.8-0.1,1.5-0.1,2.3-0.1
	c22,0,44,0.1,66,0c4.3,0,8,1.4,11.2,4.1c4.6,3.8,7.5,8.7,9.3,14.3c4.1,12.7,3.5,25.2-2.8,37.1c-2.1,4-5,7.4-9,9.8
	c-2.5,1.5-5.2,2.4-8.2,2.3c-12-0.1-24.1,0-36.1,0c-0.4,0-0.8,0-1.4,0c0-0.5,0-1,0-1.5c0-16.9,0-33.8,0-50.6c0-1.2,0.2-2.4-0.1-3.6
	c-0.2-1.1-0.7-2.3-1.5-3c-2.8-2.8-8.4-2.8-11.4-0.2c-1.1,1-1.6,2.2-1.6,3.7c0,18.1,0,36.2,0,54.2C466,69.3,466,69.6,465.9,70z
	 M495.2,11.8c0,16.4,0,32.6,0,48.9c0.5,0,1,0,1.4,0c4.3,0,8.6,0,13,0c3.9,0,7.2-1.3,9.7-4.4c1.1-1.3,2.1-2.8,2.8-4.3
	c3.8-7.9,4.3-16.2,2.5-24.7c-0.9-4.4-2.6-8.4-5.6-11.8c-2.3-2.5-5-3.9-8.4-3.8c-4.6,0.1-9.1,0-13.7,0
	C496.2,11.8,495.8,11.8,495.2,11.8z"/>
<path fill="#FFFFFF" d="M11.5,69c0-0.6,0-1,0-1.5c0-17.9,0-35.8,0-53.7c0-3.6-2-5.5-5.6-5.4c-1.2,0-2.4-0.2-3.2-1.3
	c-0.8-1-0.9-2-0.5-3.1C2.7,2.8,3.6,2,4.9,2C12,2,19,2,26.1,2c0.1,0,0.1,0.1,0.3,0.1c0,9.3,0,18.7,0,28.2c10.8,0,21.5,0,32.4,0
	c0-9.4,0-18.8,0-28.3c0.5,0,0.8-0.1,1.1-0.1c6.4,0,12.8,0,19.2,0c0.6,0,1.3,0.1,1.8,0.4c1.1,0.6,1.8,1.9,1.5,3.1
	c-0.3,1.3-1,2.3-2.4,2.6c-0.6,0.1-1.2,0.2-1.8,0.1c-3.2-0.1-5.4,1.9-5.4,5.1c0,18.1,0,36.2,0,54.2c0,0.4,0,0.9,0,1.4
	c-4.7,0-9.3,0-14.1,0c0-9.8,0-19.5,0-29.4c-10.8,0-21.6,0-32.4,0c0,9.8,0,19.5,0,29.3C21.5,69,16.6,69,11.5,69z"/>
<path fill="#FFFFFF" d="M397.6,36.5c-0.1,7.4-1.4,15.2-5.3,22.3c-3.5,6.4-8.8,10.2-16.1,11.2c-2.3,0.3-4.7,0.8-7,1
	c-5.7,0.5-11.3-0.3-16.8-1.8c-5.9-1.6-9.8-5.7-12.9-10.7c-4.5-7.4-6.1-15.6-5.9-24.1c0.2-7.1,1.7-13.8,5.1-20
	c2.7-4.8,5.9-9.2,11.2-11.2c3.1-1.2,6.3-1.9,9.6-2.5c6.7-1.2,13.3-0.4,19.8,1.6c6.9,2.1,11.5,6.6,14.4,13.1
	C396.5,21.8,397.6,28.7,397.6,36.5z M383.3,35.5c-0.2-5.6-1-10.9-3.3-15.9c-2.3-4.8-5.6-8.1-11-9.5c-5.1-1.3-12.2,0.4-15.2,5.1
	c-1.3,2-2.5,4-3.3,6.2c-2.4,6.7-2.9,13.6-1.9,20.7c0.6,4.2,1.7,8.2,3.8,11.9c2.1,3.6,5,6.2,9.3,6.5c1.7,0.1,3.5,0.2,5.2,0.1
	c4.8-0.2,8.5-2.4,11.2-6.4C381.9,48.5,383,42.1,383.3,35.5z"/>
<path fill="#FFFFFF" d="M150.6,69c-0.5,0-0.9,0.1-1.3,0.1c-4.4,0-8.7,0-13.1,0c-0.9,0-1.2-0.3-1.6-1.1c-2.1-4.9-4.2-9.9-6.2-14.8
	c-0.4-0.9-0.9-1.3-1.9-1.3c-10.1,0-20.2,0-30.3,0c-1,0-1.4,0.3-1.8,1.2c-2,5-4.2,9.9-6.2,14.9c-0.3,0.7-0.7,1-1.5,1
	c-2.8-0.1-5.6,0-8.5,0c0.8-1.8,1.5-3.5,2.2-5.1C89,43.7,97.7,23.4,106.4,3.1c0.4-0.8,0.8-1.1,1.7-1.1c4.2,0.1,8.5,0,12.7,0
	c0.7,0,1.1,0.2,1.3,0.9c7.5,17.5,15.1,35,22.6,52.5c1.8,4.1,3.6,8.3,5.4,12.4C150.3,68.2,150.4,68.5,150.6,69z M124.1,42.8
	c-0.7-1.6-1.4-3-2-4.5c-3.3-7.7-6.6-15.4-9.9-23.2c-0.2-0.4-0.5-0.6-0.8-0.9c-0.3,0.3-0.6,0.5-0.8,0.8c-3.2,7.6-6.4,15.2-9.6,22.7
	c-0.7,1.6-1.4,3.3-2.2,5C107.3,42.8,115.6,42.8,124.1,42.8z"/>
</svg>
