<?xml version="1.0" encoding="utf-8"?>
<!-- Generator: Adobe Illustrator 18.1.1, SVG Export Plug-In . SVG Version: 6.00 Build 0)  -->
<!DOCTYPE svg PUBLIC "-//W3C//DTD SVG 1.1//EN" "http://www.w3.org/Graphics/SVG/1.1/DTD/svg11.dtd">
<svg version="1.1" id="Layer_1" xmlns="http://www.w3.org/2000/svg" xmlns:xlink="http://www.w3.org/1999/xlink" x="0px" y="0px"
	 viewBox="0 0 328.6 108.3" enable-background="new 0 0 328.6 108.3" xml:space="preserve">
<path fill="#FFFFFF" d="M156.7,54.6c0,10.4-0.2,20.8,0.1,31.1c0.3,12-11.2,23.6-23.4,23.2c-8.7-0.2-17.4,0-26.1,0
	C94.6,109,84,98.4,84,85.6c0-20.7,0-41.4,0-62.1c0-12.7,10.5-23.2,23.3-23.2c8.8,0,17.6,0,26.5,0c12.5,0,23,10.5,23,23.1
	C156.8,33.8,156.7,44.2,156.7,54.6z M125.4,54.5c0-8.5,0-17,0-25.6c0-2.8-1.3-4.4-3.8-4.9c-3.7-0.8-6.2,1.5-6.2,5.6
	c0,16.5,0,33,0,49.5c0,0.6,0.1,1.2,0.2,1.8c0.3,1.9,1.5,3.1,3.3,3.7c3.6,1.1,6.6-1.1,6.6-4.9C125.4,71.3,125.4,62.9,125.4,54.5z"/>
<path fill="#FFFFFF" d="M77.7,108.2c-3.1,0-6,0-8.8,0c-7.9,0-15.8,0-23.8,0c-1.2,0-1.7-0.2-2-1.6c-2.1-13-4.2-26-6.3-39
	c-0.1-0.8-0.3-1.5-0.7-2.2c-0.9-1.7-2.8-2.3-4.2-1c-1,0.9-1.8,2.4-2.3,3.7c-0.4,1-0.3,2.1-0.3,3.2c0,11.4,0,22.8,0,34.2
	c0,0.7,0,1.4,0,2.2c-9.9,0-19.6,0-29.4,0C0,72,0,36.3,0,0.5c9.8,0,19.5,0,29.4,0c0,0.8,0,1.5,0,2.2c0,11.5,0,23,0,34.6
	c0,1.6,0.3,3.2,0.8,4.7c0.6,1.6,1.9,2.7,3.8,2.5c1.8-0.2,2.5-1.8,2.7-3.4c0.8-4.4,1.5-8.9,2.2-13.3c1.4-8.8,2.9-17.6,4.3-26.4
	C43.4,0.4,43.6,0,44.6,0c10.9,0,21.7,0,32.6,0c0.2,0,0.3,0.1,0.6,0.2c-1.1,4.9-2.1,9.7-3.2,14.5c-2.5,11.2-5,22.4-7.4,33.7
	c-0.3,1.2-0.8,1.7-1.9,2c-4.2,1.1-8.4,2.3-13.1,3.6c4.5,1.3,8.6,2.5,12.7,3.5c1.4,0.4,2,1,2.3,2.4C70.6,75.5,74,91,77.4,106.4
	C77.6,106.9,77.6,107.4,77.7,108.2z"/>
<path fill="#FFFFFF" d="M225.1,56.1c3.6,0.6,7.2,1.2,10.8,1.8c1,0.2,1.7,0.3,2,1.6c3.5,16,7,31.9,10.5,47.9c0,0.2,0,0.5,0,0.8
	c-11.4,0-22.7,0-34.2,0c-0.6-3.4-1.1-6.9-1.7-10.3c-1.6-9.9-3.2-19.9-4.8-29.8c0-0.2-0.1-0.4-0.1-0.5c-0.5-2.5-1.5-3.7-3-3.7
	c-1.6-0.1-3.3,1.3-3.9,3.4c-0.3,1.1-0.4,2.4-0.4,3.5c0,11.6,0,23.2,0,34.7c0,0.7,0,1.4,0,2.3c-9.9,0-19.6,0-29.4,0
	c0-35.5,0-70.9,0-106.6c0.7,0,1.4,0,2.1,0c15.7,0,31.3,0.1,47-0.1c6.3-0.1,11.3,2.4,14.8,7.3c8.2,11.6,9.3,24,3.3,36.9
	C235.5,50.8,231,54.2,225.1,56.1z M211.5,33.9C211.5,33.9,211.5,33.9,211.5,33.9c0-1.9,0.1-3.7,0-5.6c-0.1-2.7-2-4.5-4.8-4.5
	c-2.7-0.1-4.9,1.6-5,4.2c-0.2,4-0.2,8,0,12c0.1,2.5,2.4,4.2,5,4.1c2.7-0.1,4.6-1.8,4.7-4.4C211.5,37.8,211.5,35.8,211.5,33.9z"/>
<path fill="#FFFFFF" d="M329.5,2.4c0,8.3,0,16.5,0,24.9c-0.7,0-1.4,0-2,0c-10.7,0-21.5,0-32.2,0c-0.8,0-1.7,0-2.5,0.1
	c-3.2,0.3-5.3,2.2-5.7,5.5c-0.1,0.8-0.1,1.7-0.1,2.5c0,14.8,0,29.5,0,44.3c0,2.9,1,4.5,3.2,5.3c3.5,1.2,6.7-0.9,6.8-4.6
	c0.1-4.9,0-9.8,0-14.8c0-7.1,0-14.2,0-21.2c0-0.7,0-1.3,0-2.1c0.5-0.1,0.9-0.1,1.3-0.1c10.1,0,20.3,0,30.4,0c1.8,0,3.3,0.5,4.2,2.2
	c0.9,1.8,0.9,3.7-0.3,5.3c-0.8,1-2.1,1.5-3.4,2.4c0,19.1,0,38.5,0,58.1c-0.7,0-1.3,0.1-1.8,0.1c-14.4,0-28.8,0-43.2,0
	c-7,0-13.6-1.5-19.2-6c-6.6-5.3-9.7-12.4-9.8-20.6c-0.2-18.2-0.2-36.5,0-54.7c0.2-14.6,11-25.8,25.5-26.3
	c16.1-0.5,32.1-0.2,48.2-0.2C329,2.2,329.1,2.3,329.5,2.4z"/>
</svg>
