<?xml version="1.0" encoding="utf-8"?>
<!-- Generator: Adobe Illustrator 18.1.1, SVG Export Plug-In . SVG Version: 6.00 Build 0)  -->
<!DOCTYPE svg PUBLIC "-//W3C//DTD SVG 1.1//EN" "http://www.w3.org/Graphics/SVG/1.1/DTD/svg11.dtd">
<svg version="1.1" id="Layer_1" xmlns="http://www.w3.org/2000/svg" xmlns:xlink="http://www.w3.org/1999/xlink" x="0px" y="0px"
	 viewBox="0 0 378.5 42.4" enable-background="new 0 0 378.5 42.4" xml:space="preserve">
<path fill="#FFFFFF" d="M199,0.1c3.6,0,7.1,0,10.7,0c1.9,8.5,3.7,17.1,5.6,25.6c0.1,0,0.3,0,0.4,0.1c2-8.5,4-17,6.1-25.7
	c2.8,0,5.5-0.1,8.2,0.1c0.4,0,1,0.9,1.2,1.4c2,7.5,4,14.9,6,22.4c0.2,0.6,0.3,1.1,0.8,1.7c1.7-8.5,3.4-17,5.1-25.5c3.6,0,7,0,10.7,0
	c-0.8,3.6-1.7,7-2.5,10.5c-2.3,9.6-4.6,19.1-6.8,28.7c-0.3,1.3-0.8,1.7-2,1.6c-2.8-0.1-5.5-0.1-8.3,0c-1.3,0-1.7-0.4-2.1-1.6
	c-1.7-6.5-3.5-13.1-5.3-19.6c-0.1-0.3-0.2-0.6-0.5-1.5c-0.4,1.3-0.7,2.2-0.9,3.1c-1.6,6-3.2,11.9-4.8,17.9c-0.3,1.2-0.8,1.8-2.2,1.7
	c-2.6-0.1-5.3,0-7.9-0.1c-0.5,0-1.4-0.5-1.5-1C205.7,26.7,202.4,13.5,199,0.1z"/>
<path fill="#FFFFFF" d="M115.1,24.9c0,5.2,0,10.5,0,15.9c-3.6,0-7.1,0-10.7,0c0-13.5,0-27,0-40.6c0.3-0.1,0.5-0.1,0.7-0.1
	c6.1,0,12.2-0.1,18.3,0c5.6,0.1,10.1,3.5,11.4,8.3c1.6,5.8-0.5,11.8-5.1,14.6c-0.8,0.5-1.7,0.8-2.7,1.3c2.9,5.4,5.8,10.8,8.9,16.6
	c-3.3,0-6.3-0.2-9.3,0.1c-2.2,0.2-3.4-0.5-4.4-2.6c-1.8-3.9-3.8-7.7-5.8-11.6c-0.3-0.7-0.7-1.3-1.1-2
	C115.3,24.8,115.2,24.9,115.1,24.9z M115.2,8.3c0,3.7,0,7.1,0,10.6c2.9,0.1,5.7,0.4,7.8-2.1c1.3-1.6,1.4-4.2,0.3-6.1
	C121.4,7.5,118.3,8.5,115.2,8.3z"/>
<path fill="#FFFFFF" d="M71.2,0.1c3.7,0,7.1,0,10.7,0c0,0.5,0.1,1.1,0.1,1.6c0,8.5,0,16.9,0,25.4c0,4.8-1.1,9.2-5.2,12.3
	c-5.5,4.1-16.9,4.1-22.3-0.1c-3.5-2.8-4.9-6.6-5-10.9c-0.1-9.1,0-18.2,0-27.3c0-0.2,0.1-0.5,0.1-0.8c3.5,0,6.9,0,10.7,0
	c0,0.6,0,1.3,0,1.9c0,8.2,0,16.3,0,24.5c0,4.3,2.8,6.5,7,5.6c1.9-0.4,3.1-1.5,3.6-3.4c0.2-1,0.3-2,0.3-3
	C71.2,17.2,71.2,8.8,71.2,0.1z"/>
<path fill="#FFFFFF" d="M10.7,40.8c-3.8,0-7.2,0-10.7,0c0-13.6,0-27,0-40.6c3.4,0,6.9,0,10.6,0c0,5.8,0,11.6,0,17.4
	c0.1,0,0.3,0.1,0.4,0.1c1.9-3.7,3.8-7.4,5.7-11c1-1.9,1.9-3.7,2.9-5.6c0.2-0.4,0.8-1,1.2-1c3.8-0.1,7.5,0,11.6,0
	c-1.9,3.5-3.6,6.8-5.4,10c-1.7,3.2-3.4,6.4-5.1,9.5c-0.5,1-0.5,1.7,0,2.6c3.2,5.6,6.2,11.2,9.4,16.8c0.3,0.5,0.5,1,1,1.9
	c-3,0-5.8-0.2-8.6,0.1c-2.8,0.3-4.3-0.7-5.5-3.2c-2.2-4.5-4.8-8.9-7.5-13.2C10.7,29.9,10.7,35.2,10.7,40.8z"/>
<path fill="#FFFFFF" d="M283.6,16c4.5,0,9,0,13.5,0c0,3,0,5.8,0,8.9c-4.5,0-9,0-13.6,0c0,2.6,0,5,0,7.6c4.8,0,9.6,0,14.5,0
	c0,2.9,0,5.5,0,8.2c-8.4,0-16.7,0-25.1,0c0-13.5,0-27,0-40.6c8.4,0,16.7,0,25.1,0c0,2.7,0,5.3,0,8.2c-4.8,0-9.6,0-14.5,0
	C283.6,10.9,283.6,13.3,283.6,16z"/>
<path fill="#FFFFFF" d="M169.3,30.6c5,0,9.7,0,14.5,0c0,3.4,0,6.7,0,10.1c-10.1,0-20.2,0-30.7,0c5.2-10.1,10.3-20.1,15.5-30.4
	c-4.9,0-9.6,0-14.5,0c0-3.5,0-6.8,0-10.2c9.8,0,19.5,0,29.5,0C178.8,10.3,174.1,20.3,169.3,30.6z"/>
<path fill="#FFFFFF" d="M378.5,30.6c0,3.6,0,6.8,0,10.2c-8.3,0-16.6,0-25,0c0-13.5,0-26.9,0-40.5c3.4,0,6.8,0,10.4,0
	c0,10,0,20.1,0,30.4C368.8,30.6,373.5,30.6,378.5,30.6z"/>
<path fill="#FFFFFF" d="M320.9,40.7c0-13.6,0-27,0-40.6c3.4,0,6.7,0,10.2,0c0,13.5,0,27,0,40.6C327.7,40.7,324.3,40.7,320.9,40.7z"
	/>
</svg>
