<?xml version="1.0" encoding="utf-8"?>
<!-- Generator: Adobe Illustrator 18.1.1, SVG Export Plug-In . SVG Version: 6.00 Build 0)  -->
<!DOCTYPE svg PUBLIC "-//W3C//DTD SVG 1.1//EN" "http://www.w3.org/Graphics/SVG/1.1/DTD/svg11.dtd">
<svg version="1.1" id="Layer_1" xmlns="http://www.w3.org/2000/svg" xmlns:xlink="http://www.w3.org/1999/xlink" x="0px" y="0px"
	 viewBox="0 0 423 210" enable-background="new 0 0 423 210" xml:space="preserve">
<path fill="#FFFFFF" d="M64.9,161.3c2.1,2.3,3.6,4.9,4.2,7.9c1.6,6.9,0.9,13.7-1.6,20.3c-4.1,10.6-12.1,17.1-23.1,19.3
	c-8.6,1.7-16.8-0.1-24.2-5.2C13.6,199,9.1,192.8,7.1,185c-1.3-5-1.5-10.1-0.3-15.2c1.6-6.6,4.3-12.7,8.7-17.9
	c3.3-3.9,7.2-6.8,11.6-9.1c4.9-2.5,10-4.6,15.1-6.8c3.7-1.6,7.4-3,11.1-4.6c3.5-1.5,6.6-3.7,9.2-6.4c2.2-2.4,3.4-5.2,3.4-8.5
	c0-23.1,0-46.2,0-69.4c0-1.7,0-3.4-0.4-5c-1.1-4.3-4.1-6.7-8.3-7.7c-0.7-0.2-1.5-0.4-2.2-0.6c0-0.2-0.1-0.4-0.1-0.6
	c0.4-0.2,0.8-0.6,1.2-0.7c13.8-1.7,27.2-5,40.2-9.8c10.6-4,20.8-8.8,30.1-15.2c1.7-1.1,3-0.9,4.4-0.2c1.5,0.7,2,2,2,3.5
	c0,5.9,0.1,11.8,0.1,17.8c0,6,0,12,0,18c0,0.2,0,0.5,0,0.7c0.1,4.2,2.7,5.7,6.4,3.8c0.7-0.4,1.3-0.9,2-1.3c0.6-0.3,1.4-0.4,2.2-0.6
	c0.1,1.8-0.7,2.6-1.7,3.3c-5.9,3.6-11.9,6.9-18.5,9c-2,0.6-4.2,0.9-6.4,0.9c-4,0.1-6.4-2.5-6.4-6.5c0-9.8,0-19.5,0-29.3
	c0-0.9-0.1-1.9-0.3-2.8c-0.5-1.8-1.9-2.7-3.7-2.3c-1.4,0.3-2.9,0.8-3.9,1.6c-4.8,4-8.8,8.7-10.8,14.7c-0.7,2-1,4.2-1,6.3
	c-0.1,19-0.1,38.1,0,57.1c0,10.4-4.9,18.3-12.6,24.7c-3.6,3-7.8,5.3-12.3,6.8c-1.3,0.4-2.7,0.8-3.9,2.5c0.9,0.2,1.6,0.5,2.2,0.5
	c11.8,0.9,22.8,4.4,33.3,9.9c9.3,4.9,18,10.8,26.2,17.3c7.9,6.3,16.4,11.4,25.3,16c1.2,0.6,2.5,1.1,3.8,1.4
	c4.3,1.1,7.9,0.1,11.1-3.2c3.3-3.5,6.3-7.3,8.7-11.5c5.4-9.4,10.7-18.8,16.1-28.1c1.9-3.3,4.3-6.3,7.6-8.5c2.7-1.8,5.6-2,8.4-0.8
	c2,0.9,3.8,2.1,5.5,3.3c3.6,2.6,7.2,5.4,10.8,8c2.1,1.5,4.3,3,6.5,4.4c0.7,0.4,1.4,0.7,2.2,1c6.7,2.3,9.6-3.1,9-7.6
	c-0.3-2.1-1.2-4-2.7-5.5c-3.3-3.2-7.1-5.7-11.6-7.1c-7-2.2-14.1-4.2-21.4-5.4c-2.5-0.4-5-1.1-7.5-1.8c-4-1.2-7.4-3.3-10.2-6.4
	c-2.6-2.8-3.8-6.2-4.1-10c-0.4-5.4,1.4-10.1,3.9-14.6c4.7-8.7,10.8-16.4,18.2-23.1c2.4-2.2,5.2-3.7,8.3-4.8c2.9-1,5.5-0.5,7.8,1.6
	c1.8,1.7,3.6,3.5,5.4,5.1c2.1,1.9,4.1,3.8,6.4,5.5c4.4,3.4,9,3.2,13.4,0.5c1.3-0.8,2.5-1.7,4.1-2.7c-0.1,0.8-0.1,1.2-0.2,1.4
	c-3.8,5.3-7.1,11-11.6,15.8c-1.1,1.2-2.3,2.2-3.5,3.3c-4.7,4-10.9,3.7-15.6-0.2c-3.1-2.5-6.1-5.2-9.2-7.7c-1.6-1.3-3.3-2.5-5-3.7
	c-2.3-1.6-4.8-2.1-7.2-0.5c-2.5,1.6-3.8,4.1-3.4,7.2c0.7,4.4,3.1,7.6,6.8,9.9c4.9,3,10.4,4.1,15.9,5.1c3.6,0.6,7.3,1,10.9,1.4
	c5.4,0.6,10.4,2.3,14.7,5.5c6.4,4.8,10.6,10.9,9.8,19.4c-0.2,2.2-0.8,4.4-1.8,6.4c-4.7,10.2-11.1,19.3-19.4,26.9
	c-2.1,1.9-4.6,3.4-7.2,4.7c-3.2,1.7-6.5,1.7-9.5-0.5c-4-3-7.9-6.2-11.9-9.4c-1.1-0.9-2.1-1.9-3.3-2.8c-3.5-2.5-7.1-2.5-10.3,0.5
	c-2.4,2.2-4.6,4.7-6.3,7.5c-5.5,8.7-10.6,17.5-16,26.2c-3,4.8-6.7,9-11.6,11.9c-5.8,3.4-12,3.8-18.2,1.4c-5.6-2.2-10.7-5.5-15.5-9.1
	c-9-6.8-17.4-14.3-25.6-22c-5.9-5.6-12.1-10.9-18.3-16.2c-3.5-3-7.5-5.4-11.6-7.6c-5.2-2.7-10.8-3.4-16.5-3.4
	c-5.3,0-10.3,1.4-14.9,3.9c-7.6,4-13.7,14.1-11.5,24.3c1.1,4.9,3.3,9,6.7,12.5c2.9,2.9,6.5,4.6,10.4,5.6
	c12.9,3.1,24.9-6.5,26.6-17.4C65.6,166.3,65.5,163.8,64.9,161.3z"/>
<path fill="#FFFFFF" d="M348.5,85.4c1.1-0.3,2-0.6,2.9-0.9c10.2-3.6,20-8.2,28.4-15.2c3.5-3,6.8-6.3,10.2-9.5c2-1.9,2.3-1.9,4.6-0.6
	c7.7,4.3,15.3,8.7,23,13c0.6,0.3,1.1,0.6,1.6,1c0.2,0.2,0.4,0.5,0.6,0.8c-0.2,0.3-0.3,0.7-0.6,1c-2,1.8-2.6,4.1-2.6,6.7
	c0,8.6,0,17.1,0,25.7c0,2.4,0.4,4.6,2.3,6.3c0.2,0.2,0.3,0.5,0.6,1.1c-0.8,0.3-1.5,0.7-2.2,0.7c-1.3,0.1-2.6,0-3.8,0
	c-11,0-21.9,0-32.9,0c-0.6,0-1.3,0-1.9,0c-1.7,0.1-2.2,0.4-2.2,2.1c0,7.4-0.1,14.7,0.1,22.1c0.1,3.8,1.9,7.1,5.2,9.3
	c1.9,1.3,3.9,2.6,6,3.4c3.8,1.4,7.3,0.8,10.1-2.6c2.9-3.5,4.8-7.6,6.7-11.6c0.7-1.5,1.2-3.1,1.7-4.7c0.6-1.8,1.1-2.1,2.8-1.3
	c1.9,1,3.8,2.1,5.6,3.3c1.5,1,3,2.2,4.4,3.3c1.6,1.3,1.9,2.2,1,3.9c-4.5,8.6-10.4,15.9-20,19.4c-2.5,0.9-5,1.2-7.5,0
	c-2.4-1.1-4.8-2.2-7-3.7c-7.2-5.1-15-9.3-22.7-13.3c-3.7-1.9-7.5-1.6-11.1,0.8c-6.9,4.6-13.8,9.2-20.8,13.8
	c-1.2,0.8-2.4,1.6-3.6,2.4c-2.8,1.7-4,1.7-6.5-0.4c-1.8-1.5-3.5-3.3-5-5.1c-1.5-1.8-2.8-3.9-4.2-5.9c-1.9-2.7-3.8-3.5-7-2.5
	c-0.9,0.3-1.8,0.7-2.6,1.2c-7.6,4.4-15.2,8.8-22.8,13.3c-2.2,1.3-4.4,1.3-6.6,0c-3.4-2-5.9-4.9-8.1-8.1c-0.6-0.8-1-1.8-1.7-2.6
	c-1.9-2.6-4.2-4.6-7.6-4.9c-0.8-0.1-1.6-0.4-2.9-0.7c0.6-0.7,0.8-1.2,1.3-1.4c3.7-2.2,5.2-5.7,6.1-9.6c0.3-1.5,0.3-3,0.3-4.5
	c0-23.1,0-46.2,0-69.3c0-2.4-0.2-4.8-0.5-7.2c-0.3-2.7-1.6-5-3.4-7c-2.6-2.7-5.5-5.1-9.7-6.5c8.2-2.5,14.1-7.4,18.8-14
	c0.5,0.2,1,0.4,1.3,0.7c3.5,3.7,7.7,6.5,12.1,9c3.6,2,5,4.9,5,8.9c0,5.5,0,11-0.1,16.6c0,24.6,0,49.1,0,73.7c0,1.4,0.1,2.7,0.1,4.1
	c0.2,3,1.4,5.5,3.5,7.7c1.8,1.9,4,2.6,6.3,1.6c6.1-2.4,11.4-5.9,13.8-12.4c0.7-1.8,1.1-3.6,1.1-5.6c0-15.3-0.1-30.6,0-45.8
	c0-4-1.6-6.9-4.7-9.2c-1.4-1-2.9-1.9-4.4-2.9c-0.4-0.3-0.8-0.7-1.4-1.3c0.9-0.5,1.7-0.9,2.4-1.3c2.3-1.2,4.6-2.2,6.8-3.5
	c2.8-1.7,5.1-4.1,7-6.8c1.3-1.9,2.2-1.9,3.4,0c2.2,3.4,5.4,5.6,8.6,7.9c0.6,0.4,1.2,0.8,1.8,1.2c3.3,2,4.8,4.8,4.7,8.8
	c-0.1,19.5,0,39,0,58.5c0,3,1,5.7,2.7,8.1c2,2.9,4.2,3.4,7.2,1.7c3.5-1.9,6.7-4.1,8.8-7.6c1.6-2.7,2.6-5.6,2.6-8.8
	c-0.1-11.8,0-23.7,0-35.5c0-0.2,0-0.5,0-0.7c0.3-3.8-1-6.4-4.8-7.4C349,86,348.9,85.9,348.5,85.4z M376.6,93.9c0,5.3,0,10.6,0,15.8
	c0,2.5,0.3,2.8,2.8,2.8c3.6,0,7.2,0,10.8,0c3.2,0,4.2-1,4.2-4.1c0-7-0.1-13.9,0-20.9c0-2.6-0.9-4.9-2.4-6.9
	c-1.1-1.5-2.5-2.9-3.8-4.3c-1.4-1.5-3.3-2.3-5.3-2.7c-3.7-0.7-6.3,1.3-6.3,5.1C376.6,83.8,376.6,88.9,376.6,93.9z"/>
<path fill="#FFFFFF" d="M107.1,144.1c0.8-1,1.3-1.7,1.9-2.3c1.3-1.3,1.9-2.8,1.9-4.7c-0.1-14.1-0.1-28.1-0.1-42.2
	c0-4.2-1.4-6.9-5.7-8c-0.5-0.1-1-0.5-1.4-0.7c0.1-1.1,0.8-1.2,1.5-1.4c15.1-3.3,27.5-11.4,38.4-22c1.1-1.1,2.3-2.2,3.4-3.4
	c0.8-0.9,1.6-1.1,2.7-0.5c8.1,4.6,16.1,9.2,24.2,13.7c0.3,0.2,0.7,0.4,1,0.6c0.9,0.6,1.2,1.4,0.4,2.2c-2.2,2-2.2,4.6-2.2,7.3
	c0.1,8.2,0.1,16.3,0,24.5c0,2.1,0.3,4.1,1.6,5.9c1.2,1.6,0.7,2.4-1.3,2.6c-0.6,0-1.1,0-1.7,0c-11.5,0-23,0-34.5,0
	c-0.6,0-1.3,0-1.9,0c-1.2,0.1-1.9,0.8-1.9,2c0,0.4,0,0.8,0,1.2c0,6.2-0.1,12.3,0.1,18.5c0.1,2.4,0.6,4.8,1.2,7c1,3.5,3.5,6,6.7,7.7
	c1,0.5,2,1.1,3,1.6c4.6,2.3,8.8,1.2,11.8-3c3.1-4.3,5.1-9,6.5-14.1c0.3-0.9,0.1-1.9-0.1-2.8c-0.1-0.8-0.4-1.5-0.7-2.5
	c0.7,0.1,1.3,0,1.7,0.2c4.5,2.5,9,4.9,13.4,7.5c1.8,1.1,2.4,3,1.5,5.3c-0.8,2-2,3.8-3.2,5.6c-2.5,3.6-5.6,6.8-9,9.6
	c-2.9,2.3-6,4.2-9.9,4.5c-2.7,0.3-5.1-0.3-7.3-1.8c-4.4-2.9-8.7-5.9-13.3-8.5c-4.2-2.3-8.6-4.3-13-6.2c-4.1-1.8-8.5-2.2-12.8-2.8
	C109.2,144.6,108.4,144.4,107.1,144.1z M133,94.3c0,4.5,0,8.9,0,13.4c0,0.6,0,1.3,0,1.9c0.2,2.2,0.8,2.8,3,2.9c2.5,0.1,4.9,0,7.4,0
	c1.3,0,2.6,0.1,3.8,0c2.6-0.2,3.7-1.3,3.7-4c0-6.6,0.1-13.3-0.1-19.9c0-1.5-0.5-3.2-1.1-4.6c-1.9-4.4-5.5-7.1-9.9-8.9
	c-0.9-0.4-2-0.4-3-0.5c-1.9,0-3.4,1.2-3.7,3.1c-0.2,0.9-0.2,1.7-0.2,2.6C133,85,133,89.7,133,94.3z"/>
<path fill="#FFFFFF" d="M297.8,38.8c0.9-0.6,1.3-1.1,1.9-1.3c4.8-2.5,9.1-5.6,13.1-9.2c1.7-1.5,3-1.4,4.4,0.4c0.6,0.7,1,1.7,1.5,2.5
	c1.6,2.4,3.1,4.9,4.9,7.1c1.1,1.3,2.5,2.4,3.9,3.4c1.4,1,1.7,1.5,0.7,2.9c-1.2,1.6-2.5,3.2-4.1,4.3c-2.5,1.7-5.1,3.2-7.8,4.6
	c-2.3,1.2-4.4,1-6-1.8c-1.7-2.8-3.7-5.4-5.8-7.9c-1.3-1.5-3.1-2.5-4.6-3.7C299.2,39.7,298.6,39.4,297.8,38.8z"/>
</svg>
