<?xml version="1.0" encoding="utf-8"?>
<!-- Generator: Adobe Illustrator 18.1.1, SVG Export Plug-In . SVG Version: 6.00 Build 0)  -->
<!DOCTYPE svg PUBLIC "-//W3C//DTD SVG 1.1//EN" "http://www.w3.org/Graphics/SVG/1.1/DTD/svg11.dtd">
<svg version="1.1" id="Layer_1" xmlns="http://www.w3.org/2000/svg" xmlns:xlink="http://www.w3.org/1999/xlink" x="0px" y="0px"
	 viewBox="0 0 61.8 60.6" enable-background="new 0 0 61.8 60.6" xml:space="preserve">
<path fill="#FFFFFF" d="M30.8,0C14.4-0.4,0.3,12.8,0,29c-0.4,17.6,13.1,31.3,31.2,31.7C47.6,61,61.8,47.5,61.8,31.1
	C61.9,14.3,48.7,0.5,30.8,0z M32.4,60C15.2,60.3,1.1,47.2,0.8,30.7C0.5,14,13.2,1,30.2,0.7c16.6-0.3,30.6,13.2,30.9,29.8
	C61.4,46.1,48.1,59.7,32.4,60z"/>
<path fill="#FFFFFF" d="M30.7,3.5C15.6,3.4,3.6,15.1,3.5,30C3.4,44.8,15.8,57.1,30.8,57.2C46,57.3,58.3,45.4,58.3,30.7
	C58.4,15.9,45.9,3.6,30.7,3.5z M12,41.9c-0.5,0-1.1-0.4-1.6-0.6c0.1-0.2,0.1-0.4,0.2-0.6c0.9-0.1,1.8-0.2,2.9-0.3
	c0-0.6,0.1-1.2,0.1-1.8c0-7.1,0-14.1,0-21.2c0-1.6,0-2.9-2.2-2.6c-0.2,0-0.5-0.3-1.2-0.8c1.1-0.3,1.7-0.6,2.3-0.6
	c3.3,0,6.6-0.1,9.9,0c0.6,0,1.1,0.4,1.7,0.6c-0.5,0.2-1,0.5-1.6,0.7c-0.3,0.1-0.6,0.1-1.1,0.1c0,0.7-0.1,1.3-0.1,1.9
	c0,7.1,0,14.1,0,21.2c0,2.2,0.6,2.9,2.7,2.2c2.2-0.7,4.3-1.9,6.4-3.1c1.6-0.9,3.1-2.1,4.7-3.1c0.1,0.1,0.3,0.2,0.4,0.4
	c-1,2.3-1.9,4.6-2.9,6.8c-0.2,0.4-1.1,0.7-1.6,0.8C24.6,42,18.3,42,12,41.9z M55.1,26.3c1.1,5.6-2.7,10.1-8.8,10.4
	c-1.7,0.1-3.5,0.2-5.2,0.2c-1.1,0-1.6,0.5-1.6,1.7c0,2.3,0.1,4.6,0.1,6.8c0,0.9,0.4,1.5,1.4,1.4c0.4,0,0.9,0.2,1.6,0.4
	c-1.7,1.3-12.2,1.1-13,0.1c0.1-0.1,0.1-0.3,0.2-0.3c2,0.1,2.7-0.9,2.7-2.9c0-1.4,0.9-2.8,1.5-4.2c1.1-2.7,2.2-5.5,3.4-8.2
	c-0.1-0.1-0.3-0.2-0.4-0.3c-1.4,0.9-2.8,1.8-4.6,3c-0.1-0.9-0.2-1.5-0.2-2.1c0-3.1-0.1-6.1,0-9.2c0-1.6-0.2-2.7-2.2-2.6
	c-0.3,0-0.7-0.4-1.1-0.7c0.4-0.3,0.7-0.7,1.1-0.7c5.7,0,11.5-0.1,17.2,0.3C51.2,19.8,54.5,22.9,55.1,26.3z"/>
<path fill="#FFFFFF" d="M41,20.7c-1.2,0-1.6,0.5-1.5,1.6c0.1,1.9,0,3.7,0,5.6c0,2,0,4.1,0,6.1c0,1.1,0.5,1.5,1.5,1.6
	c4,0.1,7.7-3.4,7.7-7.4C48.7,24,45,20.5,41,20.7z"/>
</svg>
