<?xml version="1.0" encoding="utf-8"?>
<!-- Generator: Adobe Illustrator 18.1.1, SVG Export Plug-In . SVG Version: 6.00 Build 0)  -->
<!DOCTYPE svg PUBLIC "-//W3C//DTD SVG 1.1//EN" "http://www.w3.org/Graphics/SVG/1.1/DTD/svg11.dtd">
<svg version="1.1" id="Layer_1" xmlns="http://www.w3.org/2000/svg" xmlns:xlink="http://www.w3.org/1999/xlink" x="0px" y="0px"
	 viewBox="0 0 40 9.1" enable-background="new 0 0 40 9.1" xml:space="preserve">
<path fill="#FFFFFF" d="M6.1,0C5.8,0.7,5.6,1.3,5.3,1.8C4.5,3.7,3.6,5.6,2.8,7.5C2.6,7.9,2.7,8.1,3.2,8.1c5.7,0,11.3,0,17,0
	c4.9,0,9.8,0,14.7,0c0.8,0,0.9-0.1,1.2-0.8c0.1-0.1,0.1-0.3,0.2-0.5c-0.7,0-1.4,0-2,0c-0.6,0-1.1-0.4-1.2-0.9c0-0.2,0-0.5,0.1-0.7
	c0.3-0.6,0.5-1.2,0.8-1.8c0.3-0.7,0.9-1.1,1.6-1.1c1.1,0,2.1,0,3.2,0c0.1,0,0.2,0,0.3,0c0.8,0.1,1.1,0.5,1,1.2
	c-0.1,0.3-0.2,0.6-0.3,0.9c-0.5,1.2-1,2.3-1.5,3.5c-0.4,0.8-1,1.2-1.9,1.2c-11.7,0-23.5,0-35.2,0c-0.9,0-1.3-0.4-1-1.3
	C0.3,7,0.7,6.1,1,5.3c0.7-1.7,1.4-3.3,2.1-5C3.2,0.1,3.3,0,3.6,0C4.4,0,5.2,0,6.1,0z M36.9,3.1c-0.5-0.1-0.9,0.2-1,0.7
	c0,0.1-0.1,0.2-0.1,0.3c-0.2,0.4-0.4,0.7-0.6,1.1c-0.2,0.4-0.1,0.6,0.3,0.6c0.2,0,0.5,0,0.7,0c0.4,0,0.6-0.2,0.8-0.5
	c0.2-0.4,0.4-0.9,0.6-1.3C37.9,3.2,37.9,3.1,36.9,3.1z"/>
<path fill="#FFFFFF" d="M26.9,2.3c-0.4,0.9-0.8,1.7-1.2,2.5c-0.1,0.2-0.2,0.5-0.3,0.7c-0.1,0.3,0,0.5,0.4,0.5c0.3,0,0.6-0.2,0.7-0.5
	c0.3-0.5,0.5-1,0.7-1.5c0.2-0.5,0.5-1,0.7-1.5c0.1-0.2,0.2-0.3,0.4-0.3c0.6,0,1.1,0,1.7,0c-0.1,0.2-0.1,0.3-0.2,0.4
	c-0.5,1-1,2-1.5,3c-0.3,0.7-0.8,1-1.4,1.1c-0.8,0.1-1.7,0.2-2.5,0c-0.3-0.1-0.5-0.2-0.9-0.4c-0.7,0.5-1.6,0.5-2.6,0.3
	c-0.8-0.1-1.2-0.7-0.8-1.5c0.3-0.8,0.7-1.5,1-2.2c0.2-0.6,0.6-0.9,1.3-0.8c0.3,0.1,0.7,0,1.1,0c-0.4,0.8-0.7,1.6-1.1,2.3
	c-0.1,0.3-0.3,0.6-0.4,0.9c-0.1,0.3,0,0.5,0.3,0.5c0.3,0,0.6-0.1,0.8-0.4c0.5-1,1-1.9,1.5-2.9c0.1-0.2,0.2-0.3,0.5-0.3
	C25.7,2.3,26.2,2.3,26.9,2.3z"/>
<path fill="#FFFFFF" d="M12.7,6.7c0.2-0.4,0.4-0.9,0.6-1.3c0.5-0.9,0.9-1.9,1.4-2.8c0.1-0.2,0.2-0.3,0.5-0.3c1.2,0,2.4,0,3.6,0
	c0.9,0,1.3,0.6,1.1,1.4c-0.2,0.5-0.4,1.1-0.6,1.6c-0.3,0.9-1,1.4-2,1.4C15.8,6.8,14.3,6.8,12.7,6.7C12.7,6.8,12.7,6.8,12.7,6.7z
	 M15,5.8c0.5,0,0.9,0,1.3,0c0.3,0,0.6-0.1,0.7-0.4c0.3-0.6,0.5-1.2,0.7-1.8c0.1-0.3-0.1-0.5-0.4-0.5c-0.9-0.1-1.1-0.1-1.5,0.8
	c0,0.1-0.1,0.1-0.1,0.2C15.5,4.7,15.3,5.2,15,5.8z"/>
<path fill="#FFFFFF" d="M13.7,2.3c-0.4,0.9-0.8,1.7-1.1,2.5C12.4,5.2,12.2,5.6,12,6c-0.2,0.5-0.6,0.7-1.2,0.7c-1.3,0-2.6,0-4,0
	C6.1,6.7,5.6,6,6,5.2c0.4-0.9,0.9-1.9,1.4-2.8c0-0.1,0.2-0.2,0.3-0.2c0.6,0,1.2,0,1.9,0C9.4,2.5,9.3,2.6,9.3,2.8
	C8.8,3.7,8.4,4.6,8,5.4C7.8,5.9,7.8,5.9,8.3,5.9c0.4,0,0.7,0,1.1,0C9.7,6,9.9,5.8,10,5.5c0.4-0.9,0.9-1.9,1.3-2.8
	c0.1-0.3,0.3-0.4,0.6-0.4C12.5,2.3,13,2.3,13.7,2.3z"/>
<path fill="#FFFFFF" d="M28.9,6.7c0.3-0.6,0.5-1.2,0.8-1.7c0.4-0.8,0.8-1.6,1.1-2.4c0.1-0.2,0.2-0.3,0.5-0.3c0.7,0,1.3,0,2,0
	c-0.1,0.2-0.1,0.3-0.2,0.4c-0.6,1.2-1.2,2.5-1.7,3.7c-0.1,0.3-0.3,0.4-0.6,0.4C30.3,6.7,29.6,6.7,28.9,6.7z"/>
</svg>
