<?xml version="1.0" encoding="utf-8"?>
<!-- Generator: Adobe Illustrator 18.1.1, SVG Export Plug-In . SVG Version: 6.00 Build 0)  -->
<!DOCTYPE svg PUBLIC "-//W3C//DTD SVG 1.1//EN" "http://www.w3.org/Graphics/SVG/1.1/DTD/svg11.dtd">
<svg version="1.1" id="Layer_1" xmlns="http://www.w3.org/2000/svg" xmlns:xlink="http://www.w3.org/1999/xlink" x="0px" y="0px"
	 viewBox="0 0 327.4 661.5" enable-background="new 0 0 327.4 661.5" xml:space="preserve">
<path fill="#FFFFFF" d="M5,115.1c107.7,0,214.6,0,322.3,0c0,1.9,0,3.6,0,5.4c0,141.8,0,283.6,0.1,425.4c0,3.8-1.4,6.1-4.3,8.2
	c-35.4,25.7-74.7,42.2-117.9,48.6c-69.6,10.4-133-6.1-191.2-45c-6.6-4.4-9.3-9-9.2-17.3C5.1,401,5,261.5,5,122
	C5,119.9,5,117.8,5,115.1z M10,120.2c0,2.2,0,4,0,5.8c0,138.8,0,277.7-0.1,416.5c0,4.4,1.5,7,4.9,9.4
	c48.9,33.8,102.9,51.1,162.6,48.5c51.4-2.3,97.9-19.2,140.1-48.5c3.2-2.2,5-4.4,5-8.8c-0.1-139.2-0.1-278.3-0.1-417.5
	c0-1.8,0-3.5,0-5.4C218,120.2,114.4,120.2,10,120.2z"/>
<path fill="#FFFFFF" d="M304.3,109.8c-2.7,0-4.8,0-7.4,0c-0.1-1.9-0.3-3.7-0.3-5.5c0-17.5-0.1-35,0-52.5c0-3-0.9-4.7-3.7-6.2
	c-47.2-26-97.6-37.6-151.4-32.4C105,16.7,70.7,28,38.8,46.1c-1.6,0.9-3,3.9-3,5.9c-0.2,17.2-0.1,34.3-0.1,51.5c0,2,0,3.9,0,6.2
	c-2.6,0-4.7,0-7.3,0c-0.1-1.2-0.3-2.6-0.3-4.1c0-19.5,0-39-0.1-58.5c0-3,0.8-4.8,3.6-6.3C121.3-8.6,211.1-8.6,300.9,41
	c1.5,0.8,3.3,2.8,3.3,4.3C304.4,66.6,304.3,87.9,304.3,109.8z"/>
<path fill="#FFFFFF" d="M120.7,608.8c8,0.3,8,0.3,8,7.1c0,9.8,0,19.6,0,29.6c25.1,3.7,49.5,3.6,74.4,0.1c0-12,0-23.8,0-36
	c2.8-0.5,5.2-0.8,7.9-1.3c0,14.7,0,29.2,0,44c-18.5,3-36.9,5.7-55.6,4.2c-10.3-0.9-20.5-2.3-30.7-3.7c-1.4-0.2-3.7-2.1-3.7-3.3
	C120.6,636.1,120.7,622.6,120.7,608.8z"/>
<path fill="#FFFFFF" d="M28,574c6,1.4,8.2,4.3,7.8,10.1c-0.6,8.3-0.3,16.6,0,25c0,1.7,1,4.1,2.3,4.8c20.5,12,42.1,21.3,65.2,27
	c0.5,0.1,1,0,2,0c0-11.8,0-23.6,0-35.9c2.9,0.7,5.3,1.3,7.8,1.9c0,14.8,0,29.2,0,44.6c-8.8-2.3-17.3-4.3-25.6-6.9
	c-19.8-6.2-38.4-14.9-56.2-25.5c-1.4-0.9-3.1-2.8-3.1-4.3C27.9,601.3,28,587.8,28,574z"/>
<path fill="#FFFFFF" d="M304.3,573.9c0,14,0.1,27.6-0.1,41.3c0,1.2-1.1,2.8-2.2,3.4c-25.3,15-52.2,26.4-81.2,32.3
	c-0.4,0.1-0.9-0.1-1.9-0.2c0-14-0.2-27.9,0.3-41.9c0-1.5,3.9-2.9,7.2-5.1c0,13.5,0,25.2,0,37.8c5.4-1.5,10-2.6,14.5-4
	c18.2-5.6,35.4-13.5,52-22.8c2.6-1.5,3.8-3.1,3.7-6.2c-0.2-8.2,0.3-16.3-0.2-24.5C296.1,578.4,298.2,575.4,304.3,573.9z"/>
<path fill="#FFFFFF" d="M120.5,101.2c-2.3-0.5-4.4-1-7.2-1.6c0,3.6,0,6.7,0,10.1c-2.9,0-5.1,0-7.7,0c0-6.1,0-12,0-19.2
	c7.7,1.2,15,2.3,22.7,3.5c0,5.2,0,10.3,0,15.6c-2.5,0-4.8,0-7.5,0C120.7,107,120.6,104.4,120.5,101.2z"/>
<path fill="#FFFFFF" d="M226.4,90.5c0,7.1,0,13,0,19.2c-2.5,0-4.7,0-7.2,0c-0.1-3.3-0.3-6.4-0.4-10.1c-2.6,0.5-4.9,1-7.5,1.5
	c0,2.8,0,5.5,0,8.5c-2.8,0-5.2,0-7.8,0c0-5.3,0-10.4,0-15.6C210.9,92.9,218.3,91.8,226.4,90.5z"/>
<path fill="#FFFFFF" d="M15.3,125.1c100.8,0,200.9,0,301.4,0c0,33.3,0,66.4,0,100.4c-13.2,3-26.6,6.4-40.1,9
	c-14.7,2.9-29.6,4.8-44.7,3.6c-17.9-1.5-23.4-8.9-19.7-26.5c0.4-2.1,1-4.2,1.6-6.2c-0.3-0.1-0.7-0.4-0.8-0.4
	c-15.7,11.1-30.6,23-40.8,39.8c-0.9,1.5-2.4,2.7-3.9,3.7c-25.1,16.6-47.4,36.1-65.2,60.6c-1.7,2.3-4.5,3.8-6.7,5.7
	c-10.2,9.2-16.2,20.6-17.1,34.4c-1.8,27.5-10.2,53.1-20.9,78.2c-3.5,8.2-5.6,17-7.6,25.7c-1.5,6.7,0.8,12.5,7.5,15.1
	c9.1,3.6,18.3,7.2,27.7,9.6c6.6,1.7,11.6,4.7,15.2,10.3c1.9,2.9,3.6,6,5.4,9c5.2,8.6,15.4,11.8,23.1,5.5
	c7.6-6.2,13.8-14.2,20.2-21.8c4.3-5.2,7.7-11.3,11.8-16.7c1.1-1.5,3.4-2.9,5.2-2.9c15.4-0.6,28.6-6.5,38.9-17.8
	c4.2-4.5,8.9-6.1,14.4-6.4c22-1.1,40.9,5.3,54.5,23.4c8.9,11.8,17,24.3,25.7,36.3c4.3,5.9,9.2,11.4,13.6,17.3
	c1.5,2.1,2.8,4.9,2.9,7.4c0.4,7,0.3,14,0,21c-0.1,2-1.3,4.6-2.8,5.6c-49.2,32.1-102.4,51.2-161.9,47.7c-49-2.9-93.2-20.4-134-47.4
	c-3-2-2.9-4.5-2.9-7.3c0-82.7,0-165.3,0-248c0-53.8,0-107.7,0-161.5C15.3,129.5,15.3,127.5,15.3,125.1z M40.3,156.5
	c0.4-0.1,0.7-0.3,1.1-0.4c3.3,4.4,6.6,8.7,9.9,13.1c3.6,4.8,5.4,4.7,9.1-0.2c3-4,6.1-8.1,9.1-12.1c0.4,0.1,0.9,0.3,1.3,0.4
	c0,6.5,0,13,0,19.4c4.5,0,8.3,0,12.3,0c0-14.1,0-27.8,0-41.7c-6-1.2-10.9-1-14.6,5.1c-3.3,5.5-7.7,10.3-12,15.9
	c-4.4-5.5-9-10.4-12.4-16c-3.7-6.1-8.7-6.2-14.6-5.1c0,14.1,0,27.9,0,41.7c3.8,0,7.2,0,10.9,0C40.3,169.7,40.3,163.1,40.3,156.5z
	 M230.9,160.2c0-3.9,0-7,0-10.7c-3.7,0-7.2,0.2-10.6-0.1c-1.6-0.2-3-1.5-4.5-2.2c1.4-0.7,2.9-1.9,4.3-1.9c8.4-0.2,16.9-0.1,25.5-0.1
	c0-3.8,0-7,0-10.3c-14.6,0-28.8,0-43,0c0,14.2,0,27.9,0,41.7c14.7,0,29,0,43.2,0c0-3.8,0-7.3,0-10.8c-0.9-0.1-1.6-0.3-2.2-0.3
	c-8.2,0-16.3,0.1-24.5-0.2c-1.2,0-2.3-1.5-3.4-2.4c1.2-1,2.3-2.6,3.5-2.7C223,159.9,226.8,160.2,230.9,160.2z M152.3,176.6
	c4.2,0,8.3,0,13,0c0-4.9,0-9.6,0-14.6c5.5,0,10.5,0,15.4,0c16.2,0,17.2-1.1,16.9-17.3c-0.2-7-3-10-10-10.2c-9.1-0.2-18.3,0-27.4,0
	c-2.6,0-5.2,0-7.9,0C152.3,148.9,152.3,162.5,152.3,176.6z M250.2,136.3c6.8,6.1,13.6,12.2,20.5,18.4c-7,7.7-13.3,14.6-19.8,21.7
	c10,2,18.4,1.3,23.6-8.3c0.9-1.7,2.6-3,4.6-5.2c7,11.5,16.3,17.5,30.3,13c-7.5-7.3-14.7-14.3-22.3-21.7c6.1-6.5,11.8-12.7,17.6-18.9
	c-12.1-4-19.8,1.5-26.3,12.1C272.4,134.9,262.8,132.5,250.2,136.3z M147.6,177c-0.7-1.5-1.1-2.6-1.6-3.5
	c-6.8-11.8-13.6-23.6-20.4-35.4c-3.1-5.3-12.3-5.2-15.3,0.1c-6.7,11.7-13.3,23.4-19.9,35.1c-0.6,1-0.9,2.2-1.6,3.7
	c4,0,7.3,0.2,10.6-0.1c1.4-0.1,3.5-1.1,3.8-2.1c1.9-5.8,6.1-6.6,11.3-6c2.8,0.3,5.7,0.3,8.5,0c4-0.4,6.5,0.9,8.1,4.7
	c0.6,1.5,2.6,3.2,4.1,3.4C139.1,177.3,143.1,177,147.6,177z"/>
<path fill="#FFFFFF" d="M137.3,330.9c-4.6,7.6-8.9,15-13.5,22.2c-3.6,5.7-5.5,6.3-11.9,4c-2-0.7-3.8-1.9-5.4-2.7
	C116.8,346.6,126.8,338.9,137.3,330.9z"/>
<path fill="#FFFFFF" d="M184.7,145.5c0,2,0,3.5,0,5.4c-6.4,0-12.6,0-19.2,0c0-1.7,0-3.4,0-5.4C171.7,145.5,177.9,145.5,184.7,145.5z
	"/>
<path fill="#FFFFFF" d="M122.1,157.3c-3.4,0-5.8,0-9.1,0c1.6-3,3-5.5,4.6-8.6C119.2,151.6,120.4,154,122.1,157.3z"/>
</svg>
