<?xml version="1.0" encoding="utf-8"?>
<!-- Generator: Adobe Illustrator 18.1.1, SVG Export Plug-In . SVG Version: 6.00 Build 0)  -->
<!DOCTYPE svg PUBLIC "-//W3C//DTD SVG 1.1//EN" "http://www.w3.org/Graphics/SVG/1.1/DTD/svg11.dtd">
<svg version="1.1" id="Layer_1" xmlns="http://www.w3.org/2000/svg" xmlns:xlink="http://www.w3.org/1999/xlink" x="0px" y="0px"
	 viewBox="0 0 962.9 108.8" enable-background="new 0 0 962.9 108.8" xml:space="preserve">
<path fill="#FFFFFF" d="M70.1,70.5c-1.2-6.3-2.3-12.4-3.6-19.4c2.5,0,4.3,0,6,0c15.5,0,31,0.3,46.5-0.2c7.2-0.3,14.5-2,21.5-3.8
	c5.8-1.5,10.2-5.5,12.8-11.1c2.5-5.6,1.2-10.3-4.3-12.9c-2.9-1.4-6.3-2.3-9.5-2.7c-19-2.2-37.6-1.1-55,7.9
	c-9.7,5.1-15.6,13.1-19.4,23.5c-6.1,17.1-13,33.9-19.6,50.8c-0.4,1-2.1,2.2-3.2,2.2c-14,0.2-27.9,0.1-42.2,0.1c0.1-1.2,0-2,0.2-2.8
	c5.1-16,9.9-32.1,15.4-48c7.6-22.3,24.9-34.7,45.6-43.3c15.7-6.5,32.2-9.5,49.1-10.2c21.3-1,42.7-1.5,63.7,2.6
	c6.8,1.3,13.6,4.4,19.7,7.9c6.9,4.1,9.3,10.9,7.3,19.1c-3.5,14.2-13.6,22.5-25.9,28.6c-15.1,7.6-31.4,11.1-48.2,11.6
	C108.2,70.9,89.6,70.5,70.1,70.5z"/>
<path fill="#FFFFFF" d="M600.3,71.9c-1.5,6.7,0.2,11.7,6.9,14.1c7.1,2.6,14.7,4.2,22.2,4.8c18.8,1.5,37.1-1.8,55.1-7
	c1.6-0.4,3.1-0.8,5.7-1.4c-2.2,6.6-3.9,12.3-6,18c-0.4,1-1.8,1.9-2.9,2.2c-31.1,6.6-62.3,8.8-93.6,1.9c-6.1-1.3-12.1-3.8-17.5-6.9
	C558.3,91,554.8,81,558.9,68c4.2-13.4,13.6-22.2,25.4-28.9c17.6-9.9,36.9-13.1,56.6-13.8c13.8-0.5,27.7-0.1,41.1,3.9
	c5,1.5,10,3.9,14.2,7c8.6,6.4,9.6,16.3,1.7,23.6c-5.1,4.7-11.6,8.8-18.2,10.7c-25.5,7.3-51.4,11.2-77.4,1.6
	C601.6,71.9,600.9,72,600.3,71.9z M639.2,40.1c0,0.2-0.1,0.5-0.1,0.7c-1.8,0-3.7-0.1-5.5,0c-8.7,0.8-17.3,2.3-23.9,8.4
	c-1.9,1.8-3.7,5.3-3.3,7.6c0.3,1.7,4.2,3.8,6.6,3.9c10.9,0.8,21.8,1.3,32.7,1.1c3.9-0.1,8.2-1.8,11.4-4.1c6.5-4.7,5.3-12.4-2.3-14.9
	C649.7,41.3,644.4,41,639.2,40.1z"/>
<path fill="#FFFFFF" d="M744.3,71.9c-1.4,6.7,0.2,11.6,6.5,14c7.1,2.6,14.7,4.4,22.2,5c18.9,1.6,37.4-1.8,55.6-7
	c1.5-0.4,3.1-0.8,5.6-1.4c-2.2,6.6-4,12.4-6,18c-0.4,1-1.9,1.9-3,2.1c-30.9,6.5-61.9,8.8-93.1,2c-6.4-1.4-12.8-4-18.4-7.2
	c-11.4-6.5-14.7-16.4-10.9-29c4.1-13.6,13.6-22.6,25.6-29.3c17.6-9.9,36.9-13,56.6-13.8c13.8-0.5,27.7-0.2,41,3.9
	c5.3,1.6,10.5,4.3,14.9,7.7c7.6,5.9,8.7,15.1,1.8,21.8c-5,5-11.5,9.6-18.2,11.5c-25.6,7.5-51.7,11.5-77.9,2
	C745.9,72,745.1,72,744.3,71.9z M783.1,40.1c0,0.2-0.1,0.4-0.1,0.7c-1.8,0-3.7-0.2-5.5,0c-8.8,0.9-17.6,2.3-24.3,8.8
	c-1.8,1.7-3.3,5.1-2.9,7.3c0.3,1.7,3.9,3.6,6.2,3.8c11.2,0.7,22.4,1.2,33.7,1.1c3.4,0,7.4-1.5,10.1-3.6c2.4-1.9,4.2-5.6,4.6-8.6
	c0.4-3.9-3.1-6.1-6.6-7C793.2,41.5,788.1,40.9,783.1,40.1z"/>
<path fill="#FFFFFF" d="M318,108.8c-14.8-0.5-28.3-1.2-41.1-6.1c-19.6-7.5-25.7-23-16.1-41.6c2.4-4.7,5.7-9,9.3-12.8
	c8.8-9.1,19.9-14.4,31.9-17.7c24.7-6.7,49.6-7.6,74.5-1.5c4.8,1.2,9.5,3.3,13.7,5.8c11.7,6.9,15.5,17.2,11.9,30.3
	c-3.9,14.1-13.3,23.5-25.7,30.4c-13,7.3-27.2,10.6-41.9,12.1C328.7,108.3,322.7,108.5,318,108.8z M322.3,91.4
	c20.9-0.3,33.1-9.5,37.4-28.4c2.4-10.6-1.8-17.4-12.4-19.2c-4.7-0.8-9.6-1.1-14.4-0.9c-17.1,0.8-29.8,12.2-32.9,28.9
	c-1.9,10.3,2.2,16.4,12.5,18.4C315.6,90.8,319,91,322.3,91.4z"/>
<path fill="#FFFFFF" d="M496.6,104.7c3.8-12,7.5-23.2,10.9-34.5c1.1-3.6,2.2-7.4,2.5-11.1c0.6-8.3-3.2-13.6-11.3-15.2
	c-21.1-4.2-41.2,1.3-48.6,26.4c-3,10.2-6.8,20.2-9.9,30.3c-0.9,3-2.2,4.2-5.5,4.2c-12.5-0.2-25-0.1-37.3-0.1
	c-0.3-0.5-0.6-0.9-0.5-1.1c4.6-14,8.7-28.3,14-42c3.9-10.3,12.1-17.6,21.8-22.6c32.1-16.5,65.6-18,99.8-8c10.1,3,18.4,9.2,20.5,20.4
	c0.8,4.6,0.5,9.7-0.8,14.2c-3.6,12.1-7.9,24-12.1,35.9c-0.5,1.3-2.4,2.9-3.6,3C523.5,104.8,510.5,104.7,496.6,104.7z"/>
<path fill="#FFFFFF" d="M962.9,26.1c-1.7,4.9-3,9.5-5,13.9c-0.6,1.3-2.9,2.5-4.4,2.6c-9.8,0.3-19.7,0.1-29.5,0.2
	c-18,0.2-29.3,8.4-35.2,25.5c-4,11.6-7.8,23.3-11.6,35c-0.1,0.3-0.3,0.6-0.9,1.5c-6.5,0-13.5,0-20.4,0c-7,0-14,0-21.4,0
	c0.7-2.5,1.2-4.6,1.8-6.6c2.6-8.1,5.5-16,7.8-24.2C851,49.1,868,35.4,892.3,30c22.6-5.1,45.6-5.1,68.6-4.5
	C961.3,25.4,961.7,25.7,962.9,26.1z"/>
<path fill="#FFFFFF" d="M192,104.7c7.1-21.9,13.9-43,20.8-64.1c0.4-1.1,1.9-2.6,2.9-2.6c12.9-0.2,25.8-0.1,39.4-0.1
	c-3.2,10-6.2,19.3-9.2,28.6c-3.7,11.5-7.4,23.1-11.1,34.6c-0.7,2.1-1.2,3.8-4.2,3.7C217.9,104.6,205.3,104.7,192,104.7z"/>
</svg>
