<?xml version="1.0" encoding="utf-8"?>
<!-- Generator: Adobe Illustrator 18.1.1, SVG Export Plug-In . SVG Version: 6.00 Build 0)  -->
<!DOCTYPE svg PUBLIC "-//W3C//DTD SVG 1.1//EN" "http://www.w3.org/Graphics/SVG/1.1/DTD/svg11.dtd">
<svg version="1.1" id="Layer_1" xmlns="http://www.w3.org/2000/svg" xmlns:xlink="http://www.w3.org/1999/xlink" x="0px" y="0px"
	 viewBox="0 0 312.9 52.9" enable-background="new 0 0 312.9 52.9" xml:space="preserve">
<path fill="#FFFFFF" d="M95.4,3.6c2,0.2,4,0.4,5.9,0.7c7.5,1.1,10.8,3.6,11.6,8.9c1,7.1-2,13.6-8.1,16.2c-3,1.3-6.4,1.7-9.7,2
	c-3.1,0.3-4.8,1.4-5.3,4.7c-0.4,3.3-0.9,6.7-2.1,9.7c-0.6,1.5-3,2.2-4.6,3.3c-0.7-1.5-2.2-3.2-2-4.5c2-12,4.4-23.9,6.5-35.8
	C88.5,3.9,91.6,3.4,95.4,3.6z M92.5,22.6c0.5,0.6,1.1,2.4,2.2,2.7c5.3,1.5,11.7-4.5,10.7-9.9c-0.7-3.7-3.4-4.9-6.9-5.2
	c-3.4-0.3-4.1,2-4.6,4.6C93.5,17.1,93.1,19.3,92.5,22.6z"/>
<path fill="#FFFFFF" d="M170.4,50c-1.4-0.3-4-0.4-6.2-1.5c-1.3-0.6-2.5-2.9-2.4-4.3c0.1-2.8,2.2-2.8,4.4-1.8c1,0.5,2.2,0.8,3.3,1
	c5.2,1,9.4-0.7,11-4.6c2.1-5.1-1.2-7.8-4.8-10.2c-3.6-2.4-7.5-4.4-8.4-9.3C166,11,170.4,4.6,178.7,3.6c3.4-0.4,7-0.1,10.3,0.6
	c1,0.2,2,2.6,2.1,4c0,0.6-2.2,1.8-3.5,1.9c-2.4,0.2-5.1-0.8-7.3-0.2c-2,0.5-4.5,2.3-5,4c-0.5,1.7,0.9,4.3,2,6.1
	c0.8,1.3,2.5,2.1,3.9,3.1c7.2,5.2,9.3,10.5,6.8,17.4C185.8,46.7,179.5,50.3,170.4,50z"/>
<path fill="#FFFFFF" d="M223.2,29.9c0.1,9.7-4.7,16.9-12.9,19.2c-9.7,2.8-17-1.9-18.3-11.9c-1.2-9.7,4.8-19.1,13.5-21.2
	C215.9,13.6,223.2,19.3,223.2,29.9z M217.3,29.6c-2.1-2.9-3.5-6.5-6-7.8c-3.9-2-7.7,0.6-9.3,4.3c-1.6,3.6-2.5,7.9-2.4,11.8
	c0,2,2.6,5.1,4.6,5.6c2.2,0.6,6-0.4,7.4-2.2C214,38.3,215.2,34.2,217.3,29.6z"/>
<path fill="#FFFFFF" d="M162,28.1c0,6.3-0.5,6.9-6.7,6.9c-3.8,0-7.7-0.1-11.5,0c-4.2,0.1-5.5,2.2-3.1,5.6c1.2,1.7,3.5,3,5.6,3.6
	c2.1,0.5,4.6-0.2,6.9-0.2c1.2,0,2.4,0.4,3.5,0.6c-0.8,1.3-1.2,3.4-2.3,3.8c-8.9,3.5-19.5,1-21.6-9.7c-1.4-7.4,2.9-17.4,9.4-21.1
	c4.7-2.7,9.6-3,14.3-0.4C160.9,19.4,162.1,23.5,162,28.1z M147.3,30.7c6.9-0.9,8.2-1.5,7.9-4.6c-0.3-3.3-2.3-5-5.6-5
	c-3.8,0-9,3.5-8.1,6.3C142,29,145.3,29.6,147.3,30.7z"/>
<path fill="#FFFFFF" d="M254.9,27.9c-1,5.1-2,11.7-3.7,18.1c-0.3,1.3-2.8,2-4.3,3c-0.7-1.4-2.2-2.9-2-4.3c0.5-4.8,1.8-9.5,2.4-14.2
	c0.5-3.6,1.2-8-3.8-9c-4.5-0.9-7.3,2.3-8.4,6.2c-1.7,5.7-2.6,11.7-4.2,17.4c-0.4,1.5-1.7,3.3-3.1,3.8c-2,0.8-4.2,0.1-3.6-2.9
	c1.7-8.8,3.3-17.6,5.1-26.4c0.7-3.3,3.1-3.2,5.9-2.7c1.7,0.3,3.8,0.6,5.3,0C248.9,13.5,255.2,17.6,254.9,27.9z"/>
<path fill="#FFFFFF" d="M257.1,36.3c0.8-4.1,1.7-10.3,3.2-16.4c0.3-1.4,2.6-2.2,4-3.3c0.8,1.5,2.4,3.1,2.3,4.6
	c-0.5,4.9-1.6,9.8-2.4,14.8c-0.5,3.3-0.4,6.6,3.4,7.8c3.8,1.2,6.8-0.9,8-4.2c2-5.6,3.1-11.5,4.7-17.2c0.4-1.4,0.4-3.3,1.3-4.2
	c1-0.9,2.9-1.3,4.3-1.3c0.6,0,1.7,2.1,1.5,3.1c-1.6,8.7-3.3,17.3-5.1,25.9c-0.7,3.7-3.2,3.6-6.1,2.9c-1.5-0.4-3.4-0.9-4.6-0.3
	C262.9,52.1,256.9,48.1,257.1,36.3z"/>
<path fill="#FFFFFF" d="M304.3,20.2c-2.2,1.1-4.4,2.3-6.5,3.4c1.3,2.1,2.1,4.7,3.9,6.2c6.2,5.4,7.8,9.9,4.5,14.9
	c-3.1,4.7-13,7-18.1,4.1c-0.9-0.5-1.4-2.4-1.4-3.6c0-0.6,2-1.7,2.9-1.5c3.8,0.8,8.1,2.3,10.2-2.1c2.1-4.5-2.7-6.1-5.3-8.4
	c-2.9-2.5-5.1-5.3-4.3-9.4c0.9-4.5,4-6.8,8.2-7.7c2.1-0.4,4.4-0.8,6.4-0.3c1.9,0.5,3.5,2.1,5.2,3.2c-1.5,1-3.1,2-4.6,3
	C305,21.4,304.6,20.8,304.3,20.2z"/>
<path fill="#FFFFFF" d="M20.9,50.2c-0.8,0.5-2.1,1.9-3.5,1.9c-5.7,0.2-9.9-2.8-12-8c-1.4-3.5-0.9-5.8,1.9-9.1
	c3.6-4.1,5.1-10.1,7.5-15.3c0.4-0.9,0.7-1.8,1-2.8c0.3,0.9,0.9,1.7,1,2.6C18.2,29.4,19.4,39.1,20.9,50.2z"/>
<path fill="#FFFFFF" d="M111.1,46.6c1.8-9.7,3.3-18.5,5.1-27.3c0.2-1.1,1.8-2.4,3-2.7c0.9-0.3,3,0.6,3.2,1.3
	c0.8,3.3,1.9,2.3,3.5,0.6c0.8-0.8,1.8-1.9,2.8-2c1.7-0.1,3.4,0.5,5.1,0.8c-0.9,1.8-1.6,5-2.6,5.1c-8.5,1-9.9,7.3-11.2,13.9
	c-0.7,3.4-1.1,7-2.2,10.2c-0.4,1.2-2.7,2-4.2,2.2C112.7,49,111.7,47.2,111.1,46.6z"/>
<path fill="#FFFFFF" d="M58.4,42.6c0.4-4.5,0.5-9,1.3-13.4c0.3-2.1,1.9-3.9,2.9-5.9c2.1,1.7,5.5,3.2,5.9,5.2
	c1.4,6.4,1.2,13.1-2.7,18.8c-1.3,1.9-4.2,2.8-6.4,4.1c-0.3-2.1-0.7-4.2-1-6.3c-0.1-0.8,0.1-1.7,0.1-2.5
	C58.5,42.6,58.5,42.6,58.4,42.6z"/>
<path fill="#FFFFFF" d="M52.5,10.3c-0.7-8.7,0-9.3,6.7-7.5c5.6,1.5,10.1,8.1,9.5,14.2c-0.1,0.6-1.6,1.7-2,1.5
	c-4.8-2.1-8.3-0.7-10.9,3.7c-0.3,0.5-0.9,0.7-1.4,1.1c-0.3-0.6-0.7-1.1-0.8-1.7C53.2,17.2,52.8,12.9,52.5,10.3z"/>
<path fill="#FFFFFF" d="M20.5,6.1C20.2,2.8,22,1.7,25,1.7c3,0,4.3,1.6,3.9,4.4c-1.2,9-2.5,18-3.7,27c-0.1,0.5-0.3,0.9-0.4,1.4
	c-0.1-0.5-0.4-0.9-0.4-1.4C23,24.1,21.7,15.1,20.5,6.1z"/>
<path fill="#FFFFFF" d="M36.6,4.1c1-0.6,2.5-2.2,4.1-2.2c1.3,0,3.7,2.1,3.6,3c-0.8,8.6-2.1,17.1-3.3,25.6c-0.1,0.4-0.4,0.8-0.7,1.2
	c-0.2-0.4-0.6-0.7-0.7-1.1C38.6,22.3,37.6,13.9,36.6,4.1z"/>
<path fill="#FFFFFF" d="M35.9,48c0.4,3-0.5,5.1-3.9,4.9c-3.3-0.2-3.5-2.5-3.2-5c1.1-8.2,2.2-16.5,3.4-24.7c0.1-0.6,0.4-1.2,0.5-1.9
	c0.1,0.6,0.2,1.3,0.3,1.9C34,31.5,35,39.8,35.9,48z"/>
<path fill="#FFFFFF" d="M50.9,50.4c-0.7,0.6-2.4,2.6-3.4,2.3c-1.5-0.4-3.8-2.6-3.7-3.7c0.8-8.1,2.2-16.1,3.4-24.2
	c0.1-0.5,0.5-1,0.7-1.5c0.2,0.6,0.5,1.2,0.6,1.9C49.3,33.1,50,41,50.9,50.4z"/>
<path fill="#FFFFFF" d="M2.6,22.7c1.5-5.2,2.7-10.5,4.6-15.5c0.5-1.5,2.9-2.2,4.4-3.3c0.1,1.6,0.5,3.2,0.1,4.7
	c-1.4,6-2.9,11.9-4.6,17.8c-0.4,1.3-1.6,2.3-2.4,3.5c-0.4-1.5-0.8-2.9-1.1-4.4c-0.2-0.8,0-1.7,0-2.5C3.3,22.9,2.9,22.8,2.6,22.7z"/>
</svg>
