<?xml version="1.0" encoding="utf-8"?>
<!-- Generator: Adobe Illustrator 18.1.1, SVG Export Plug-In . SVG Version: 6.00 Build 0)  -->
<!DOCTYPE svg PUBLIC "-//W3C//DTD SVG 1.1//EN" "http://www.w3.org/Graphics/SVG/1.1/DTD/svg11.dtd">
<svg version="1.1" id="Layer_1" xmlns="http://www.w3.org/2000/svg" xmlns:xlink="http://www.w3.org/1999/xlink" x="0px" y="0px"
	 viewBox="0 0 406 125.6" enable-background="new 0 0 406 125.6" xml:space="preserve">
<path fill="#FFFFFF" d="M407,4c-2,0-4,0.1-6,0.1c-130.8,0-261.5,0-392.3,0c-2,0-4.1,0-6.1,0c0-0.5-0.1-1-0.1-1.5
	c0.9-0.3,1.8-0.8,2.8-0.9c1.3-0.2,2.7,0,4,0c130.3,0,260.5,0,390.8,0c2.3,0,4.6,0.2,7,0.4C407,2.7,407,3.3,407,4z"/>
<path fill="#FFFFFF" d="M407,123c-1.8,0.1-3.7,0.2-5.5,0.2c-131,0-262,0-393,0c-2,0-4-0.2-6-0.4c0-0.5,0-0.9,0-1.4
	c1.3-0.2,2.6-0.5,4-0.5c133.2,0,266.3,0,399.5,0c0.3,0,0.7,0,1,0.1C407,121.7,407,122.3,407,123z"/>
<path fill="#FFFFFF" d="M86.5,8.3c12.5,0,24.9-0.2,37.4,0.1c9.5,0.2,19.1,0.2,28.3,2c6.4,1.2,13.4,4.1,18.2,8.5
	c11.9,10.8,9.5,30.5-4.1,39.2c-3.5,2.2-7.4,3.7-11.6,5.8c7.3,11.1,14.6,22.3,21.9,33.6c0.3,0,0.6-0.1,0.9-0.1c0-5.6,0-11.2,0-16.7
	c3.8-1.5,5.2-0.5,6.2,2.8c3,9.7,7.3,18.6,16.4,24.2c6.8,4.2,14.3,5.4,22.1,4.4c7.1-0.9,12.9-6.1,14.5-12.7
	c1.7-7.5-0.3-13.3-7.7-17.2c-9.5-5.1-19.6-9.2-29.2-14.1c-9.4-4.8-17.5-11.2-19.7-22.4c-3.8-19.1,7.2-33.6,27.2-36.5
	c10.3-1.5,20.2,0.1,30,3.2c3.9,1.2,7.4,2.1,9.8-2.6c0.5-1,3-1,5.1-1.7c0,11.8,0,22.7,0,33.5c-3.3,1.4-4.5-0.1-5.9-2.8
	c-2.4-4.9-5-9.8-8.3-14.1c-6.8-8.7-16.2-11.8-27.1-10.5c-7,0.8-11.6,4.8-13.2,11.1c-1.4,5.8,0.5,11.4,6.5,14.9
	c6.7,3.9,14,6.9,21,10.3c5.4,2.6,10.9,5,16,8.1c11.3,7,17.4,17.4,15.3,30.7c-2,13.1-10.5,21.6-23.1,25.7c-11.9,3.9-23.9,3.5-36,0.5
	c-2.8-0.7-5.5-0.5-8.5-0.1c-9.3,1.2-18.9,0.6-28.4,0.3c-1.1,0-2.5-1.9-3.3-3.2c-9-14.4-18-28.8-27-43.2c-1.4-2.2-2.6-4.4-6-2.7
	c0,11.2-0.2,22.5,0.1,33.8c0.2,6.2,3.5,9.4,9.6,11.3c1.3,0.4,2.4,1.6,3.6,2.4c-1.3,0.6-2.5,1.8-3.8,1.9c-15.6,0.1-31.3,0.1-48-1.1
	c1-1,1.8-2.6,3-2.9c7.8-2.1,10.6-5.2,10.7-13.4c0.1-24.5,0.1-49,0-73.5c0-7.6-2.9-10.7-10.2-12.7c-1.3-0.3-2.3-1.6-3.5-2.5
	C85.9,9.4,86.2,8.8,86.5,8.3z M124.1,61.6c6.5-1.4,12.3-2.3,17.8-4.1c4.8-1.6,8.2-5.6,8.7-10.7c0.7-6.4,1.2-13,0.2-19.3
	c-1.6-10.2-12.1-16.2-21.9-13.1c-1.9,0.6-4.5,3.2-4.5,5C124,33.1,124.1,46.7,124.1,61.6z"/>
<path fill="#FFFFFF" d="M3.6,7.5c22.4,0.8,45,0.4,67.2,2.9c19.2,2.2,28.4,16.8,24.2,34.2C92.6,54.7,85.4,61,76,64
	c-7,2.2-14.6,2.7-22,3.6c-3.7,0.4-7.5,0.1-11.8,0.1c0,12.1-0.4,23.5,0.1,35c0.3,5.9,5.3,7.9,10.4,9.2c1.4,0.3,2.5,1.6,3.7,2.4
	c-0.2,0.5-0.5,1-0.7,1.5c-17.4,0-34.8,0-52.2,0c-0.3-0.3-0.6-0.6-1-0.9c1-1,1.9-2.5,3.1-2.8c8.1-2.2,10.4-5,10.4-13.3
	c0-24,0.1-48,0.1-72c0-9.5-1.6-11.5-10.6-14c-1.2-0.3-2.1-1.8-3.2-2.7C2.8,9.1,3.2,8.3,3.6,7.5z M42.1,62c4.7-0.6,8.7-0.9,12.5-1.7
	c7.1-1.4,11.8-5.6,12.5-13c0.6-5.8,1.2-11.7,0.7-17.4c-1-10.6-8.9-16.8-19.2-15.9c-3.5,0.3-6.4,1.7-6.4,5.6
	C42,33.5,42.1,47.3,42.1,62z"/>
<path fill="#FFFFFF" d="M317.9,68.3c1.5,8.9,0,10.9-7.7,10.9c-8.2,0-16.3-0.1-24.5,0.1c-2.9,0.1-4.5-0.9-5.9-3.5
	c-2.2-4.1-4.7-7.9-7.7-11.7c-0.1,5.1-3,10.4,2.8,14.9c-5,0-9.4,0-13.9,0c4.5-4.8,4.3-28.8-0.6-33.8c5.8,0,11.3-0.2,16.7,0.1
	c6.2,0.3,9.3,2.7,10.3,7.6c1.1,5.2-1.9,8-6.8,10.1c3,4.6,5.9,9,9,13.2c0.5,0.8,1.8,1.4,2.7,1.4c0.6,0,1.6-1.3,1.6-2.1
	c0.1-8.8,0.2-17.6-0.1-26.5c0-1.2-1.8-2.4-3.1-3.9c1.4,0,2.5,0,3.6,0c7.1,0,14.3,0,21.8,0c0,3.3,0,6.3,0,9.3c-1.8-5.1-5-8-10.9-7.5
	c-2.7,0.2-3.9,1.1-3.8,3.9c0.1,3.1,0,6.3,0,9.6c5.3,0.8,6.4-2.9,8.3-7.5c0,6.4,0,11.5,0,17.9c-1.4-4.6-2.6-8.4-8.2-7.9
	c0,4-0.3,7.9,0.2,11.7c0.1,1,2.4,2.5,3.8,2.6C311.7,77.5,315.4,74,317.9,68.3z M271.5,61.3c0.6,0.5,1.1,0.9,1.7,1.4
	c2-1.6,5.1-2.8,5.7-4.8c0.9-2.7,0.2-6.1-0.6-8.9c-0.3-1-3.1-1.9-4.6-1.8c-0.8,0.1-1.9,2.4-2,3.7C271.3,54.4,271.5,57.9,271.5,61.3z"
	/>
<path fill="#FFFFFF" d="M364.8,42.3c-8.8,0-17.2,0-25.1,0c0.8-2.3,2.2-4.5,2.3-6.7c0.3-6.8,0.1-13.7,0.1-20.5c0-2.6-0.1-5.7-3.6-5
	c-1.4,0.3-3.2,3.1-3.3,4.9c-0.5,5.6,0,11.3-0.3,17c-0.3,7.7-4.8,11.4-13,11.1c-7.7-0.3-11.7-4.3-11.7-11.8c0-5.2,0.2-10.3-0.1-15.5
	c-0.1-2.3-1.2-4.5-1.9-7c3.8,0,8.4,0,12,0c-0.8,2.5-2.1,5-2.3,7.7c-0.4,5.1-0.2,10.3-0.1,15.5c0.1,5.5,2.4,8.6,6.2,8.8
	c4.2,0.2,7.7-2.7,8.2-7.7c0.5-6.5,0.5-13,0.3-19.5c-0.1-1.5-2-3-3.1-4.7c7.7,0,15.7,0,22.9,0c-0.8,2.1-2.4,4.3-2.5,6.5
	c-0.3,6.8,0.1,13.7-0.2,20.5c-0.2,4.2,1.9,5.2,5.5,4.9c5.9-0.6,8.1-5.2,10.2-9.9c0.5,0.1,1,0.3,1.5,0.4
	C366.1,34.9,365.5,38.5,364.8,42.3z"/>
<path fill="#FFFFFF" d="M300.4,117.1c-4.1-9.8-7.6-18.5-11.2-27.1c-0.3,0-0.7,0-1,0.1c0,7.3-0.2,14.6,0.2,21.8
	c0.1,1.3,2.1,2.6,3.2,3.9c-2.4,0-5.1,0-7.8,0c3.8-4.9,3.7-29.7-0.1-33.4c0.3-0.1,0.5-0.4,0.8-0.4c9.2-0.3,9.2-0.3,12.6,8.4
	c1.8,4.5,3.6,8.9,5.8,14.5c2.2-5.4,4.1-9.9,5.9-14.4c3.8-9.5,3.8-9.5,14.3-8.1c-4.5,4-4.4,29.3,0.5,33.4c-4.9,0-9.3,0-12.8,0
	c0.7-2.5,1.8-5,1.9-7.6c0.3-6.3,0.1-12.6-0.9-19.3C308.1,97.8,304.5,106.9,300.4,117.1z"/>
<path fill="#FFFFFF" d="M383.7,97.2c4.1,0,7.2,0,11.1,0c-0.9-5.2,2.5-10.8-3.5-15.1c4.8,0,9.3,0,13.9,0c-4.5,4.4-4.5,29.7,0.2,33.7
	c-4.7,0-9.1,0-14.1,0c6.3-4.2,2.5-10.1,3.7-15.5c-3.8,0-7.1,0-11.1,0c0.8,5-2.6,10.7,3,15.4c-4.6,0-9.1,0-13.5,0
	c4.2-4.2,4.2-29.8-0.5-33.4c4.9,0,9.4,0,14,0C381.4,86.4,384.6,91.9,383.7,97.2z"/>
<path fill="#FFFFFF" d="M346.9,44.8c6.8,0.3,13,0.1,18.9,1.1c8.7,1.4,13,8.4,12.3,18.1c-0.6,8.5-6.3,14.5-14.4,15
	c-5.3,0.3-10.6,0.1-16.1,0.1C352,74.9,351.9,49.5,346.9,44.8z M358,61.9c0,3.5,0,7,0,10.5c0.1,4.7,2.5,6.4,6.6,4.1
	c1.8-1,4.1-3.2,4.2-5.1c0.5-6,0.6-12.2-0.2-18.1c-0.3-2.1-3.3-4.4-5.5-5.7c-2.8-1.5-5.2-0.6-5.1,3.4C358,54.6,358,58.2,358,61.9z"/>
<path fill="#FFFFFF" d="M260.4,8.8c6.3,0,12.6-0.4,18.8,0.1c5.2,0.4,7.9,4.2,7.9,9.2c0,4.6-2.8,7.8-7.9,8.8c-2.6,0.5-5.3,0.6-8.4,1
	c1.1,4.8-2.5,10.3,4.3,14.2c-5.3,0-9.7,0-14.1,0C265,36.8,264.6,13.2,260.4,8.8z M271,25.5c0.5,0.3,0.9,0.7,1.4,1
	c2.1-1.5,5.3-2.7,5.9-4.6c0.9-2.9,0.3-6.4-0.6-9.4c-0.3-1.1-3.3-1.7-5.1-1.8c-0.4,0-1.5,2.6-1.6,4.1C270.8,18.3,271,21.9,271,25.5z"
	/>
<path fill="#FFFFFF" d="M344.6,55.6c-2.9-7.6-5.2-9.3-11.1-8.4c-1.3,0.2-3.1,2.2-3.3,3.5c-0.5,3.1-0.2,6.3-0.2,9.7
	c5.4,1.2,6.4-3,8.6-7.4c0,6.3,0,11.3,0,17.9c-1.8-4.8-3-8.6-8.6-8c0,2.9,0,5.8,0,8.8c0,5.4,1.3,6.9,6.4,5.2c3.7-1.3,6.9-4.3,10-6.4
	c1.9,4.9-0.4,8.7-6.7,8.7c-6.6,0-13.3,0-20.2,0c4.5-4.7,4.3-29.9-0.2-33.7c0.5-0.1,1-0.4,1.4-0.4c7.8,0,15.6,0,23.8,0
	C344.6,48.4,344.6,51.4,344.6,55.6z"/>
<path fill="#FFFFFF" d="M289.1,42.3c-2.7,0-5.5,0-7.4,0c4.4-11.4,8.9-22.9,13.9-35.9c5.1,12.8,9.7,24.3,14.3,35.7
	c-3.4,0-7.8,0-12.1,0c2.1-2.5,2.3-8.1-0.1-8.5c-3.3-0.5-7.5-0.5-10.1,1.1C285.6,36.1,284.3,40.5,289.1,42.3z M297.4,30.5
	c-1.5-3.9-2.8-7.1-4.5-11.7c-1.6,4.7-2.7,8-4,11.7C291.8,30.5,294.2,30.5,297.4,30.5z"/>
<path fill="#FFFFFF" d="M280.9,82.6c0,2.7,0,5.7,0,10.2c-1.4-2.3-1.9-3.6-2.7-4.5c-1.7-1.7-3.4-4.1-5.5-4.6c-1.8-0.4-4.9,0.9-6,2.4
	c-0.7,1,0.7,4.3,2,5.7c1.8,1.8,4.6,2.6,6.9,3.9c6,3.4,8.2,8.2,6.3,13.6c-1.9,5.2-7.8,7.8-14.1,6.4c-2.2-0.5-4.5-0.8-7.3-1.3
	c0-2.8,0-6.4,0-11.6c1.4,2.8,1.8,4.7,2.9,5.8c2.2,2.1,4.5,4.4,7.3,5.2c1.5,0.5,5-1.5,5.6-3.1c0.6-1.6-0.7-4.7-2.2-6.2
	c-1.9-1.9-4.9-2.7-7.3-4.2c-5.2-3.1-7.1-8.2-5.2-13.2c1.8-4.5,6.7-6.6,12.5-5.5C276.1,82.2,278.3,82.3,280.9,82.6z"/>
<path fill="#FFFFFF" d="M363.9,115.9c-5.1,0-9.9,0-13.6,0c0.8-2.5,2.2-5.1,2.3-7.8c0.3-8,0.1-15.9,0.1-24c-5.7-0.8-7.7,2.7-9.5,6.9
	c0-2.8,0-5.6,0-8.8c8.7,0,17.5,0,26.6,0c0,3,0,5.8,0,8.7c-1.9-4-4-7.3-9.8-7c0,9.3-0.1,18.5,0.2,27.7
	C360.3,113,362.4,114.3,363.9,115.9z"/>
<path fill="#FFFFFF" d="M339.9,115.9c-3.7,0-8.5,0-13.4,0c5-4.3,5.1-29.8-0.2-33.6c5.1,0,9.8,0,13.4,0c-0.7,2.3-2.1,4.8-2.2,7.5
	c-0.3,6.3-0.3,12.7,0,19C337.5,111,338.9,113.3,339.9,115.9z"/>
</svg>
