<?xml version="1.0" encoding="utf-8"?>
<!-- Generator: Adobe Illustrator 18.1.1, SVG Export Plug-In . SVG Version: 6.00 Build 0)  -->
<!DOCTYPE svg PUBLIC "-//W3C//DTD SVG 1.1//EN" "http://www.w3.org/Graphics/SVG/1.1/DTD/svg11.dtd">
<svg version="1.1" id="Layer_1" xmlns="http://www.w3.org/2000/svg" xmlns:xlink="http://www.w3.org/1999/xlink" x="0px" y="0px"
	 viewBox="0 0 991.8 210.3" enable-background="new 0 0 991.8 210.3" xml:space="preserve">
<path fill="#FFFFFF" d="M492.7,182.5c-42.5,0-85,0-127.5,0c-9.4,0-11-1.7-11-11.1c0-5-0.1-10,0-15c0.1-6.8,2.2-8.9,9.2-8.9
	c29.7,0,59.3,0,89,0c38.3,0,76.6,0,115,0c8.1,0,9.4-1.2,9.4-9.2c0-6.5,0.1-13,0-19.5c-0.1-5.3-1.9-7.1-7.2-7.3c-2.2-0.1-4.3,0-6.5,0
	c-55.8,0-111.6,0-167.5,0c-24.9,0-37.4-9.8-42.3-34.1c-2.9-14.3-2.7-28.9,0.9-43.1c5.2-20.5,18.3-30.1,41.2-30.1
	c39.7,0,79.3,0,119,0c44,0,88,0,132,0c9.3,0,11.2,1.9,11.2,11c0,5.8,0.1,11.7,0,17.5c-0.1,5.4-2.5,7.9-7.9,8.2c-2.5,0.1-5,0-7.5,0
	c-66,0-132,0-197.9,0c-8,0-8.9,0.9-8.9,8.9c0,5.8,0,11.7,0,17.5c0,6.6,1.3,8,7.9,8c17,0,34,0,51,0c40,0,80,0,120,0
	c28.1,0,40.7,10.3,45.2,37.9c2,12.4,1.8,24.9-1,37.2c-5.1,22-17.9,32.1-40.5,32.1C576,182.6,534.3,182.5,492.7,182.5z"/>
<path fill="#FFFFFF" d="M258.7,182.5c0,5.7-0.1,10.8,0,15.9c0.1,3.4-0.9,4.8-4.5,4.8c-17.7-0.1-35.3-0.1-53,0
	c-3.3,0-4.4-1.5-4.4-4.5c0.1-5.1,0-10.3,0-16.2c-2.5,0-4.6,0-6.7,0c-43.3,0-86.7-0.2-130,0.1c-20.1,0.1-33.9-8.9-42.5-26.6
	c-6.9-14.2-9.5-29.4-10.4-44.9c-1.4-22.9-1.2-45.7,5.7-67.8c1.9-6.3,4.8-12.5,8.1-18.1C29.3,11,42.2,4.3,58.4,4.2
	c75.3-0.1,150.6-0.2,226,0.2c9.1,0,18.6,1.8,27.2,4.9c12.2,4.3,18,14.4,18,27.3c0.1,37.8,0.1,75.7,0,113.5
	c0,13.7-7.2,24.4-20.6,28.7c-7,2.3-14.6,3.1-22,3.6C277.8,183,268.5,182.5,258.7,182.5z M257.9,145.5c4.8,0,9.1,0,13.4,0
	c8.9,0,11.6-2.8,11.6-11.6c0-27.8,0-55.7,0-83.5c0-8.8-2.8-11.6-11.7-11.6c-59,0-118,0-177,0c-8.5,0-11.5,3-11.5,11.3
	c0,28,0,56,0,84c0,8.4,3,11.4,11.5,11.4c32.2,0,64.3,0,96.5,0c1.8,0,3.5,0,5.5,0c0-5.9,0.1-11.1,0-16.2c-0.1-3,0.8-4.5,4.3-4.5
	c17.7,0.1,35.3,0.1,53,0c3.6,0,4.6,1.4,4.5,4.7C257.7,134.7,257.9,139.8,257.9,145.5z"/>
<path fill="#FFFFFF" d="M853.9,182.5c-38.5,0-77-0.6-115.5,0.2c-30,0.7-44.9-13-52.6-40.2c-6.8-23.9-6.6-48.4-4.5-72.9
	c1.1-13.5,3.8-26.7,9.7-39c8.4-17.5,22.3-26.4,41.7-26.4c81.8,0,163.6,0,245.4,0c6.3,0,8,1.8,8,8c0,6.5,0,13,0,19.5
	c0,7.1-1.3,8.4-8.5,8.4c-44.8,0-89.6,0-134.5,0c-25.3,0-50.6,0-76,0c-7.9,0-9.4,1.5-9.5,9.2c0,29.3,0,58.6,0,88c0,8,1.6,9.5,9.7,9.5
	c69.8,0,139.6,0,209.4,0c8.4,0,9.2,0.8,9.2,9.1c0,5.7,0,11.3,0,17c0,8.7-0.9,9.6-9.8,9.6C935.6,182.5,894.7,182.5,853.9,182.5z"/>
</svg>
