<?xml version="1.0" encoding="utf-8"?>
<!-- Generator: Adobe Illustrator 18.1.1, SVG Export Plug-In . SVG Version: 6.00 Build 0)  -->
<!DOCTYPE svg PUBLIC "-//W3C//DTD SVG 1.1//EN" "http://www.w3.org/Graphics/SVG/1.1/DTD/svg11.dtd">
<svg version="1.1" id="Layer_1" xmlns="http://www.w3.org/2000/svg" xmlns:xlink="http://www.w3.org/1999/xlink" x="0px" y="0px"
	 viewBox="0 0 358.8 127" enable-background="new 0 0 358.8 127" xml:space="preserve">
<path fill="#FFFFFF" d="M359,13.2c0,33.4,0,66.9,0,100.3c-0.7,0.6-1.5,1.2-2.2,1.8c-2.9,2.5-5.8,4.9-8.6,7.4c-1.7,1.5-3.4,3-5.1,4.4
	c-92.6,0-185.3,0-277.9,0c-0.3-0.7-0.5-1.5-0.9-2.2c-1.8-4-3.6-8.1-5.4-12.1c-2.1-4.9-4.3-9.8-6.4-14.7c-1.7-3.9-3.4-7.8-5.1-11.7
	c-2.1-4.9-4.2-9.8-6.3-14.6c-1.5-3.4-3-6.8-4.5-10.4c0.8,0.1,1.5,0.2,2.1,0.2c3.8-0.1,7.5-0.3,11.1-1.2c2.3-0.6,4.7-1.1,6.9-2.1
	c3.2-1.4,6-3.5,8.2-6.2c1.4-1.8,2.6-3.6,3.5-5.7c1-2.2,1.7-4.5,1.8-7c0.2-3.2,0-6.3-1.1-9.4c-2.2-6.3-6.2-10.9-12.3-13.6
	c-2.9-1.3-5.8-2-9-1.9c-4,0.1-7.9,0-11.9,0c-0.4,0-0.8,0-1.3,0c0,37.6,0,75.1,0,112.6c-11.5,0-23,0-34.6,0c0-42.3,0-84.6,0-127
	c23.2,0,46.4,0,69.6,0c0.1,0.1,0.2,0.2,0.4,0.2c5.2,1.1,10.4,2.2,15.4,4.5c6.5,3,12,7,16,13c3.2,4.8,4.5,10.2,4.7,15.9
	c0.1,2-0.2,4-0.2,6c0,4.4-1.5,8.4-3.2,12.3c-1.9,4.3-5.1,7.6-8.6,10.5c-4.8,4-10.3,6.3-16.3,7.7c-0.7,0.2-1.4,0.4-2.3,0.6
	c3.1,5.9,6.1,11.6,9.1,17.3c2,3.9,4,7.7,6,11.6c2.6,5.1,5.2,10.1,7.8,15.2c0.5,0.9,0.9,1.2,2,1.2c78.8,0,157.7,0,236.5,0
	c1.4,0,2.3-0.5,3.2-1.3c1.9-1.6,3.8-3.2,5.7-4.8c1.3-1,2.1-2.1,2.1-4C348,77.4,348,48.6,348,19.9c0-0.3,0-0.6,0-1
	c0-0.2-0.2-0.5-0.4-0.7c-2.3-1.8-4.6-3.6-6.8-5.5c-1.4-1.2-2.9-1.6-4.7-1.6c-72.5,0-145,0-217.5,0c-4,0-8.1,0-12.1,0
	c-0.6,0-1.2-0.2-1.7-0.5c-3.2-2.1-6.3-4.2-9.5-6.3c-2-1.4-4-2.8-5.9-4.1c84.7,0,169.4,0,254.2,0c0.8,0.8,1.6,1.6,2.4,2.3
	c3.7,3.1,7.4,6.1,11.1,9.1C357.6,12.2,358.3,12.7,359,13.2z"/>
<path fill="#FFFFFF" d="M249.1,61.5c0-13.7,0-27.5,0-41.3c4.8,0,9.5,0,14.4,0c0,0.4,0,0.8,0,1.2c0,24.9,0.1,49.8-0.1,74.7
	c0,3.5-1.9,6.4-4.6,8.8c-2.2,1.9-4.8,2.7-7.6,2.3c-1.6-0.2-3.2-0.7-4.6-1.4c-3.3-1.6-5.1-4.7-7.1-7.6c-4.9-7.4-9.8-14.8-14.7-22.3
	c-4.5-6.8-9-13.7-13.5-20.5c-1-1.6-2-3.1-3.2-4.7c0,18.4,0,36.7,0,55.2c-4.4,0-8.8,0-13.3,0c0-0.4,0-0.9,0-1.4c0-22.4,0-44.9,0-67.3
	c0-3.1,0.8-5.9,2-8.7c1.3-3,3.1-5.5,5.7-7.4c1.1-0.8,2.5-1.5,3.8-1.6c2.8-0.4,5.6-0.4,8.5,0.5c4.4,1.4,6.9,4.8,9.4,8.2
	c4.2,5.6,8.3,11.3,12.5,16.9c3.6,4.9,7.2,9.8,10.8,14.7c0.4,0.5,0.8,1.1,1.2,1.6C248.9,61.5,249,61.5,249.1,61.5z"/>
<path fill="#FFFFFF" d="M105.3,105.6c1.2-3.6,2.3-7.1,3.4-10.6c2.6-8.2,5.2-16.5,7.8-24.7c1.5-4.7,3-9.5,4.5-14.2
	c2-6.4,4.1-12.8,6.1-19.2c0.7-2.3,1.2-4.6,2.4-6.7c1.5-2.6,3.4-4.7,5.7-6.5c3.1-2.3,6.6-3.5,10.4-3.5c3.9,0,7.7,0.9,10.9,3.1
	c2.8,1.9,4.8,4.6,5.9,8c3.5,10.9,7.2,21.8,10.9,32.7c3.1,9.4,6.3,18.7,9.5,28.1c1.5,4.5,3.1,9,4.6,13.6c-0.5,0-0.9,0.1-1.2,0.1
	c-9.2,0-18.4,0-27.6,0c-0.9,0-1.3-0.3-1.6-1.1c-1.3-4.3-2.7-8.6-4.1-12.8c-0.2-0.7-0.5-0.9-1.2-0.9c-8.9,0-17.8,0-26.6,0
	c-0.6,0-0.9,0.1-1.1,0.9c-1.1,4.3-2.2,8.6-3.3,12.9c-0.1,0.3-0.5,0.8-0.8,0.8C115.1,105.6,110.3,105.6,105.3,105.6z M149.5,80.9
	c-3.7-12.1-7.4-24-11.1-36.2c-3.5,12.1-6.9,24.1-10.4,36.2C135.2,80.9,142.3,80.9,149.5,80.9z"/>
<path fill="#FFFFFF" d="M305.1,56.4c9.4,0,18.8,0,28.2,0c0,4.4,0,8.7,0,13.1c-9.4,0-18.7,0-28.2,0c0,0.5-0.1,0.9-0.1,1.3
	c0,4.8,0,9.6,0,14.4c0,4.4,2.5,7.1,6.4,8.5c0.8,0.3,1.7,0.3,2.6,0.3c7.2,0,14.5,0,21.7,0c0.4,0,0.9,0,1.4,0c0,3.9,0,7.8,0,11.8
	c-0.5,0-0.9,0-1.4,0c-13.1,0-26.2,0.1-39.3,0c-3.7,0-7.3-1.2-10.6-3.1c-3.4-1.9-5.9-4.6-7.8-7.9c-1.5-2.7-2.9-5.5-2.9-8.7
	c-0.1-14.9-0.2-29.9-0.2-44.8c0-5.1,2.1-9.6,5.4-13.5c2.5-3,5.6-5.2,9.3-6.5c2.6-0.9,5.3-1.3,8.1-1.3c12.8,0.1,25.5,0,38.3,0
	c0.5,0,0.9,0,1.5,0c0,3.9,0,7.8,0,11.8c-0.4,0-0.8,0-1.3,0c-7.2,0-14.4,0-21.6,0c-3,0-5.7,0.9-7.5,3.3c-1,1.3-1.8,2.9-1.9,4.4
	c-0.2,5.4-0.1,10.9-0.1,16.3C305,56,305.1,56.2,305.1,56.4z"/>
</svg>
