<?xml version="1.0" encoding="utf-8"?>
<!-- Generator: Adobe Illustrator 18.1.1, SVG Export Plug-In . SVG Version: 6.00 Build 0)  -->
<!DOCTYPE svg PUBLIC "-//W3C//DTD SVG 1.1//EN" "http://www.w3.org/Graphics/SVG/1.1/DTD/svg11.dtd">
<svg version="1.1" id="Layer_1" xmlns="http://www.w3.org/2000/svg" xmlns:xlink="http://www.w3.org/1999/xlink" x="0px" y="0px"
	 viewBox="0 0 425 304.2" enable-background="new 0 0 425 304.2" xml:space="preserve">
<path fill="#FFFFFF" d="M136.6,97.5c-9.9,3-19.1,5.6-28.2,8.5c-1.6,0.5-3,2-4.1,3.3c-2.7,3.1-5.1,6.4-7.7,9.6c-1.5,1.8-3,1.8-4.7,0
	c-3.8-4.1-7.7-8.1-11.8-12.4c-7.7,4.8-15.8,8.4-25,9.2c-18.1,1.7-35.4-1.2-51.3-10.3c-4.7-2.7-4.7-3.4-1.9-7.9
	C5,92.7,7.9,87.5,11,82.3c0.9-1.5,1.9-2.9,3.1-4.7c3.6,2.7,6.9,5.3,10.4,7.7c9,6.1,18.8,7.7,29.3,5.1c1.3-0.3,2.6-0.9,3.8-1.6
	c6.4-3.6,7.3-11.4,0.9-15.1c-5.3-3.1-11.4-4.7-17.3-6.8c-6.2-2.2-13.1-3.1-18.6-6.4C11,53.7,7.6,45.1,13,33.1
	c3.9-8.5,7.7-17.1,12-25.4c4.1-7.9,5.6-8.6,14.3-7.1c14.3,2.4,28.5,3,42.9,1.2c2.7-0.3,5.4,0,8.7,0c-0.4,2-0.6,3.7-1.2,5.2
	c-2,5.9-4.3,11.7-6.2,17.7c-0.8,2.6-2.2,3.3-4.7,3c-6.1-0.8-12.1-1.7-18.2-2.4c-3.6-0.4-7.2-0.5-10.8-0.4c-5.6,0.2-8.7,3.4-9.2,8.9
	c-0.5,5,2.3,8.9,7.5,10.1c3.6,0.8,7.4,1.1,11.1,1.8C75,48.9,87.1,56.2,91.7,72.7c0,0.2,0.3,0.3,0.9,0.8
	c5.6-14.5,12.9-28.3,14.6-43.8c0.4-3.9-1-8.1-1.9-12c-0.8-3.2-2.2-6.3-3.6-10.4c7-2.2,13.7-4.4,20.5-6.3c3-0.9,4.2,1.5,5.1,3.8
	c3.9,10.1,7.9,20.2,11.5,30.5c6.2,17.9,14.8,34.7,23.5,51.4c0.2,0.3,0.5,0.5,1.3,1.2c1-6,2.2-11.6,2.9-17.2
	c1.4-12.7,2.5-25.4,3.9-38c0.3-2.8-0.5-4-3.5-4.3c-3.2-0.3-6.4-1.1-9.6-1.9c-3.2-0.8-3.2-1.7-1.3-4.3c2.9-3.9,5.7-7.9,8.1-12.1
	c1.3-2.3,2.7-3.7,5.5-3.4c14.3,1.5,28.5,0.3,42.5-2.8c4-0.9,7.2,0.1,10.4,2.6c16.5,12.8,18.3,31.8,4.4,47.3
	c-1.5,1.6-3.2,3.1-5.2,5.1c7.5,2.2,11.6,7.4,15.8,13.2c0.2-6.9,0.5-13.8,0.7-20.7c0.3-11.9,0.6-23.7,0.7-35.6c0-3,1-4.2,3.9-4.7
	c7.6-1.2,15.2-2.7,22.9-4c1.3-0.2,2.7-0.2,5-0.3c-3.4,25.8-7.3,51-6.3,76.6c0.3,0.1,0.6,0.3,1,0.4c3-5.7,6.4-11.2,8.8-17
	c3.7-9,6.7-18.3,10-27.4c2.8-7.9,2.2-15.6-0.7-23.4c-3.8-10.3-2.4-8.4,5.3-10.8c3.7-1.2,7.3-2.6,10.9-4c4.4-1.6,5.4-1.4,7.3,2.9
	c2.5,5.6,4.9,11.2,6.8,17c6,17.9,12.9,35.4,22,52.1c0.5,0.8,1,1.7,1.8,3.2c0.3-1.4,0.4-2,0.5-2.6c2-20.3,1-40.4-4.4-60.2
	c-1.5-5.6-1.1-5.7,4.7-7.3c5.9-1.6,11.8-3.1,17.7-4.8c2.1-0.6,3-0.4,3.6,2.1c0.6,3.1,1.5,6.4,3.2,9c12.6,19.1,23.3,39.3,33.8,60.3
	c0.2-1.2,0.4-2,0.4-2.7c0.7-18.3-0.1-36.5-5.4-54.2c-1.1-3.7,0-5.5,3.6-6.5c5.7-1.5,11.3-3.3,16.9-5c2.8-0.9,4.4,0.1,5.6,2.7
	c6.1,13.5,7.8,27.9,7.6,42.5c-0.3,20-3.8,39.5-8.6,58.8c-0.6,2.6-1.9,4.1-4.5,4.8c-5.8,1.5-11.5,3.3-17.3,4.8
	c-5.2,1.4-5.2,1.3-7.4-3.5c-6.1-12.9-12.2-25.7-18.3-38.6c-0.8-1.7-1.8-3.3-3.1-5.8c-0.2,1.7-0.4,2.4-0.4,3.2
	c-0.1,12.5-0.2,25-0.2,37.5c0,2.9-1.2,4.3-3.9,4.9c-7.3,1.6-14.6,3.2-21.9,5c-3.3,0.8-5.1,0.3-4.6-3.6c0.1-0.4-0.2-0.9-0.2-1.4
	c-5.8,2.1-6,2.2-9.4-3.4c-3.2-5.3-6.1-10.9-9.3-16.6c-0.9,0.3-1.8,0.5-2.6,1c-7.7,4.2-15.8,7.3-24.5,9c-1.5,0.3-3.1,1.7-4.1,3.1
	c-3,4-5.8,8.3-9.5,13.6c-3.8-4.6-6.8-8.4-9.8-12.1c-0.4,0.2-0.8,0.3-1.2,0.5c0.1,3.6-2.1,3.9-4.6,4.4c-8.6,1.5-17.2,3.1-25.8,4.8
	c-3.4,0.7-4.3-0.5-3.7-3.7c0.4-2.2,0.6-4.4,0.9-6.8c-3.4,2.2-6.5,4.6-9.9,6.3c-11,5.6-23,6.9-35.1,5.8c-8.7-0.8-17.3-2.5-25.9-3.9
	c-1.2-0.2-2.2-1.3-3.5-2.1c-7.1,4.7-7.1,4.7-11.6-3.4c-2.5-4.6-5.1-9.2-7.7-13.7C136.8,97.6,136.4,97.3,136.6,97.5z M191.7,96.4
	c6.4,1.3,11.7,0.7,16.5-2.6c9-6.2,8.2-17.9-1.6-22.6c-2.2-1.1-4.7-1.8-7.1-2.3c-4-0.8-5,0.1-5.3,4.3c-0.1,1.2-0.3,2.5-0.4,3.7
	C193.1,83.3,192.4,89.7,191.7,96.4z M194.1,53.1c2.7-1.1,4.9-1.6,6.7-2.7c4.6-2.9,7.4-7.3,8.7-12.6c0.9-3.6,0.6-6.7-2.6-9
	c-2.7-1.9-9.5-2-11.9-0.1c-0.4,0.3-0.9,1-0.9,1.5C194,37.5,194.1,44.9,194.1,53.1z M297.5,79.1c3.7-1.3,6.4-2.2,9.4-3.3
	c-1.5-3.5-2.8-6.5-4.2-9.6c-0.3,0.1-0.7,0.1-1,0.2C300.5,70.2,299.2,74.2,297.5,79.1z M122.3,66.3c-0.3,0-0.6,0-0.9,0
	c-1.3,4-2.7,8-4.2,12.7c3.6-1.4,6.2-2.4,9.1-3.4C124.9,72.4,123.6,69.3,122.3,66.3z"/>
<path fill="#FFFFFF" d="M362.5,131.5c0.6-0.3,0.8-0.5,1.1-0.5c7.5-0.8,7.5-0.7,7.6,6.7c0.6,77.6-51.5,144.2-127,162.1
	c-91.1,21.7-183.9-39.7-199-131.8c-1.7-10.5-1.8-21.4-2.4-32.1c-0.3-5.1,0-5.1,5.1-5c1,0,2,0.1,3.2,0.1
	C50,187.3,71,233.1,116.6,266.5c31.5,23,67.2,32.1,105.9,28.2c41.2-4.2,75.7-22.3,102.7-53.7C352.1,209.5,364,172.8,362.5,131.5z"/>
<path fill="#FFFFFF" d="M59.5,131c2.6,0,4.9,0,7.5,0c-1.4,49.4,16.4,89.9,55.5,120.2c26.3,20.4,56.7,29.7,90,28.3
	c38.9-1.7,71.9-17.1,98.1-46c26.2-28.9,37.7-63.3,36.1-102.4c2.7,0,5.1,0,7.5,0c4.1,35.5-10.3,91.3-59,127.6
	c-48.6,36.2-114.9,39-167,6.4C75.7,232.4,55.5,175.7,59.5,131z"/>
<path fill="#FFFFFF" d="M75.4,131.1c2.3,0,4.6,0,7.4,0c-1.4,45.9,15.5,83.4,53.1,110.3c25.5,18.3,54.4,25.3,85.6,21.6
	c32.7-3.9,59.8-18.7,80.9-44c21.1-25.3,30.1-54.8,28.4-87.9c2.7,0,5.1,0,7.5,0c4.3,33.9-10.4,83.6-52.6,115
	c-44.5,33-105.5,34.7-151.9,3.9C86.2,218.5,71.3,166,75.4,131.1z"/>
<path fill="#FFFFFF" d="M315.2,131c1.4-0.1,2.5-0.2,3.6-0.2c1.4,0,2.7,0,4,0c4.2,28.7-7.7,74.1-46.4,103
	c-38.1,28.4-92.3,30.4-132.5,4.4c-43-27.8-56.9-74.5-53.1-107.1c2.5,0,5,0,7.9,0c-1.7,38.5,11.8,70.5,42.3,94.5
	c20.8,16.4,44.9,23.6,71.4,22.4C273.3,245.2,321,190.8,315.2,131z"/>
<path fill="#FFFFFF" d="M298.9,130.8c1.9,0,3.5,0.1,5,0c2.5-0.2,3.5,0.6,3.6,3.3c1,24.5-5.1,46.9-20.3,66.3
	c-24.2,30.9-56.3,44.4-95,38.8c-38.3-5.6-64.7-27.8-79.4-63.5c-5.3-12.9-7-26.5-6.6-40.4c0.1-3.7,1.4-4.9,4.8-4.4
	c1.2,0.2,2.4,0.1,3.9,0.2c-1.9,30.5,7.7,56.5,30.3,77.1c17.6,16,38.5,23.9,62.2,23.7c26.9-0.2,49.6-10.4,67.7-30.3
	C293.3,181.7,300.7,158,298.9,130.8z"/>
<path fill="#FFFFFF" d="M282.3,131.1c3.1,0,5.7,0,8.7,0c1.3,10,0.4,19.6-1.9,29.1c-9.5,39-45.4,65.7-86,64.1
	c-39.3-1.5-73-31.2-79.4-70.3c-1-6.2-0.8-12.7-1.2-19c-0.2-3.5,1.3-4.7,4.7-4.2c1.3,0.2,2.7,0,4.4,0c-2.1,26.1,5.9,48.2,25.2,65.5
	c14.3,12.9,31.4,19.2,50.7,19c22.5-0.3,41.3-8.9,56.2-25.6C278.5,173.1,284.2,153.3,282.3,131.1z"/>
<path fill="#FFFFFF" d="M261.9,131.3c0.4-0.2,0.5-0.3,0.6-0.4c7.2-0.6,7.3-0.6,7.5,6.6c0.8,31.8-22.1,59.6-52.1,64.4
	c-34.3,5.4-64.2-16.1-71.7-46c-1.6-6.6-1.7-13.6-2-20.4c-0.2-4.8,0.1-4.8,5.2-4.7c0.9,0,1.7,0.1,3,0.1c-2.2,20.5,3.7,37.9,19.6,51.2
	c11.1,9.4,24.1,13.4,38.6,12.7C238.4,193.5,266.6,167.7,261.9,131.3z"/>
<path fill="#FFFFFF" d="M169,130.9c-2.5,15,1.1,27.7,12.2,37.8c8.2,7.5,18,10.6,29,9.8c18.7-1.4,39.3-18.4,34.8-47.2
	c2.6,0,5.1,0,7.9,0c1.6,6.5,1.2,13-0.3,19.5c-4.9,21.9-25.6,37.2-48.5,36c-22.4-1.2-41.3-19-43.6-41.2c-0.4-3.7,0-7.5-0.1-11.2
	c-0.1-2.8,1.2-3.8,3.9-3.5C165.7,131,167.2,130.9,169,130.9z"/>
<path fill="#FFFFFF" d="M185.5,130.9c-3.3,11.6-1.1,21,8.5,27.8c7.6,5.4,16,5.8,24,1.1c11-6.4,13.7-16.5,10.3-28.9
	c2.7,0,5.1-0.2,7.3,0.1c0.8,0.1,1.8,1.6,2,2.6c4.1,19.6-11.2,38.1-31.2,37.7c-18.4-0.4-32.3-15.8-30.9-34.2c0.5-6.1,0.5-6.1,6.5-6.2
	C183.1,130.9,184.1,130.9,185.5,130.9z"/>
<path fill="#FFFFFF" d="M198,139.8c0-4.8,4-8.8,8.8-8.9c4.8-0.1,9.1,4.2,9.1,9c0,4.8-4.1,8.9-8.8,8.9C202,148.8,198,144.8,198,139.8
	z"/>
</svg>
