<?xml version="1.0" encoding="utf-8"?>
<!-- Generator: Adobe Illustrator 18.1.1, SVG Export Plug-In . SVG Version: 6.00 Build 0)  -->
<!DOCTYPE svg PUBLIC "-//W3C//DTD SVG 1.1//EN" "http://www.w3.org/Graphics/SVG/1.1/DTD/svg11.dtd">
<svg version="1.1" id="Layer_1" xmlns="http://www.w3.org/2000/svg" xmlns:xlink="http://www.w3.org/1999/xlink" x="0px" y="0px"
	 viewBox="0 0 1580.4 122.7" enable-background="new 0 0 1580.4 122.7" xml:space="preserve">
<path fill="#FFFFFF" d="M1426.1,122.2c0-2.1,0-3.5,0-5c0-37.2,0.1-74.3-0.1-111.5c0-4.4,1.2-5.7,5.6-5.6c34.3,0.2,68.7-0.2,103,0.3
	c7.8,0.1,15.9,1.9,23.2,4.7c13.7,5.3,19.7,16.8,20.5,31c0.8,14.4-5.7,25-18.1,31.9c-2.6,1.4-5.4,2.5-8.8,4.1
	c9.6,16.5,19.2,32.9,29.1,49.9c-2,0.2-3.2,0.4-4.4,0.4c-13.3,0-26.7-0.1-40,0.1c-3.3,0-5.1-1.1-6.8-3.8
	c-7.5-12.8-15.2-25.4-22.7-38.2c-1.7-3-3.8-4.2-7.2-4.1c-4.5,0.2-9,0.2-13.5,0c-3.5-0.2-4.6,1.2-4.6,4.7c0.2,12-0.1,24,0.1,36
	c0.1,4-0.9,5.5-5.2,5.5c-15-0.2-30-0.1-45-0.1C1429.7,122.5,1428.3,122.3,1426.1,122.2z M1481.3,52.9c11.1,0,21.6,0.4,32-0.1
	c7.5-0.4,12.3-6.4,12.2-13.4c-0.1-7-4.1-11.6-11.5-11.8c-9.8-0.4-19.7-0.2-29.5,0c-1.1,0-3.1,2-3.1,3.1
	C1481.2,37.8,1481.3,45,1481.3,52.9z"/>
<path fill="#FFFFFF" d="M668.4,1.1c16.7,0,33,0,49.3,0c3.4,0,2.9,2.5,2.9,4.6c0,12.2,0,24.3,0,36.5c0,6.9,0,6.9,6.7,6.9
	c10.7,0,21.3-0.2,32,0.1c4.3,0.1,5.8-1,5.7-5.5c-0.3-12.8,0-25.6-0.2-38.5c-0.1-4,1.2-5.1,5.1-5.1c14.8,0.2,29.6,0.2,44.5,0
	c3.7,0,4.9,1.2,4.9,4.9c-0.1,37.6-0.1,75.3-0.1,112.9c0,2.1,0.5,4.6-2.9,4.6c-17.1,0-34.3,0-52.1,0c0-15.1,0-29.8,0-44.8
	c-14.9,0-29.1,0-44,0c0,6.4,0,12.7,0,18.9c0,7.3,0.1,14.7-0.1,22c0,1.3-1.6,3.7-2.5,3.8c-16.3,0.2-32.6,0.2-49.2,0.2
	C668.4,81.9,668.4,41.9,668.4,1.1z"/>
<path fill="#FFFFFF" d="M437.5,122.2c-1.4,0.1-3,0.3-4.6,0.3c-14.8,0-29.7-0.1-44.5,0.1c-3.6,0-5.7-1.2-7.8-4.1
	c-14.6-20.9-29.3-41.7-44-62.5c-1.3-1.9-2.7-3.7-5-6.8c0,25,0,48.7,0,73.2c-8.1,0-15.5,0.1-22.9-0.1c-0.7,0-1.8-1.4-2-2.3
	c-0.4-1.4-0.2-3-0.2-4.5c0-36.2,0-72.3,0-108.5c0-7,0-7,7.2-7c14.5,0,29,0.2,43.5-0.1c5-0.1,7.8,1.7,10.4,5.7
	C381.5,27,395.5,48,409.5,69.1c1.1,1.6,2.2,3.2,4.3,6.1c0.1-3.2,0.3-4.9,0.3-6.6c0-21.2,0.1-42.3-0.1-63.5c0-4,1.2-5.3,5.1-5.1
	c5.2,0.3,10.3-0.2,15.5,0.2c1.3,0.1,3.6,2.1,3.6,3.2c0.1,39.1,0.1,78.3,0,117.4C438.2,121.2,437.9,121.5,437.5,122.2z"/>
<path fill="#FFFFFF" d="M590.8,73.5c0-1.7,0-3.5,0-5.2c0-20.8,0.1-41.6-0.1-62.5c0-4.3,1.1-6.1,5.6-5.7c4.3,0.4,8.7,0.3,13,0
	c4.1-0.3,5.5,1.1,5.5,5.3c-0.2,17.7-0.1,35.3-0.1,53c0,19.5-0.1,39,0.1,58.5c0,4.2-0.9,5.8-5.5,5.8c-15-0.3-30-0.2-45-0.1
	c-3,0-4.8-1-6.5-3.5c-15-21.4-30.1-42.7-45.2-64.1c-1-1.4-2.1-2.8-4.2-5.5c-0.3,3.4-0.5,5.3-0.5,7.2c0,20-0.1,40,0.1,60
	c0,4.6-1.4,6.2-6,5.9c-6.1-0.4-12.2-0.1-18.6-0.1c-0.1-2.2-0.3-3.6-0.3-5.1c0-37.3,0-74.6-0.1-111.9c0-4.1,1-5.5,5.3-5.4
	c15.8,0.2,31.7,0.2,47.5,0c3.4,0,5.4,1,7.3,3.9c14.3,21.9,28.7,43.6,43.2,65.4c1,1.5,2.1,2.9,3.1,4.4
	C589.8,73.7,590.3,73.6,590.8,73.5z"/>
<path fill="#FFFFFF" d="M869,121.7c0-1.7,0-3.3,0-5c0-37,0.1-74-0.1-111c0-4.3,1-5.7,5.5-5.7c33.2,0.2,66.3,0.2,99.5,0
	c4.2,0,6.1,0.9,5.8,5.5c-0.4,5.5-0.3,11,0,16.5c0.2,4.1-1,5.5-5.3,5.4c-14.8-0.2-29.7,0.1-44.5-0.2c-4.8-0.1-6,1.5-5.8,6
	c0.3,6.3,0.1,12.6,0.1,19.4c2.2,0.1,3.9,0.3,5.7,0.3c14.8,0,29.7,0.2,44.5-0.1c4.3-0.1,5.5,1.4,5.3,5.4c-0.3,4.5-0.2,9,0,13.5
	c0.2,3.5-1.1,4.6-4.6,4.6c-15.5-0.2-31-0.1-46.5-0.1c-1.2,0-2.3,0.1-3.9,0.2c0,7.3,0,14.5,0,22.2c1.7,0.1,3.5,0.2,5.3,0.2
	c14.7,0,29.3,0.2,44-0.1c4.8-0.1,6,1.6,5.7,6c-0.3,4.6-0.1,9.3-0.1,14c0,2.4-0.8,3.7-3.4,3.7c-35.2-0.1-70.3-0.1-105.5-0.2
	C870.4,122.3,870.1,122.1,869,121.7z"/>
<path fill="#FFFFFF" d="M259.2,53.3c0,7.8,0,15.1,0,23c-18.4,0-36.5,0-54.9,0c0,7.8,0,15,0,22.7c18.4,0,36.3,0,55.1,0
	c0,7.3,0.1,14.2-0.1,21.1c0,0.8-1.5,1.8-2.5,2.2c-1,0.4-2.3,0.1-3.5,0.1c-32.8,0-65.6,0-98.5,0c-1.7,0-3.3,0-5.5,0
	c-0.1-1.9-0.3-3.5-0.3-5.1c0-37.3,0-74.6-0.1-112c0-4.1,1.1-5.4,5.3-5.4c33.3,0.2,66.6,0.1,100,0c4.1,0,5.7,1.1,5.4,5.3
	c-0.3,5.6-0.3,11.3,0,17c0.2,3.8-1,5.2-5,5.1c-15-0.2-30,0.1-45-0.2c-4.4-0.1-6,1.3-5.7,5.6c0.2,4.8,0.2,9.7,0,14.5
	c-0.2,4.2,1,5.8,5.6,5.7c15.2-0.3,30.3-0.1,45.5-0.1C256.2,53,257.5,53.2,259.2,53.3z"/>
<path fill="#FFFFFF" d="M1382.1,53c0,7.9,0,15.2,0,23c-1.8,0.1-3.6,0.3-5.3,0.3c-14.7,0-29.3,0.3-44-0.1c-5.3-0.1-6.7,1.7-6.3,6.5
	c0.3,3.6,0.3,7.3,0,11c-0.3,4.1,1.1,5.5,5.3,5.4c14.8-0.2,29.7-0.1,44.5-0.1c1.8,0,3.6,0,6.3,0c0,7.3,0.1,14.1-0.2,20.8
	c0,0.9-2.4,2.5-3.7,2.5c-7.3,0.3-14.7,0.1-22,0.1c-26,0-52,0-78,0c-2,0-3.9,0-6.4,0c-0.1-2.1-0.3-3.6-0.3-5.2
	c-0.1-37-0.1-74-0.4-110.9c0-4.7,1.1-6.3,6.1-6.3c33,0.2,66,0.2,98.9,0c4.7,0,6,1.5,5.8,6c-0.4,6.8-0.1,13.6-0.1,21.1
	c-2,0.1-3.8,0.3-5.5,0.3c-14.8,0-29.7,0.2-44.5-0.1c-4.7-0.1-6.2,1.6-5.9,6c0.3,4.6,0.4,9.3,0,14c-0.4,4.8,1.6,5.9,6,5.8
	c14.5-0.2,29-0.1,43.5-0.1C1377.8,53,1379.6,53,1382.1,53z"/>
<path fill="#FFFFFF" d="M1122.1,99c10.2,0,19.8,0.1,29.4-0.1c4.5-0.1,10.1,1.8,12.7-3.3c2.6-5.1-2.9-8-5.3-11.3
	c-10.5-14.8-21.2-29.5-32.3-43.8c-6.6-8.5-5.8-16.9-1.6-25.7c4-8.7,10.5-14.2,20.4-14.3c26.6-0.1,53.3,0,79.9,0
	c2.9,0,4.2,0.9,4.1,4.1c-0.2,5.2-0.2,10.3,0,15.5c0.1,3.3-1.1,4.3-4.3,4.3c-10.5-0.2-21-0.2-31.5,0.1c-2.2,0.1-5.7,1.1-6.2,2.5
	c-0.7,1.9,0.3,5.2,1.6,7c12.2,16.4,24.7,32.6,37,49c4.4,5.9,7.3,12.4,5.7,20c-2.5,11.7-12.3,19.5-24.9,19.6c-14.2,0.2-28.3,0-42.5,0
	c-12.3,0-24.7-0.1-37,0.1c-4,0.1-5.7-0.9-5.5-5.3C1122.3,111.6,1122.1,105.6,1122.1,99z"/>
<path fill="#FFFFFF" d="M46.4,122.7c-13.5,0-27-0.1-40.5,0.1c-3.8,0-5.5-1-5.2-5.1c0.3-4.6,0.3-9.3,0-14c-0.2-3.9,1.4-4.8,5-4.7
	c9.7,0.2,19.3,0.3,29-0.1c2.8-0.1,6.2-1.5,7.9-3.6c0.9-1-1-5.1-2.5-7.2C28,71.4,15.7,54.8,3.4,38.2c-3.8-5.1-4.2-10.7-2.5-16.6
	C4.6,8.5,12.4,0,28.1,0.4c23.6,0.6,47.3,0.2,71,0.2c8.8,0,8.8,0,8.8,9c0,2.8-0.2,5.7,0.1,8.5c0.5,4.7-1.1,6.5-6.1,6.3
	c-9.8-0.4-19.7-0.3-29.5,0c-2.3,0.1-6.1,1-6.4,2.3c-0.5,2.3,0.2,5.6,1.7,7.6c12.1,16.3,24.6,32.3,36.8,48.6
	c11.4,15.3,5.9,33.3-11.8,38.7c-2.8,0.9-5.9,1-8.9,1C71.4,122.7,58.9,122.7,46.4,122.7z"/>
<path fill="#FFFFFF" d="M1081.9,122.5c-6.9,0-13.6,0-20.2,0c-11.2,0-22.3-0.1-33.5,0.1c-3.3,0-4.3-1.1-4.3-4.3
	c0.1-37.8,0.1-75.6,0-113.4c0-3.4,0.9-4.8,4.5-4.7c16.5,0.1,33,0.1,49.5,0c3,0,4.5,0.7,4.5,4.2c-0.1,38.5-0.1,76.9-0.1,115.4
	C1082.3,120.3,1082.2,121,1081.9,122.5z"/>
</svg>
