<?xml version="1.0" encoding="utf-8"?>
<!-- Generator: Adobe Illustrator 18.1.1, SVG Export Plug-In . SVG Version: 6.00 Build 0)  -->
<!DOCTYPE svg PUBLIC "-//W3C//DTD SVG 1.1//EN" "http://www.w3.org/Graphics/SVG/1.1/DTD/svg11.dtd">
<svg version="1.1" id="Layer_1" xmlns="http://www.w3.org/2000/svg" xmlns:xlink="http://www.w3.org/1999/xlink" x="0px" y="0px"
	 viewBox="0 0 922.1 168.8" enable-background="new 0 0 922.1 168.8" xml:space="preserve">
<path fill="#FFFFFF" d="M569.5,50.9c2.6,0,4.5,0,6.5,0c30.2,0,60.3-0.1,90.5,0.1c4.1,0,6.1-0.7,6.1-5.3c0-3.9,1-7.9,1.7-12.4
	c-34.1,0-68,0-102.6,0c1.3-11,2.5-21.3,4-31.6c0.1-0.8,2.8-1.9,4.3-1.9c18.7-0.1,37.3-0.1,56-0.1c22.2,0,44.4,1,66.5-0.3
	c24.9-1.4,46.5,25.6,33,53.4c-6,12.4-15.6,20.5-28.2,25.3c-3.2,1.2-6.5,2.4-10.8,3.9c18.3,9.3,35.8,18.3,53.8,27.4
	c4.5-36.8,9-73,13.5-109.6c52.8,0,105.4,0,158.4,0c-1.4,11.1-2.7,21.9-4.1,33.3c-28.4,0-56.6,0-85.2,0c-0.9,6-1.7,11.5-2.6,17.8
	c28.6,0,56.7,0,85.6,0c-1.5,12.8-3,24.8-4.5,37.5c-2,0-3.9,0-5.9,0c-25.2,0-50.3,0.1-75.5-0.1c-3.9,0-5.3,1.2-5.6,5
	c-0.3,4.8-1.1,9.5-1.8,14.8c28.7,0,57.2,0,86.3,0c-1.6,13.1-3.1,25.6-4.7,38.8c-52.8,0-105.4,0-158.3,0c-0.9,7.4-1.8,14.2-2.7,21.8
	c-39-23.5-77.6-46.8-116.9-70.5c-2.1,16.5-4.1,32.3-6.1,48.4c-20.6,0-41.2,0-62.3,0C561.7,114.8,565.5,83.2,569.5,50.9z"/>
<path fill="#FFFFFF" d="M277.3-0.5c-2.1,17.3-4.1,33.7-6.1,50.7c7.4,0,14.5,0,22.3,0c2.1-16.6,4.2-33.3,6.3-50.4
	c23.8,0,47.3,0,71.4,0c-6,49.2-12,98-18,147c-23.9,0-47.4,0-71.4,0c2.1-17.2,4.1-34,6.2-51.2c-7.5,0-14.6,0-22.2,0
	c-2.1,16.9-4.2,33.9-6.4,51.1c-23.6,0-47,0-71.2,0c0.9-8.1,1.8-16.1,2.8-24.1c3.9-31.7,7.7-63.4,11.6-95.2c1-8.3,1.9-16.5,3.1-24.8
	c0.2-1.2,1.8-3.1,2.7-3.1C231.1-0.5,253.9-0.5,277.3-0.5z"/>
<path fill="#FFFFFF" d="M450.8,101c1.4,0.2,2.1,0.3,2.7,0.3c5.2,0,11.8,1.8,15-0.7c3-2.3,2.5-9.3,3.2-14.3
	c3.3-25.9,6.4-51.9,9.6-77.8c0.3-2.8,0.8-5.6,1.2-8.6c24.4,0,48.7,0,73.6,0c-1,8-1.9,15.8-2.9,23.6c-2.4,19-3.6,38.2-7.5,56.9
	c-7.7,36.5-30.9,59.6-66.5,69.7c-15.7,4.5-32,4.8-48.1,1.7c-27-5.3-54.7-28.8-50.5-69.1c2.8-27.5,6.4-54.9,9.7-82.7
	c24.4,0,48.4,0,73,0C459.2,33.6,455.1,67.1,450.8,101z"/>
<path fill="#FFFFFF" d="M187.6-0.4c-1.3,10.6-2.5,20.5-3.7,30.4c-0.4,3.3-2.8,2.7-4.9,2.7c-16.2,0.1-32.3,0.2-48.5,0.2
	c-17,0-33.9,0-51.2,0.9c5.9,2.6,11.9,5.1,17.8,7.7c20,8.6,39.9,17.3,59.9,26c1.4,0.6,2.7,1.2,4.1,1.9c17.7,8.5,23.3,20.4,18.7,39.5
	c-5.6,23.2-23.3,38-47.4,38.2c-41,0.4-82,0.2-122.9,0.2c-1,0-1.9-0.2-3.3-0.4c1.6-13.2,3.2-26.2,4.9-39.5c33,0,65.6,0,98.2,0
	c0.1-0.3,0.2-0.6,0.3-0.9c-0.8-0.5-1.6-1-2.5-1.4c-21.2-8.7-42.4-17.3-63.6-26.2c-17.7-7.4-27.1-22.4-24.9-39.5
	C21,19.6,35.5,3.4,53.5,0.4c2.9-0.5,6-0.9,8.9-0.9c40.3,0,80.6,0,120.9,0.1C184.5-0.4,185.6-0.4,187.6-0.4z"/>
</svg>
