<?xml version="1.0" encoding="utf-8"?>
<!-- Generator: Adobe Illustrator 18.1.1, SVG Export Plug-In . SVG Version: 6.00 Build 0)  -->
<!DOCTYPE svg PUBLIC "-//W3C//DTD SVG 1.1//EN" "http://www.w3.org/Graphics/SVG/1.1/DTD/svg11.dtd">
<svg version="1.1" id="Layer_1" xmlns="http://www.w3.org/2000/svg" xmlns:xlink="http://www.w3.org/1999/xlink" x="0px" y="0px"
	 viewBox="0 0 456.9 105.1" enable-background="new 0 0 456.9 105.1" xml:space="preserve">
<path fill="#FFFFFF" d="M266.3,30.5c-3.3,18.6-6.6,37.2-10,55.8c-4.2,0-8.4,0-12.7,0c-3.7-18.3-7.5-36.6-11.2-55c-0.1,0-0.1,0-0.2,0
	c0,21.1,0,42.2,0,63.4c-4.6,0-9,0-13.5,0c0-28.6,0-57.3,0-86c7.8,0,15.7,0,23.6,0c2.7,13.4,5.5,26.8,8.2,40.2c0.1,0,0.1,0,0.2,0
	c2.4-13.4,4.7-26.8,7.1-40.2c8.2,0,16.3,0,24.5,0c0,28.6,0,57.3,0,86c-5.2,0-10.4,0-15.7,0c0-21.4,0-42.8,0-64.3
	C266.5,30.5,266.4,30.5,266.3,30.5z"/>
<path fill="#FFFFFF" d="M381.2,8.7c5.2,0,10.3,0,15.4,0c0,28.7,0,57.3,0,86c-5.1,0-10.2,0-15.4,0c0-12.5,0-25,0-37.6
	c-5.5,0-10.9,0-16.5,0c0,12.6,0,25,0,37.6c-5.1,0-10.1,0-15.1,0c0-28.7,0-57.3,0-86c5,0,10,0,15.1,0c0,10.9,0,21.8,0,32.8
	c5.5,0,10.9,0,16.4,0C381.2,30.6,381.2,19.7,381.2,8.7z"/>
<path fill="#FFFFFF" d="M304.9,8.7c7.9,0,15.6,0,23.4,0c4.7,28.7,9.5,57.3,14.2,86.1c-0.4,0-0.8,0.1-1.1,0.1c-4.4,0-8.8,0-13.2,0
	c-0.8,0-1.2-0.1-1.3-1.1c-0.9-5.8-1.9-11.7-2.8-17.5c-0.1-0.4-0.2-0.9-0.3-1.4c-5.7,0-11.4,0-17.3,0c-1.1,6.6-2.2,13.2-3.3,19.9
	c-4.7,0-9.3,0-14,0C294.5,66,299.7,37.4,304.9,8.7z M315.5,22.8c-0.1,0-0.2,0-0.2,0c-2.1,12.5-4.2,25-6.3,37.5c4.3,0,8.3,0,12.6,0
	C319.5,47.8,317.5,35.3,315.5,22.8z"/>
<path fill="#FFFFFF" d="M403.6,94.8c2-10.9,3.9-21.5,5.9-32.1c2.6-14.3,5.2-28.5,7.8-42.8c0.6-3.5,1.3-7,1.9-10.5
	c0.1-0.3,0.5-0.8,0.8-0.8c7.6,0,15.1,0,22.8,0c4.7,28.7,9.5,57.4,14.2,86.1c-5.2,0-10.3,0-15.4,0c-1.1-6.6-2.1-13.2-3.2-19.8
	c-5.7,0-11.5,0-17.3,0c-0.5,3-1,6.1-1.5,9.1c-0.6,3.3-1.1,6.6-1.7,9.9c-0.1,0.3-0.5,0.8-0.7,0.8C412.6,94.9,408.1,94.8,403.6,94.8z
	 M435.9,60.4c-2-12.5-4-24.9-6-37.3c-0.1,0-0.2,0-0.3,0c-2.1,12.4-4.1,24.8-6.2,37.3C427.6,60.4,431.7,60.4,435.9,60.4z"/>
<path fill="#FFFFFF" d="M211.5,94.8c-5.1,0-10.2,0-15.4,0c-1.1-6.6-2.1-13.2-3.2-19.8c-5.8,0-11.5,0-17.3,0
	c-1.1,6.6-2.2,13.2-3.3,19.9c-4.7,0-9.2,0-14,0c5.2-28.7,10.5-57.4,15.7-86.1c0.4,0,0.7-0.1,1-0.1c7.1,0,14.2,0,21.4,0
	c0.9,0,1.1,0.2,1.3,1.1c2.4,15,4.9,29.9,7.4,44.9c2.1,12.8,4.3,25.7,6.4,38.5C211.3,93.7,211.4,94.2,211.5,94.8z M190.5,60.4
	c-2-12.6-4.1-25.2-6.1-37.7c-0.1,0-0.1,0-0.2,0c-2.1,12.5-4.2,25.1-6.3,37.7C182.2,60.4,186.2,60.4,190.5,60.4z"/>
<path fill="#FFFFFF" d="M112.3,8.6c3.1,0,6.2,0,9.3,0c1.6,0,3.2,0,4.8,0c0.8,0,1.1,0.2,1.3,1c3.1,10.3,6.3,20.7,9.5,31
	c0.1,0.3,0.2,0.7,0.4,1.3c0.2-0.5,0.4-0.8,0.5-1.1c3.5-10.2,7-20.5,10.4-30.7c0.4-1.1,0.8-1.5,2-1.5c4.2,0.1,8.4,0,12.7,0
	c-0.9,2.6-1.7,5.2-2.6,7.7c-4.8,14.2-9.7,28.4-14.5,42.6c-0.2,0.6-0.3,1.2-0.3,1.9c0,10.8,0,21.6,0,32.4c0,0.5,0,1,0,1.5
	c-5.6,0-11.1,0-16.8,0c0-0.4,0-0.9,0-1.4c0-10,0-20,0-30c0-1.3-0.2-2.5-0.6-3.7c-5.2-16.7-10.5-33.3-15.8-50
	C112.4,9.4,112.4,9.1,112.3,8.6z"/>
<path fill="#FFFFFF" d="M103.4,51.9c0,28.4-23.2,51.6-51.7,51.6C23.2,103.5,0,80.2,0,51.7C0,23.2,23.3,0,51.8,0
	C80.3,0,103.4,23.2,103.4,51.9z M51.6,101.2c27.3,0,49.7-22.3,49.5-49.5C101,24.5,79.6,2.6,52.2,2.3C24.6,2.1,2.7,23.9,2.3,51.2
	C2,78.5,23.5,100.9,51.6,101.2z"/>
<path fill="#FFFFFF" d="M51.7,95.7c-25-0.3-44.1-20.1-43.9-44.4C8.1,27.1,27.4,7.9,51.9,7.8c24.1-0.1,43.8,19.8,43.8,44
	C95.6,76,75.9,95.7,51.7,95.7z M37.8,51.7c-1.1,0.6-2.1,1.2-3,1.8c-2.6,1.5-4.2,3.7-4.9,6.6c-0.6,2.6-2.7,3.8-5.3,3
	c-0.8-0.3-1.3-0.2-1.8,0.4c-2.3,2.6-4.5,5.3-6.8,7.9c-0.2,0.3-0.4,0.8-0.2,1c0.1,0.2,0.7,0.4,1,0.3c3.4-0.6,6.8-1.2,10.2-1.9
	c0.5-0.1,1.1-0.8,1.3-1.3c0.7-2.7,2.6-3.9,5.3-3.1c2.9,0.9,5.6,0.5,8.2-1c0.9-0.5,1.9-1.1,3-1.7c0,7.1,0,14.1,0,21c1.6,0,3,0,4.5,0
	c0-0.5,0-1,0-1.4c0-6.8,0-13.7,0-20.5c0-1.3,0.3-2,1.5-2.6c1.5-0.7,3.5,0.4,3.5,2.1c0,7,0,14.1,0,21.1c0,0.5,0,0.9,0,1.4
	c1.6,0,2.9,0,4.5,0c0-7,0-14,0-21.1c0.9,0.5,1.7,0.9,2.5,1.4c2.8,1.8,5.8,2.2,9.1,1.2c2.2-0.7,4.3,0.6,4.8,2.9
	c0.2,1,0.6,1.5,1.7,1.7c3.3,0.6,6.5,1.2,9.8,1.8c0.4,0.1,0.8-0.1,1.2-0.2c-0.1-0.4-0.1-1-0.4-1.3c-2.2-2.6-4.4-5.2-6.6-7.8
	c-0.5-0.6-1.1-0.8-1.9-0.5c-2.5,0.9-4.7-0.4-5.3-3c-0.7-2.9-2.3-5.1-4.9-6.6c-1-0.5-1.9-1.1-3-1.8c6.2-3.6,12.2-7.1,18.3-10.6
	c-0.8-1.4-1.5-2.6-2.2-3.8c-0.5,0.3-0.9,0.5-1.3,0.7c-5.9,3.4-11.8,6.8-17.6,10.2c-1.2,0.7-2.1,0.8-3.2,0c-1.4-1-1.4-3.2,0.1-4
	c6.1-3.5,12.2-7.1,18.4-10.6c0.4-0.2,0.7-0.4,1.2-0.7c-0.8-1.3-1.5-2.5-2.2-3.8c-6.1,3.5-12.1,7-18.3,10.6c0-1.4,0-2.5,0-3.7
	c0-2.9-1.1-5.4-3.2-7.3c-2-1.9-2-4.3,0-6.1c0.6-0.5,0.8-1.1,0.5-1.8c-1.2-3.3-2.3-6.6-3.5-9.8c-0.1-0.3-0.5-0.5-0.8-0.8
	c-0.3,0.3-0.6,0.5-0.8,0.8c-1.2,3.3-2.3,6.5-3.5,9.8c-0.3,0.7-0.1,1.3,0.5,1.8c0.5,0.5,1,1.1,1.3,1.8c0.6,1.6,0.1,3.1-1.2,4.2
	c-2.4,2.2-3.5,4.9-3.3,8.1c0,0.9,0,1.8,0,2.9c-6.2-3.6-12.2-7.1-18.3-10.6c-0.8,1.4-1.5,2.6-2.2,3.8c0.4,0.3,0.7,0.5,1.1,0.7
	c5.9,3.4,11.9,6.9,17.9,10.3c1.2,0.7,1.7,1.4,1.6,2.8c-0.1,1.6-2.1,2.8-3.5,2C35.2,45.1,29,41.5,22.9,38c-0.4-0.2-0.7-0.4-1.1-0.6
	c-0.8,1.3-1.5,2.5-2.2,3.8C25.6,44.7,31.6,48.2,37.8,51.7z"/>
<path fill="#FFFFFF" d="M68.5,59.5c0,2.4-1.9,3.6-3.6,2.7c-2-1-3.9-2.2-5.8-3.3c-0.5-0.3-0.7-2.7-0.3-3.2c0.9-1,2.5-1.3,3.7-0.6
	c1.6,0.9,3.2,1.7,4.6,2.7C67.8,58.3,68.3,59.1,68.5,59.5z"/>
<path fill="#FFFFFF" d="M44.8,57.4c0.4,1-0.4,1.5-1.3,2c-1.6,0.8-3,1.8-4.6,2.6c-1.4,0.8-2.8,0.5-3.6-0.8c-0.8-1.3-0.4-2.7,1-3.6
	c1.5-0.9,3-1.8,4.6-2.6C42.9,54,44.8,55,44.8,57.4z"/>
<path fill="#FFFFFF" d="M49.3,38.3c0-1,0-2,0-3c0-1.5,1-2.5,2.3-2.5c1.4-0.1,2.5,0.9,2.6,2.3c0.1,2.2,0.1,4.5,0,6.7
	c0,0.9-2.2,2-3.1,1.6c-1.4-0.6-2.2-1.4-1.9-3.1C49.4,39.7,49.3,39,49.3,38.3z"/>
<path fill="#FFFFFF" d="M54.7,51.9c-0.1,0.5-0.1,1.3-0.5,1.7c-0.7,0.6-1.7,1.3-2.6,1.3c-0.9,0-1.9-0.7-2.6-1.4
	c-0.4-0.4-0.3-1.3-0.3-2c0-0.5,0-1.2,0.2-1.4c0.8-0.6,1.8-1.4,2.7-1.4c0.9,0,1.8,0.7,2.6,1.4C54.7,50.3,54.6,51.2,54.7,51.9z"/>
</svg>
