<?xml version="1.0" encoding="utf-8"?>
<!-- Generator: Adobe Illustrator 18.1.1, SVG Export Plug-In . SVG Version: 6.00 Build 0)  -->
<!DOCTYPE svg PUBLIC "-//W3C//DTD SVG 1.1//EN" "http://www.w3.org/Graphics/SVG/1.1/DTD/svg11.dtd">
<svg version="1.1" id="Layer_1" xmlns="http://www.w3.org/2000/svg" xmlns:xlink="http://www.w3.org/1999/xlink" x="0px" y="0px"
	 viewBox="0 0 245.8 104.6" enable-background="new 0 0 245.8 104.6" xml:space="preserve">
<path fill="#FCFCFC" d="M0.2,81.8c4-6,9.3-10.5,15.6-14.1c6-3.4,12.4-5.9,18.7-8.5c5.6-2.3,10.9-4.9,16-8.2c3-1.9,6-3.8,8.6-6.3
	c0.2-0.2,0.5-0.5,0.8-0.9c-1-0.1-1.8-0.2-2.7-0.4c-3.9-0.5-7.8-1-11.7-1.6c-4-0.7-8-1.7-12.1-2.4c-1.5-0.3-3-0.3-4.5-0.3
	c-3.3,0-6.6,0-9.8,0.3c-2.4,0.2-4.7,1-7.2,1.6c2-2.3,4.5-4.2,7-5.8c3.8-2.3,7.9-3.7,12.2-4.7c4.5-1,8.9-0.4,13.3,0.9
	c4.5,1.3,9.2,2.2,13.8,3.2c4.6,0.9,9.3,1.1,14,0.9c1.5,0,3.1-0.2,4.8-0.3c-0.2,0.4-0.3,0.8-0.5,1.1c-3.2,4.2-6.9,7.8-11,11.1
	c-5.1,4.1-10.8,7.3-16.6,10.3c-6.8,3.5-13.5,7.2-19.9,11.6c-0.1,0.1-0.1,0.2-0.3,0.3c1.8,0.2,3.5,0.3,5.2,0.6
	c3.1,0.5,6.3,0.9,9.4,1.7c4.3,1.1,8.4,2.6,12.6,4c2.1,0.7,4,1.6,6.1,2.3c4.1,1.4,8.3,1.6,12.3,0c1.1-0.4,2.2-1.1,3-2
	c0.6-0.7,0.9-1.8,0.9-2.8c0.2-3.4,0.1-6.9,0.3-10.3c0.1-2.4-1.7-3-3.5-2.7c-0.5,0.1-1.1,0.1-1.6,0.2c0-0.1-0.1-0.2-0.1-0.3
	c1-0.8,2-1.6,3.1-2.3c2.4-1.8,4.9-3.5,7.8-4.5c2-0.7,3.2-0.1,3.2,2c0,3.3-0.3,6.6-0.5,9.9c-0.1,2-0.3,4-0.3,6c0.1,2,1.9,2.9,4.1,2
	c0.7-0.3,1.4-0.7,2.1-1.2c0.3-0.2,0.5-0.8,0.6-1.2c0.5-5.9,1-11.9,1.5-17.8c0.2-2.1,0.5-4.1,0.7-6.2c0.2-1.9-0.8-3-2.8-3
	c-1.1,0-2.2,0.1-3.5,0.2c3.4-3.7,6.8-6.8,11.9-7.1c1.8-0.1,2.7,0.7,2.7,2.5c0,2.7-0.2,5.4-0.4,8c-0.2,2.2-0.5,4.3-0.8,6.5
	c-0.4,4-0.8,8-1,12c-0.1,2,0.1,4,1.3,5.8c0.7,1.1,1.8,1.3,3,1.4c0.8,0,0.9-0.6,0.8-1.2c-0.1-2,0.1-4,0.7-6c1.1-3.3,3-6.1,5.6-8.5
	c2.3-2.1,5-3.5,7.9-4.7c-0.7-0.8-1.3-1.6-2-2.4c-2.8-3.4-5.8-6.7-8.5-10.3c-3.5-4.6-6.9-9.3-9-14.8c-2.4-6.4-2.3-12.8,1.5-18.8
	c1.9-3.1,4.7-4.8,7.9-6.1c0.1,0,0.2-0.1,0.2-0.2c0.2,0,0.3,0,0.5,0c-0.5,1-0.9,2-1.4,3c-2.5,4.8-2.9,9.7-1.1,14.8
	c1.8,5.3,4,10.3,7.4,14.8c1.9,2.5,4.1,4.8,6.1,7.1c3.7,4.4,7.4,8.7,11,13.1c1.7,2.1,3,4.5,4.5,6.9c1.4-1.6,2.8-3.4,4.4-5
	c1.6-1.6,3.4-3,5.1-4.4c0.1,0,0.2,0.1,0.4,0.1c-0.2,2.3-0.4,4.5-0.6,6.8c0.1,0.1,0.2,0.1,0.3,0.2c1.4-0.9,2.8-1.9,4.3-2.8
	c1.6-1.1,3.3-2.3,5-3.2c0.9-0.5,2.1-0.7,3,0.1c1.3,0.9,1.4,2.3,1.3,3.8c-0.2,2.2-0.4,4.5-0.6,6.7c-0.2,2-0.4,4.1-0.7,6.1
	c-0.3,2.1,2.2,4.5,4.3,3.8c0.3-0.1,0.5-0.5,0.6-0.8c0.8-3.5,3.2-5.6,6.1-7.4c1.2-0.7,2.2-1.6,3.4-2.4c0.8-0.5,0.6-1,0.1-1.6
	c-1.7-2.3-4-2.9-6.7-2.4c-0.9,0.2-1.9,0.2-3,0.4c0.6-1.8,1.7-3.1,3-4.1c1.9-1.6,3.9-3,6.4-3.6c2.3-0.5,4.2,0.4,5.9,1.7
	c3.3,2.5,5.1,6.2,7.4,9.5c1.7,2.5,3.4,5.1,5.9,6.9c1.8,1.3,3.8,1.3,5.8,0.4c0.3-0.2,0.7-0.6,0.8-1c0.1-2,0.2-4.1-0.1-6.1
	c-0.4-2.9-2.1-4.1-5.8-4.5c0.6-0.7,1-1.3,1.5-1.8c2-1.9,4-3.7,6.8-4.4c2.7-0.7,5.4-0.1,6.5,2.9c0.2,0.4,0.4,0.8,0.7,1.3
	c1.4-1.2,2.8-2.3,4.1-3.4c2.2-1.9,4.8-2.9,7.6-3.2c3.1-0.4,5.7,1.2,6.9,4.3c1.3,3.2,2.5,6.5,3.9,9.8c1,2.4,2.4,4.8,4.5,6.3
	c2.6,1.8,5.5,1.8,8.4,0.7c0.2-0.1,0.5-0.2,1-0.4c-3,4.3-6.2,7.7-11.2,9c-2.3,0.6-4.3-0.4-6.3-1.4c-2.1-1.1-3.5-2.8-4.4-5
	c-1.5-3.6-3-7.3-4.4-11c-1.1-2.8-4.7-4-6.9-2c-0.8,0.7-1.3,1.9-1.6,3c-0.6,2.4-0.8,5-1.5,7.4c-1.4,5.4-4.7,9.1-9.9,11.2
	c-0.1,0.1-0.3,0.1-0.6,0.1c0.1-1.8,0.3-3.5,0.4-5.2c-0.1-0.1-0.2-0.1-0.3-0.2c-0.6,0.5-1.2,0.9-1.8,1.4c-1.8,1.3-3.6,2.5-5.9,2.3
	c-0.8-0.1-1.7-0.3-2.5-0.7c-1.2-0.6-2.3-1.3-3.3-2.2c-0.9-0.9-1.5-0.7-2.5-0.1c-2.6,1.7-5.4,3-8.5,3.4c-2.1,0.3-4.1-0.4-6-1.5
	c-0.6-0.3-1.1-0.9-1.7-1.1c-0.4-0.2-1-0.1-1.5,0.1c-1.8,0.6-3.6,1.2-5.4,1.8c-2,0.7-3.8-0.2-5.4-1.2c-2-1.3-3.6-3-3.3-5.7
	c0.3-2.7,0.7-5.3,0.9-8c0.1-0.9-0.1-1.8-0.4-2.7c-0.6-1.8-2.5-2.4-4.2-1.6c-0.6,0.2-0.8,0.6-0.8,1.2c-0.4,5.5-0.6,11.1-1.3,16.6
	c-0.7,5.4-2.3,10.6-5.5,15.1c-3.3,4.6-7.4,8.2-12.6,10.4c-2.8,1.2-5.7,2.3-8.8,2c-1.1-0.1-2.2-0.3-3.2-0.7c-1.4-0.5-1.9-2.1-1.4-3.8
	c0.4-1.2,1.3-1.6,3-1.4c3.5,0.3,7.1,0.8,10.4-0.9c4-2.1,7.1-4.9,7.7-9.7c0.5-3.9,1-7.8,1.4-11.7c0.3-2.7,0.5-5.4,0.7-8.1
	c0-0.5-0.1-1-0.2-1.4c-0.1,0-0.2,0-0.3-0.1c-0.5,0.7-0.9,1.4-1.4,2.1c-0.4,0.6-0.7,1.3-1.2,1.8c-4.3,4.4-9.2,7.8-15.3,9.3
	c-3.2,0.8-5.9-0.5-8.3-2.4c-0.7-0.5-1.3-1.1-1.8-1.5c-2,1.1-3.8,2.2-5.7,3c-2.3,1-4.3,0.4-6.1-1.2c-0.9-0.8-1.7-1.6-2.7-2.5
	c-1.2,1-2.3,2.1-3.6,3c-1.9,1.5-4,2.5-6.4,1.9c-1-0.2-2-0.8-2.9-1.3c-0.5-0.3-0.9-0.3-1.3,0.1c-1.6,1.4-3.2,2.8-5,4
	c-2.7,1.9-5.8,2.9-9.2,3.2c-6.8,0.8-13.2-0.8-19.7-2.3C40.5,83,34.3,81.3,28.1,80c-4.5-1-9.2-1.2-13.8-0.7C10,79.8,5.7,81,1.3,81.9
	c-0.3,0.1-0.7,0.1-1,0.2C0.2,82,0.2,81.9,0.2,81.8z M122.6,71.8c4.4,0.1,7.3-3.3,6.3-7.9c-0.5-2.3-1.7-4.2-3.2-6
	c-1.1-1.2-1.6-1.4-2.9-0.4c-2.4,1.9-4.7,4-5.5,7.1C116.4,68.7,118.4,71.8,122.6,71.8z M177.5,64c-1.8,1-2.9,2.3-3.6,4
	c-0.7,1.5,0.1,3.4,1.6,4.2c1.2,0.6,2.5,0.4,3.7,0.3c1-0.1,1.9-0.5,3-0.9C180.5,68.9,179,66.4,177.5,64z"/>
<path fill="#FCFCFC" d="M152.9,49.8c0.3-0.6,0.4-1,0.6-1.3c1.6-3,1.4-5.8-0.6-8.5c-0.5-0.6-0.9-1.3-1.4-1.9
	c-0.4-0.5-0.4-0.8,0.2-1.1c2.4-1.5,4.7-3,7-4.7c0.9-0.7,1.3-0.3,1.7,0.5c2,3.9,1.7,7.7-0.7,11.3C158.1,46.5,156.1,48.6,152.9,49.8z"
	/>
<path fill="#FCFCFC" d="M139.7,51.2c2.8-4.4,1.8-8.1-2.1-11.3c2.9-2,5.7-4,8.5-5.9c2,1.5,3,6.1,2.3,8.8
	C147.6,46.3,142.8,51.4,139.7,51.2z"/>
<path fill="#FCFCFC" d="M81.7,50.2c0.9-1.9,2.4-3.8,1.3-6c-1-1.9-2.4-3.5-3.7-5.4c0.8-0.6,1.9-1.4,3-2.2c1.5-1.1,3.1-2.2,4.7-3.2
	c1-0.6,1.5-0.4,2,0.7c0.7,1.9,1,3.9,0.5,5.9c-0.7,3.1-2.2,5.9-4.5,8.2c-0.9,0.9-2,1.5-2.9,2.3C81.9,50.3,81.8,50.3,81.7,50.2z"/>
</svg>
